%TF.GenerationSoftware,KiCad,Pcbnew,7.0.2*%
%TF.CreationDate,2023-05-05T15:54:23-05:00*%
%TF.ProjectId,Low-Pass-Filter-Board,4c6f772d-5061-4737-932d-46696c746572,V01*%
%TF.SameCoordinates,Original*%
%TF.FileFunction,Legend,Top*%
%TF.FilePolarity,Positive*%
%FSLAX46Y46*%
G04 Gerber Fmt 4.6, Leading zero omitted, Abs format (unit mm)*
G04 Created by KiCad (PCBNEW 7.0.2) date 2023-05-05 15:54:23*
%MOMM*%
%LPD*%
G01*
G04 APERTURE LIST*
%ADD10C,0.125000*%
%ADD11C,0.150000*%
%ADD12C,0.120000*%
G04 APERTURE END LIST*
D10*
X155858095Y-95384952D02*
X155058095Y-95384952D01*
X155058095Y-95384952D02*
X155858095Y-95099238D01*
X155858095Y-95099238D02*
X155058095Y-95099238D01*
X155781904Y-94575428D02*
X155820000Y-94599237D01*
X155820000Y-94599237D02*
X155858095Y-94670666D01*
X155858095Y-94670666D02*
X155858095Y-94718285D01*
X155858095Y-94718285D02*
X155820000Y-94789713D01*
X155820000Y-94789713D02*
X155743809Y-94837332D01*
X155743809Y-94837332D02*
X155667619Y-94861142D01*
X155667619Y-94861142D02*
X155515238Y-94884951D01*
X155515238Y-94884951D02*
X155400952Y-94884951D01*
X155400952Y-94884951D02*
X155248571Y-94861142D01*
X155248571Y-94861142D02*
X155172380Y-94837332D01*
X155172380Y-94837332D02*
X155096190Y-94789713D01*
X155096190Y-94789713D02*
X155058095Y-94718285D01*
X155058095Y-94718285D02*
X155058095Y-94670666D01*
X155058095Y-94670666D02*
X155096190Y-94599237D01*
X155096190Y-94599237D02*
X155134285Y-94575428D01*
X108322000Y-96932761D02*
X108360095Y-96861333D01*
X108360095Y-96861333D02*
X108360095Y-96742285D01*
X108360095Y-96742285D02*
X108322000Y-96694666D01*
X108322000Y-96694666D02*
X108283904Y-96670857D01*
X108283904Y-96670857D02*
X108207714Y-96647047D01*
X108207714Y-96647047D02*
X108131523Y-96647047D01*
X108131523Y-96647047D02*
X108055333Y-96670857D01*
X108055333Y-96670857D02*
X108017238Y-96694666D01*
X108017238Y-96694666D02*
X107979142Y-96742285D01*
X107979142Y-96742285D02*
X107941047Y-96837523D01*
X107941047Y-96837523D02*
X107902952Y-96885142D01*
X107902952Y-96885142D02*
X107864857Y-96908952D01*
X107864857Y-96908952D02*
X107788666Y-96932761D01*
X107788666Y-96932761D02*
X107712476Y-96932761D01*
X107712476Y-96932761D02*
X107636285Y-96908952D01*
X107636285Y-96908952D02*
X107598190Y-96885142D01*
X107598190Y-96885142D02*
X107560095Y-96837523D01*
X107560095Y-96837523D02*
X107560095Y-96718476D01*
X107560095Y-96718476D02*
X107598190Y-96647047D01*
X108360095Y-96432762D02*
X107560095Y-96432762D01*
X107598190Y-95932762D02*
X107560095Y-95980381D01*
X107560095Y-95980381D02*
X107560095Y-96051810D01*
X107560095Y-96051810D02*
X107598190Y-96123238D01*
X107598190Y-96123238D02*
X107674380Y-96170857D01*
X107674380Y-96170857D02*
X107750571Y-96194667D01*
X107750571Y-96194667D02*
X107902952Y-96218476D01*
X107902952Y-96218476D02*
X108017238Y-96218476D01*
X108017238Y-96218476D02*
X108169619Y-96194667D01*
X108169619Y-96194667D02*
X108245809Y-96170857D01*
X108245809Y-96170857D02*
X108322000Y-96123238D01*
X108322000Y-96123238D02*
X108360095Y-96051810D01*
X108360095Y-96051810D02*
X108360095Y-96004191D01*
X108360095Y-96004191D02*
X108322000Y-95932762D01*
X108322000Y-95932762D02*
X108283904Y-95908953D01*
X108283904Y-95908953D02*
X108017238Y-95908953D01*
X108017238Y-95908953D02*
X108017238Y-96004191D01*
X107598190Y-98425047D02*
X107560095Y-98472666D01*
X107560095Y-98472666D02*
X107560095Y-98544095D01*
X107560095Y-98544095D02*
X107598190Y-98615523D01*
X107598190Y-98615523D02*
X107674380Y-98663142D01*
X107674380Y-98663142D02*
X107750571Y-98686952D01*
X107750571Y-98686952D02*
X107902952Y-98710761D01*
X107902952Y-98710761D02*
X108017238Y-98710761D01*
X108017238Y-98710761D02*
X108169619Y-98686952D01*
X108169619Y-98686952D02*
X108245809Y-98663142D01*
X108245809Y-98663142D02*
X108322000Y-98615523D01*
X108322000Y-98615523D02*
X108360095Y-98544095D01*
X108360095Y-98544095D02*
X108360095Y-98496476D01*
X108360095Y-98496476D02*
X108322000Y-98425047D01*
X108322000Y-98425047D02*
X108283904Y-98401238D01*
X108283904Y-98401238D02*
X108017238Y-98401238D01*
X108017238Y-98401238D02*
X108017238Y-98496476D01*
X108360095Y-98186952D02*
X107560095Y-98186952D01*
X107560095Y-98186952D02*
X108360095Y-97901238D01*
X108360095Y-97901238D02*
X107560095Y-97901238D01*
X108360095Y-97663142D02*
X107560095Y-97663142D01*
X107560095Y-97663142D02*
X107560095Y-97544094D01*
X107560095Y-97544094D02*
X107598190Y-97472666D01*
X107598190Y-97472666D02*
X107674380Y-97425047D01*
X107674380Y-97425047D02*
X107750571Y-97401237D01*
X107750571Y-97401237D02*
X107902952Y-97377428D01*
X107902952Y-97377428D02*
X108017238Y-97377428D01*
X108017238Y-97377428D02*
X108169619Y-97401237D01*
X108169619Y-97401237D02*
X108245809Y-97425047D01*
X108245809Y-97425047D02*
X108322000Y-97472666D01*
X108322000Y-97472666D02*
X108360095Y-97544094D01*
X108360095Y-97544094D02*
X108360095Y-97663142D01*
X155820000Y-96932761D02*
X155858095Y-96861333D01*
X155858095Y-96861333D02*
X155858095Y-96742285D01*
X155858095Y-96742285D02*
X155820000Y-96694666D01*
X155820000Y-96694666D02*
X155781904Y-96670857D01*
X155781904Y-96670857D02*
X155705714Y-96647047D01*
X155705714Y-96647047D02*
X155629523Y-96647047D01*
X155629523Y-96647047D02*
X155553333Y-96670857D01*
X155553333Y-96670857D02*
X155515238Y-96694666D01*
X155515238Y-96694666D02*
X155477142Y-96742285D01*
X155477142Y-96742285D02*
X155439047Y-96837523D01*
X155439047Y-96837523D02*
X155400952Y-96885142D01*
X155400952Y-96885142D02*
X155362857Y-96908952D01*
X155362857Y-96908952D02*
X155286666Y-96932761D01*
X155286666Y-96932761D02*
X155210476Y-96932761D01*
X155210476Y-96932761D02*
X155134285Y-96908952D01*
X155134285Y-96908952D02*
X155096190Y-96885142D01*
X155096190Y-96885142D02*
X155058095Y-96837523D01*
X155058095Y-96837523D02*
X155058095Y-96718476D01*
X155058095Y-96718476D02*
X155096190Y-96647047D01*
X155858095Y-96432762D02*
X155058095Y-96432762D01*
X155096190Y-95932762D02*
X155058095Y-95980381D01*
X155058095Y-95980381D02*
X155058095Y-96051810D01*
X155058095Y-96051810D02*
X155096190Y-96123238D01*
X155096190Y-96123238D02*
X155172380Y-96170857D01*
X155172380Y-96170857D02*
X155248571Y-96194667D01*
X155248571Y-96194667D02*
X155400952Y-96218476D01*
X155400952Y-96218476D02*
X155515238Y-96218476D01*
X155515238Y-96218476D02*
X155667619Y-96194667D01*
X155667619Y-96194667D02*
X155743809Y-96170857D01*
X155743809Y-96170857D02*
X155820000Y-96123238D01*
X155820000Y-96123238D02*
X155858095Y-96051810D01*
X155858095Y-96051810D02*
X155858095Y-96004191D01*
X155858095Y-96004191D02*
X155820000Y-95932762D01*
X155820000Y-95932762D02*
X155781904Y-95908953D01*
X155781904Y-95908953D02*
X155515238Y-95908953D01*
X155515238Y-95908953D02*
X155515238Y-96004191D01*
X108360095Y-95384952D02*
X107560095Y-95384952D01*
X107560095Y-95384952D02*
X108360095Y-95099238D01*
X108360095Y-95099238D02*
X107560095Y-95099238D01*
X108283904Y-94575428D02*
X108322000Y-94599237D01*
X108322000Y-94599237D02*
X108360095Y-94670666D01*
X108360095Y-94670666D02*
X108360095Y-94718285D01*
X108360095Y-94718285D02*
X108322000Y-94789713D01*
X108322000Y-94789713D02*
X108245809Y-94837332D01*
X108245809Y-94837332D02*
X108169619Y-94861142D01*
X108169619Y-94861142D02*
X108017238Y-94884951D01*
X108017238Y-94884951D02*
X107902952Y-94884951D01*
X107902952Y-94884951D02*
X107750571Y-94861142D01*
X107750571Y-94861142D02*
X107674380Y-94837332D01*
X107674380Y-94837332D02*
X107598190Y-94789713D01*
X107598190Y-94789713D02*
X107560095Y-94718285D01*
X107560095Y-94718285D02*
X107560095Y-94670666D01*
X107560095Y-94670666D02*
X107598190Y-94599237D01*
X107598190Y-94599237D02*
X107636285Y-94575428D01*
X155096190Y-98425047D02*
X155058095Y-98472666D01*
X155058095Y-98472666D02*
X155058095Y-98544095D01*
X155058095Y-98544095D02*
X155096190Y-98615523D01*
X155096190Y-98615523D02*
X155172380Y-98663142D01*
X155172380Y-98663142D02*
X155248571Y-98686952D01*
X155248571Y-98686952D02*
X155400952Y-98710761D01*
X155400952Y-98710761D02*
X155515238Y-98710761D01*
X155515238Y-98710761D02*
X155667619Y-98686952D01*
X155667619Y-98686952D02*
X155743809Y-98663142D01*
X155743809Y-98663142D02*
X155820000Y-98615523D01*
X155820000Y-98615523D02*
X155858095Y-98544095D01*
X155858095Y-98544095D02*
X155858095Y-98496476D01*
X155858095Y-98496476D02*
X155820000Y-98425047D01*
X155820000Y-98425047D02*
X155781904Y-98401238D01*
X155781904Y-98401238D02*
X155515238Y-98401238D01*
X155515238Y-98401238D02*
X155515238Y-98496476D01*
X155858095Y-98186952D02*
X155058095Y-98186952D01*
X155058095Y-98186952D02*
X155858095Y-97901238D01*
X155858095Y-97901238D02*
X155058095Y-97901238D01*
X155858095Y-97663142D02*
X155058095Y-97663142D01*
X155058095Y-97663142D02*
X155058095Y-97544094D01*
X155058095Y-97544094D02*
X155096190Y-97472666D01*
X155096190Y-97472666D02*
X155172380Y-97425047D01*
X155172380Y-97425047D02*
X155248571Y-97401237D01*
X155248571Y-97401237D02*
X155400952Y-97377428D01*
X155400952Y-97377428D02*
X155515238Y-97377428D01*
X155515238Y-97377428D02*
X155667619Y-97401237D01*
X155667619Y-97401237D02*
X155743809Y-97425047D01*
X155743809Y-97425047D02*
X155820000Y-97472666D01*
X155820000Y-97472666D02*
X155858095Y-97544094D01*
X155858095Y-97544094D02*
X155858095Y-97663142D01*
D11*
%TO.C,C5*%
X127849333Y-93331380D02*
X127801714Y-93379000D01*
X127801714Y-93379000D02*
X127658857Y-93426619D01*
X127658857Y-93426619D02*
X127563619Y-93426619D01*
X127563619Y-93426619D02*
X127420762Y-93379000D01*
X127420762Y-93379000D02*
X127325524Y-93283761D01*
X127325524Y-93283761D02*
X127277905Y-93188523D01*
X127277905Y-93188523D02*
X127230286Y-92998047D01*
X127230286Y-92998047D02*
X127230286Y-92855190D01*
X127230286Y-92855190D02*
X127277905Y-92664714D01*
X127277905Y-92664714D02*
X127325524Y-92569476D01*
X127325524Y-92569476D02*
X127420762Y-92474238D01*
X127420762Y-92474238D02*
X127563619Y-92426619D01*
X127563619Y-92426619D02*
X127658857Y-92426619D01*
X127658857Y-92426619D02*
X127801714Y-92474238D01*
X127801714Y-92474238D02*
X127849333Y-92521857D01*
X128754095Y-92426619D02*
X128277905Y-92426619D01*
X128277905Y-92426619D02*
X128230286Y-92902809D01*
X128230286Y-92902809D02*
X128277905Y-92855190D01*
X128277905Y-92855190D02*
X128373143Y-92807571D01*
X128373143Y-92807571D02*
X128611238Y-92807571D01*
X128611238Y-92807571D02*
X128706476Y-92855190D01*
X128706476Y-92855190D02*
X128754095Y-92902809D01*
X128754095Y-92902809D02*
X128801714Y-92998047D01*
X128801714Y-92998047D02*
X128801714Y-93236142D01*
X128801714Y-93236142D02*
X128754095Y-93331380D01*
X128754095Y-93331380D02*
X128706476Y-93379000D01*
X128706476Y-93379000D02*
X128611238Y-93426619D01*
X128611238Y-93426619D02*
X128373143Y-93426619D01*
X128373143Y-93426619D02*
X128277905Y-93379000D01*
X128277905Y-93379000D02*
X128230286Y-93331380D01*
%TO.C,C2*%
X118477380Y-102274666D02*
X118525000Y-102322285D01*
X118525000Y-102322285D02*
X118572619Y-102465142D01*
X118572619Y-102465142D02*
X118572619Y-102560380D01*
X118572619Y-102560380D02*
X118525000Y-102703237D01*
X118525000Y-102703237D02*
X118429761Y-102798475D01*
X118429761Y-102798475D02*
X118334523Y-102846094D01*
X118334523Y-102846094D02*
X118144047Y-102893713D01*
X118144047Y-102893713D02*
X118001190Y-102893713D01*
X118001190Y-102893713D02*
X117810714Y-102846094D01*
X117810714Y-102846094D02*
X117715476Y-102798475D01*
X117715476Y-102798475D02*
X117620238Y-102703237D01*
X117620238Y-102703237D02*
X117572619Y-102560380D01*
X117572619Y-102560380D02*
X117572619Y-102465142D01*
X117572619Y-102465142D02*
X117620238Y-102322285D01*
X117620238Y-102322285D02*
X117667857Y-102274666D01*
X117667857Y-101893713D02*
X117620238Y-101846094D01*
X117620238Y-101846094D02*
X117572619Y-101750856D01*
X117572619Y-101750856D02*
X117572619Y-101512761D01*
X117572619Y-101512761D02*
X117620238Y-101417523D01*
X117620238Y-101417523D02*
X117667857Y-101369904D01*
X117667857Y-101369904D02*
X117763095Y-101322285D01*
X117763095Y-101322285D02*
X117858333Y-101322285D01*
X117858333Y-101322285D02*
X118001190Y-101369904D01*
X118001190Y-101369904D02*
X118572619Y-101941332D01*
X118572619Y-101941332D02*
X118572619Y-101322285D01*
%TO.C,C8*%
X141917380Y-102020666D02*
X141965000Y-102068285D01*
X141965000Y-102068285D02*
X142012619Y-102211142D01*
X142012619Y-102211142D02*
X142012619Y-102306380D01*
X142012619Y-102306380D02*
X141965000Y-102449237D01*
X141965000Y-102449237D02*
X141869761Y-102544475D01*
X141869761Y-102544475D02*
X141774523Y-102592094D01*
X141774523Y-102592094D02*
X141584047Y-102639713D01*
X141584047Y-102639713D02*
X141441190Y-102639713D01*
X141441190Y-102639713D02*
X141250714Y-102592094D01*
X141250714Y-102592094D02*
X141155476Y-102544475D01*
X141155476Y-102544475D02*
X141060238Y-102449237D01*
X141060238Y-102449237D02*
X141012619Y-102306380D01*
X141012619Y-102306380D02*
X141012619Y-102211142D01*
X141012619Y-102211142D02*
X141060238Y-102068285D01*
X141060238Y-102068285D02*
X141107857Y-102020666D01*
X141441190Y-101449237D02*
X141393571Y-101544475D01*
X141393571Y-101544475D02*
X141345952Y-101592094D01*
X141345952Y-101592094D02*
X141250714Y-101639713D01*
X141250714Y-101639713D02*
X141203095Y-101639713D01*
X141203095Y-101639713D02*
X141107857Y-101592094D01*
X141107857Y-101592094D02*
X141060238Y-101544475D01*
X141060238Y-101544475D02*
X141012619Y-101449237D01*
X141012619Y-101449237D02*
X141012619Y-101258761D01*
X141012619Y-101258761D02*
X141060238Y-101163523D01*
X141060238Y-101163523D02*
X141107857Y-101115904D01*
X141107857Y-101115904D02*
X141203095Y-101068285D01*
X141203095Y-101068285D02*
X141250714Y-101068285D01*
X141250714Y-101068285D02*
X141345952Y-101115904D01*
X141345952Y-101115904D02*
X141393571Y-101163523D01*
X141393571Y-101163523D02*
X141441190Y-101258761D01*
X141441190Y-101258761D02*
X141441190Y-101449237D01*
X141441190Y-101449237D02*
X141488809Y-101544475D01*
X141488809Y-101544475D02*
X141536428Y-101592094D01*
X141536428Y-101592094D02*
X141631666Y-101639713D01*
X141631666Y-101639713D02*
X141822142Y-101639713D01*
X141822142Y-101639713D02*
X141917380Y-101592094D01*
X141917380Y-101592094D02*
X141965000Y-101544475D01*
X141965000Y-101544475D02*
X142012619Y-101449237D01*
X142012619Y-101449237D02*
X142012619Y-101258761D01*
X142012619Y-101258761D02*
X141965000Y-101163523D01*
X141965000Y-101163523D02*
X141917380Y-101115904D01*
X141917380Y-101115904D02*
X141822142Y-101068285D01*
X141822142Y-101068285D02*
X141631666Y-101068285D01*
X141631666Y-101068285D02*
X141536428Y-101115904D01*
X141536428Y-101115904D02*
X141488809Y-101163523D01*
X141488809Y-101163523D02*
X141441190Y-101258761D01*
%TO.C,L2*%
X131913333Y-99268619D02*
X131437143Y-99268619D01*
X131437143Y-99268619D02*
X131437143Y-98268619D01*
X132199048Y-98363857D02*
X132246667Y-98316238D01*
X132246667Y-98316238D02*
X132341905Y-98268619D01*
X132341905Y-98268619D02*
X132580000Y-98268619D01*
X132580000Y-98268619D02*
X132675238Y-98316238D01*
X132675238Y-98316238D02*
X132722857Y-98363857D01*
X132722857Y-98363857D02*
X132770476Y-98459095D01*
X132770476Y-98459095D02*
X132770476Y-98554333D01*
X132770476Y-98554333D02*
X132722857Y-98697190D01*
X132722857Y-98697190D02*
X132151429Y-99268619D01*
X132151429Y-99268619D02*
X132770476Y-99268619D01*
%TO.C,C10*%
X153347380Y-101988857D02*
X153395000Y-102036476D01*
X153395000Y-102036476D02*
X153442619Y-102179333D01*
X153442619Y-102179333D02*
X153442619Y-102274571D01*
X153442619Y-102274571D02*
X153395000Y-102417428D01*
X153395000Y-102417428D02*
X153299761Y-102512666D01*
X153299761Y-102512666D02*
X153204523Y-102560285D01*
X153204523Y-102560285D02*
X153014047Y-102607904D01*
X153014047Y-102607904D02*
X152871190Y-102607904D01*
X152871190Y-102607904D02*
X152680714Y-102560285D01*
X152680714Y-102560285D02*
X152585476Y-102512666D01*
X152585476Y-102512666D02*
X152490238Y-102417428D01*
X152490238Y-102417428D02*
X152442619Y-102274571D01*
X152442619Y-102274571D02*
X152442619Y-102179333D01*
X152442619Y-102179333D02*
X152490238Y-102036476D01*
X152490238Y-102036476D02*
X152537857Y-101988857D01*
X153442619Y-101036476D02*
X153442619Y-101607904D01*
X153442619Y-101322190D02*
X152442619Y-101322190D01*
X152442619Y-101322190D02*
X152585476Y-101417428D01*
X152585476Y-101417428D02*
X152680714Y-101512666D01*
X152680714Y-101512666D02*
X152728333Y-101607904D01*
X152442619Y-100417428D02*
X152442619Y-100322190D01*
X152442619Y-100322190D02*
X152490238Y-100226952D01*
X152490238Y-100226952D02*
X152537857Y-100179333D01*
X152537857Y-100179333D02*
X152633095Y-100131714D01*
X152633095Y-100131714D02*
X152823571Y-100084095D01*
X152823571Y-100084095D02*
X153061666Y-100084095D01*
X153061666Y-100084095D02*
X153252142Y-100131714D01*
X153252142Y-100131714D02*
X153347380Y-100179333D01*
X153347380Y-100179333D02*
X153395000Y-100226952D01*
X153395000Y-100226952D02*
X153442619Y-100322190D01*
X153442619Y-100322190D02*
X153442619Y-100417428D01*
X153442619Y-100417428D02*
X153395000Y-100512666D01*
X153395000Y-100512666D02*
X153347380Y-100560285D01*
X153347380Y-100560285D02*
X153252142Y-100607904D01*
X153252142Y-100607904D02*
X153061666Y-100655523D01*
X153061666Y-100655523D02*
X152823571Y-100655523D01*
X152823571Y-100655523D02*
X152633095Y-100607904D01*
X152633095Y-100607904D02*
X152537857Y-100560285D01*
X152537857Y-100560285D02*
X152490238Y-100512666D01*
X152490238Y-100512666D02*
X152442619Y-100417428D01*
%TO.C,C1*%
X114739380Y-102274666D02*
X114787000Y-102322285D01*
X114787000Y-102322285D02*
X114834619Y-102465142D01*
X114834619Y-102465142D02*
X114834619Y-102560380D01*
X114834619Y-102560380D02*
X114787000Y-102703237D01*
X114787000Y-102703237D02*
X114691761Y-102798475D01*
X114691761Y-102798475D02*
X114596523Y-102846094D01*
X114596523Y-102846094D02*
X114406047Y-102893713D01*
X114406047Y-102893713D02*
X114263190Y-102893713D01*
X114263190Y-102893713D02*
X114072714Y-102846094D01*
X114072714Y-102846094D02*
X113977476Y-102798475D01*
X113977476Y-102798475D02*
X113882238Y-102703237D01*
X113882238Y-102703237D02*
X113834619Y-102560380D01*
X113834619Y-102560380D02*
X113834619Y-102465142D01*
X113834619Y-102465142D02*
X113882238Y-102322285D01*
X113882238Y-102322285D02*
X113929857Y-102274666D01*
X114834619Y-101322285D02*
X114834619Y-101893713D01*
X114834619Y-101607999D02*
X113834619Y-101607999D01*
X113834619Y-101607999D02*
X113977476Y-101703237D01*
X113977476Y-101703237D02*
X114072714Y-101798475D01*
X114072714Y-101798475D02*
X114120333Y-101893713D01*
%TO.C,L1*%
X120379333Y-94762619D02*
X119903143Y-94762619D01*
X119903143Y-94762619D02*
X119903143Y-93762619D01*
X121236476Y-94762619D02*
X120665048Y-94762619D01*
X120950762Y-94762619D02*
X120950762Y-93762619D01*
X120950762Y-93762619D02*
X120855524Y-93905476D01*
X120855524Y-93905476D02*
X120760286Y-94000714D01*
X120760286Y-94000714D02*
X120665048Y-94048333D01*
%TO.C,C9*%
X149465380Y-102020666D02*
X149513000Y-102068285D01*
X149513000Y-102068285D02*
X149560619Y-102211142D01*
X149560619Y-102211142D02*
X149560619Y-102306380D01*
X149560619Y-102306380D02*
X149513000Y-102449237D01*
X149513000Y-102449237D02*
X149417761Y-102544475D01*
X149417761Y-102544475D02*
X149322523Y-102592094D01*
X149322523Y-102592094D02*
X149132047Y-102639713D01*
X149132047Y-102639713D02*
X148989190Y-102639713D01*
X148989190Y-102639713D02*
X148798714Y-102592094D01*
X148798714Y-102592094D02*
X148703476Y-102544475D01*
X148703476Y-102544475D02*
X148608238Y-102449237D01*
X148608238Y-102449237D02*
X148560619Y-102306380D01*
X148560619Y-102306380D02*
X148560619Y-102211142D01*
X148560619Y-102211142D02*
X148608238Y-102068285D01*
X148608238Y-102068285D02*
X148655857Y-102020666D01*
X149560619Y-101544475D02*
X149560619Y-101353999D01*
X149560619Y-101353999D02*
X149513000Y-101258761D01*
X149513000Y-101258761D02*
X149465380Y-101211142D01*
X149465380Y-101211142D02*
X149322523Y-101115904D01*
X149322523Y-101115904D02*
X149132047Y-101068285D01*
X149132047Y-101068285D02*
X148751095Y-101068285D01*
X148751095Y-101068285D02*
X148655857Y-101115904D01*
X148655857Y-101115904D02*
X148608238Y-101163523D01*
X148608238Y-101163523D02*
X148560619Y-101258761D01*
X148560619Y-101258761D02*
X148560619Y-101449237D01*
X148560619Y-101449237D02*
X148608238Y-101544475D01*
X148608238Y-101544475D02*
X148655857Y-101592094D01*
X148655857Y-101592094D02*
X148751095Y-101639713D01*
X148751095Y-101639713D02*
X148989190Y-101639713D01*
X148989190Y-101639713D02*
X149084428Y-101592094D01*
X149084428Y-101592094D02*
X149132047Y-101544475D01*
X149132047Y-101544475D02*
X149179666Y-101449237D01*
X149179666Y-101449237D02*
X149179666Y-101258761D01*
X149179666Y-101258761D02*
X149132047Y-101163523D01*
X149132047Y-101163523D02*
X149084428Y-101115904D01*
X149084428Y-101115904D02*
X148989190Y-101068285D01*
%TO.C,C6*%
X127849333Y-90537380D02*
X127801714Y-90585000D01*
X127801714Y-90585000D02*
X127658857Y-90632619D01*
X127658857Y-90632619D02*
X127563619Y-90632619D01*
X127563619Y-90632619D02*
X127420762Y-90585000D01*
X127420762Y-90585000D02*
X127325524Y-90489761D01*
X127325524Y-90489761D02*
X127277905Y-90394523D01*
X127277905Y-90394523D02*
X127230286Y-90204047D01*
X127230286Y-90204047D02*
X127230286Y-90061190D01*
X127230286Y-90061190D02*
X127277905Y-89870714D01*
X127277905Y-89870714D02*
X127325524Y-89775476D01*
X127325524Y-89775476D02*
X127420762Y-89680238D01*
X127420762Y-89680238D02*
X127563619Y-89632619D01*
X127563619Y-89632619D02*
X127658857Y-89632619D01*
X127658857Y-89632619D02*
X127801714Y-89680238D01*
X127801714Y-89680238D02*
X127849333Y-89727857D01*
X128706476Y-89632619D02*
X128516000Y-89632619D01*
X128516000Y-89632619D02*
X128420762Y-89680238D01*
X128420762Y-89680238D02*
X128373143Y-89727857D01*
X128373143Y-89727857D02*
X128277905Y-89870714D01*
X128277905Y-89870714D02*
X128230286Y-90061190D01*
X128230286Y-90061190D02*
X128230286Y-90442142D01*
X128230286Y-90442142D02*
X128277905Y-90537380D01*
X128277905Y-90537380D02*
X128325524Y-90585000D01*
X128325524Y-90585000D02*
X128420762Y-90632619D01*
X128420762Y-90632619D02*
X128611238Y-90632619D01*
X128611238Y-90632619D02*
X128706476Y-90585000D01*
X128706476Y-90585000D02*
X128754095Y-90537380D01*
X128754095Y-90537380D02*
X128801714Y-90442142D01*
X128801714Y-90442142D02*
X128801714Y-90204047D01*
X128801714Y-90204047D02*
X128754095Y-90108809D01*
X128754095Y-90108809D02*
X128706476Y-90061190D01*
X128706476Y-90061190D02*
X128611238Y-90013571D01*
X128611238Y-90013571D02*
X128420762Y-90013571D01*
X128420762Y-90013571D02*
X128325524Y-90061190D01*
X128325524Y-90061190D02*
X128277905Y-90108809D01*
X128277905Y-90108809D02*
X128230286Y-90204047D01*
%TO.C,C3*%
X126677380Y-102020666D02*
X126725000Y-102068285D01*
X126725000Y-102068285D02*
X126772619Y-102211142D01*
X126772619Y-102211142D02*
X126772619Y-102306380D01*
X126772619Y-102306380D02*
X126725000Y-102449237D01*
X126725000Y-102449237D02*
X126629761Y-102544475D01*
X126629761Y-102544475D02*
X126534523Y-102592094D01*
X126534523Y-102592094D02*
X126344047Y-102639713D01*
X126344047Y-102639713D02*
X126201190Y-102639713D01*
X126201190Y-102639713D02*
X126010714Y-102592094D01*
X126010714Y-102592094D02*
X125915476Y-102544475D01*
X125915476Y-102544475D02*
X125820238Y-102449237D01*
X125820238Y-102449237D02*
X125772619Y-102306380D01*
X125772619Y-102306380D02*
X125772619Y-102211142D01*
X125772619Y-102211142D02*
X125820238Y-102068285D01*
X125820238Y-102068285D02*
X125867857Y-102020666D01*
X125772619Y-101687332D02*
X125772619Y-101068285D01*
X125772619Y-101068285D02*
X126153571Y-101401618D01*
X126153571Y-101401618D02*
X126153571Y-101258761D01*
X126153571Y-101258761D02*
X126201190Y-101163523D01*
X126201190Y-101163523D02*
X126248809Y-101115904D01*
X126248809Y-101115904D02*
X126344047Y-101068285D01*
X126344047Y-101068285D02*
X126582142Y-101068285D01*
X126582142Y-101068285D02*
X126677380Y-101115904D01*
X126677380Y-101115904D02*
X126725000Y-101163523D01*
X126725000Y-101163523D02*
X126772619Y-101258761D01*
X126772619Y-101258761D02*
X126772619Y-101544475D01*
X126772619Y-101544475D02*
X126725000Y-101639713D01*
X126725000Y-101639713D02*
X126677380Y-101687332D01*
%TO.C,L3*%
X143343333Y-94762619D02*
X142867143Y-94762619D01*
X142867143Y-94762619D02*
X142867143Y-93762619D01*
X143581429Y-93762619D02*
X144200476Y-93762619D01*
X144200476Y-93762619D02*
X143867143Y-94143571D01*
X143867143Y-94143571D02*
X144010000Y-94143571D01*
X144010000Y-94143571D02*
X144105238Y-94191190D01*
X144105238Y-94191190D02*
X144152857Y-94238809D01*
X144152857Y-94238809D02*
X144200476Y-94334047D01*
X144200476Y-94334047D02*
X144200476Y-94572142D01*
X144200476Y-94572142D02*
X144152857Y-94667380D01*
X144152857Y-94667380D02*
X144105238Y-94715000D01*
X144105238Y-94715000D02*
X144010000Y-94762619D01*
X144010000Y-94762619D02*
X143724286Y-94762619D01*
X143724286Y-94762619D02*
X143629048Y-94715000D01*
X143629048Y-94715000D02*
X143581429Y-94667380D01*
%TO.C,C7*%
X138107380Y-102020666D02*
X138155000Y-102068285D01*
X138155000Y-102068285D02*
X138202619Y-102211142D01*
X138202619Y-102211142D02*
X138202619Y-102306380D01*
X138202619Y-102306380D02*
X138155000Y-102449237D01*
X138155000Y-102449237D02*
X138059761Y-102544475D01*
X138059761Y-102544475D02*
X137964523Y-102592094D01*
X137964523Y-102592094D02*
X137774047Y-102639713D01*
X137774047Y-102639713D02*
X137631190Y-102639713D01*
X137631190Y-102639713D02*
X137440714Y-102592094D01*
X137440714Y-102592094D02*
X137345476Y-102544475D01*
X137345476Y-102544475D02*
X137250238Y-102449237D01*
X137250238Y-102449237D02*
X137202619Y-102306380D01*
X137202619Y-102306380D02*
X137202619Y-102211142D01*
X137202619Y-102211142D02*
X137250238Y-102068285D01*
X137250238Y-102068285D02*
X137297857Y-102020666D01*
X137202619Y-101687332D02*
X137202619Y-101020666D01*
X137202619Y-101020666D02*
X138202619Y-101449237D01*
%TO.C,C4*%
X130415380Y-102020666D02*
X130463000Y-102068285D01*
X130463000Y-102068285D02*
X130510619Y-102211142D01*
X130510619Y-102211142D02*
X130510619Y-102306380D01*
X130510619Y-102306380D02*
X130463000Y-102449237D01*
X130463000Y-102449237D02*
X130367761Y-102544475D01*
X130367761Y-102544475D02*
X130272523Y-102592094D01*
X130272523Y-102592094D02*
X130082047Y-102639713D01*
X130082047Y-102639713D02*
X129939190Y-102639713D01*
X129939190Y-102639713D02*
X129748714Y-102592094D01*
X129748714Y-102592094D02*
X129653476Y-102544475D01*
X129653476Y-102544475D02*
X129558238Y-102449237D01*
X129558238Y-102449237D02*
X129510619Y-102306380D01*
X129510619Y-102306380D02*
X129510619Y-102211142D01*
X129510619Y-102211142D02*
X129558238Y-102068285D01*
X129558238Y-102068285D02*
X129605857Y-102020666D01*
X129843952Y-101163523D02*
X130510619Y-101163523D01*
X129463000Y-101401618D02*
X130177285Y-101639713D01*
X130177285Y-101639713D02*
X130177285Y-101020666D01*
D12*
%TO.C,C5*%
X131330248Y-92054000D02*
X132752752Y-92054000D01*
X131330248Y-93874000D02*
X132752752Y-93874000D01*
%TO.C,C2*%
X117242000Y-99834248D02*
X117242000Y-101256752D01*
X115422000Y-99834248D02*
X115422000Y-101256752D01*
%TO.C,C8*%
X140610000Y-99834248D02*
X140610000Y-101256752D01*
X138790000Y-99834248D02*
X138790000Y-101256752D01*
%TO.C,L2*%
X132030000Y-96520000D02*
X132250000Y-96520000D01*
X132030000Y-96520000D02*
G75*
G03*
X132030000Y-96520000I-1220000J0D01*
G01*
%TO.C,C10*%
X152040000Y-99834248D02*
X152040000Y-101256752D01*
X150220000Y-99834248D02*
X150220000Y-101256752D01*
%TO.C,C1*%
X113432000Y-99834248D02*
X113432000Y-101256752D01*
X111612000Y-99834248D02*
X111612000Y-101256752D01*
%TO.C,L1*%
X120496000Y-96520000D02*
X120716000Y-96520000D01*
X120496000Y-96520000D02*
G75*
G03*
X120496000Y-96520000I-1220000J0D01*
G01*
%TO.C,C9*%
X148230000Y-99834248D02*
X148230000Y-101256752D01*
X146410000Y-99834248D02*
X146410000Y-101256752D01*
%TO.C,C6*%
X131368748Y-89260000D02*
X132791252Y-89260000D01*
X131368748Y-91080000D02*
X132791252Y-91080000D01*
%TO.C,C3*%
X125370000Y-99834248D02*
X125370000Y-101256752D01*
X123550000Y-99834248D02*
X123550000Y-101256752D01*
%TO.C,L3*%
X143460000Y-96520000D02*
X143680000Y-96520000D01*
X143460000Y-96520000D02*
G75*
G03*
X143460000Y-96520000I-1220000J0D01*
G01*
%TO.C,C7*%
X136800000Y-99834248D02*
X136800000Y-101256752D01*
X134980000Y-99834248D02*
X134980000Y-101256752D01*
%TO.C,C4*%
X129180000Y-99834248D02*
X129180000Y-101256752D01*
X127360000Y-99834248D02*
X127360000Y-101256752D01*
%TD*%
M02*
