%TF.GenerationSoftware,KiCad,Pcbnew,7.0.2*%
%TF.CreationDate,2023-05-05T15:54:23-05:00*%
%TF.ProjectId,Low-Pass-Filter-Board,4c6f772d-5061-4737-932d-46696c746572,V01*%
%TF.SameCoordinates,Original*%
%TF.FileFunction,Copper,L1,Top*%
%TF.FilePolarity,Positive*%
%FSLAX46Y46*%
G04 Gerber Fmt 4.6, Leading zero omitted, Abs format (unit mm)*
G04 Created by KiCad (PCBNEW 7.0.2) date 2023-05-05 15:54:23*
%MOMM*%
%LPD*%
G01*
G04 APERTURE LIST*
G04 Aperture macros list*
%AMRoundRect*
0 Rectangle with rounded corners*
0 $1 Rounding radius*
0 $2 $3 $4 $5 $6 $7 $8 $9 X,Y pos of 4 corners*
0 Add a 4 corners polygon primitive as box body*
4,1,4,$2,$3,$4,$5,$6,$7,$8,$9,$2,$3,0*
0 Add four circle primitives for the rounded corners*
1,1,$1+$1,$2,$3*
1,1,$1+$1,$4,$5*
1,1,$1+$1,$6,$7*
1,1,$1+$1,$8,$9*
0 Add four rect primitives between the rounded corners*
20,1,$1+$1,$2,$3,$4,$5,0*
20,1,$1+$1,$4,$5,$6,$7,0*
20,1,$1+$1,$6,$7,$8,$9,0*
20,1,$1+$1,$8,$9,$2,$3,0*%
G04 Aperture macros list end*
%TA.AperFunction,SMDPad,CuDef*%
%ADD10RoundRect,0.250000X-0.412500X-0.650000X0.412500X-0.650000X0.412500X0.650000X-0.412500X0.650000X0*%
%TD*%
%TA.AperFunction,SMDPad,CuDef*%
%ADD11RoundRect,0.250000X-0.650000X0.412500X-0.650000X-0.412500X0.650000X-0.412500X0.650000X0.412500X0*%
%TD*%
%TA.AperFunction,ComponentPad*%
%ADD12C,1.600000*%
%TD*%
%TA.AperFunction,ComponentPad*%
%ADD13O,1.600000X1.600000*%
%TD*%
%TA.AperFunction,ComponentPad*%
%ADD14O,0.850000X0.850000*%
%TD*%
%TA.AperFunction,ComponentPad*%
%ADD15R,0.850000X0.850000*%
%TD*%
%TA.AperFunction,Conductor*%
%ADD16C,0.250000*%
%TD*%
G04 APERTURE END LIST*
D10*
%TO.P,C5,1*%
%TO.N,Net-(C3-Pad1)*%
X130479000Y-92964000D03*
%TO.P,C5,2*%
%TO.N,Net-(C5-Pad2)*%
X133604000Y-92964000D03*
%TD*%
D11*
%TO.P,C2,1*%
%TO.N,Net-(J1-Pin_2)*%
X116332000Y-98983000D03*
%TO.P,C2,2*%
%TO.N,Net-(J1-Pin_1)*%
X116332000Y-102108000D03*
%TD*%
%TO.P,C8,1*%
%TO.N,Net-(C5-Pad2)*%
X139700000Y-98983000D03*
%TO.P,C8,2*%
%TO.N,Net-(J1-Pin_1)*%
X139700000Y-102108000D03*
%TD*%
D12*
%TO.P,L2,1,1*%
%TO.N,Net-(C3-Pad1)*%
X130810000Y-96520000D03*
D13*
%TO.P,L2,2,2*%
%TO.N,Net-(C5-Pad2)*%
X133350000Y-96520000D03*
%TD*%
D11*
%TO.P,C10,1*%
%TO.N,Net-(J2-Pin_2)*%
X151130000Y-98983000D03*
%TO.P,C10,2*%
%TO.N,Net-(J1-Pin_1)*%
X151130000Y-102108000D03*
%TD*%
%TO.P,C1,1*%
%TO.N,Net-(J1-Pin_2)*%
X112522000Y-98983000D03*
%TO.P,C1,2*%
%TO.N,Net-(J1-Pin_1)*%
X112522000Y-102108000D03*
%TD*%
D12*
%TO.P,L1,1,1*%
%TO.N,Net-(J1-Pin_2)*%
X119276000Y-96520000D03*
D13*
%TO.P,L1,2,2*%
%TO.N,Net-(C3-Pad1)*%
X121816000Y-96520000D03*
%TD*%
D11*
%TO.P,C9,1*%
%TO.N,Net-(J2-Pin_2)*%
X147320000Y-98983000D03*
%TO.P,C9,2*%
%TO.N,Net-(J1-Pin_1)*%
X147320000Y-102108000D03*
%TD*%
D10*
%TO.P,C6,1*%
%TO.N,Net-(C3-Pad1)*%
X130517500Y-90170000D03*
%TO.P,C6,2*%
%TO.N,Net-(C5-Pad2)*%
X133642500Y-90170000D03*
%TD*%
D11*
%TO.P,C3,1*%
%TO.N,Net-(C3-Pad1)*%
X124460000Y-98983000D03*
%TO.P,C3,2*%
%TO.N,Net-(J1-Pin_1)*%
X124460000Y-102108000D03*
%TD*%
D12*
%TO.P,L3,1,1*%
%TO.N,Net-(C5-Pad2)*%
X142240000Y-96520000D03*
D13*
%TO.P,L3,2,2*%
%TO.N,Net-(J2-Pin_2)*%
X144780000Y-96520000D03*
%TD*%
D11*
%TO.P,C7,1*%
%TO.N,Net-(C5-Pad2)*%
X135890000Y-98983000D03*
%TO.P,C7,2*%
%TO.N,Net-(J1-Pin_1)*%
X135890000Y-102108000D03*
%TD*%
%TO.P,C4,1*%
%TO.N,Net-(C3-Pad1)*%
X128270000Y-98983000D03*
%TO.P,C4,2*%
%TO.N,Net-(J1-Pin_1)*%
X128270000Y-102108000D03*
%TD*%
D14*
%TO.P,J1,3,Pin_3*%
%TO.N,Net-(J1-Pin_3)*%
X109728000Y-95520000D03*
%TO.P,J1,2,Pin_2*%
%TO.N,Net-(J1-Pin_2)*%
X109728000Y-96520000D03*
D15*
%TO.P,J1,1,Pin_1*%
%TO.N,Net-(J1-Pin_1)*%
X109728000Y-97520000D03*
%TD*%
%TO.P,J2,1,Pin_1*%
%TO.N,Net-(J1-Pin_1)*%
X153670000Y-97520000D03*
D14*
%TO.P,J2,2,Pin_2*%
%TO.N,Net-(J2-Pin_2)*%
X153670000Y-96520000D03*
%TO.P,J2,3,Pin_3*%
%TO.N,Net-(J1-Pin_3)*%
X153670000Y-95520000D03*
%TD*%
D16*
%TO.N,Net-(J1-Pin_2)*%
X112522000Y-98983000D02*
X112522000Y-96520000D01*
X116332000Y-96520000D02*
X112522000Y-96520000D01*
X112522000Y-96520000D02*
X109728000Y-96520000D01*
X119276000Y-96520000D02*
X116332000Y-96520000D01*
X116332000Y-98983000D02*
X116332000Y-96520000D01*
%TO.N,Net-(J1-Pin_1)*%
X135890000Y-102108000D02*
X139700000Y-102108000D01*
X110490000Y-102108000D02*
X112522000Y-102108000D01*
X153162000Y-102108000D02*
X151130000Y-102108000D01*
X153670000Y-101600000D02*
X153162000Y-102108000D01*
X109728000Y-101346000D02*
X109728000Y-97520000D01*
X124460000Y-102108000D02*
X116332000Y-102108000D01*
X135890000Y-102108000D02*
X128270000Y-102108000D01*
X112522000Y-102108000D02*
X115062000Y-102108000D01*
X115062000Y-102108000D02*
X116332000Y-102108000D01*
X147320000Y-102108000D02*
X151130000Y-102108000D01*
X153670000Y-97520000D02*
X153670000Y-101600000D01*
X109728000Y-101346000D02*
X110490000Y-102108000D01*
X147320000Y-102108000D02*
X139700000Y-102108000D01*
X124460000Y-102108000D02*
X128270000Y-102108000D01*
%TO.N,Net-(C3-Pad1)*%
X130517500Y-90170000D02*
X130302000Y-90170000D01*
X124460000Y-96520000D02*
X126492000Y-96520000D01*
X128524000Y-92964000D02*
X128524000Y-96520000D01*
X126492000Y-96520000D02*
X128524000Y-96520000D01*
X130302000Y-90170000D02*
X128524000Y-91948000D01*
X124460000Y-98983000D02*
X124460000Y-96520000D01*
X128524000Y-96520000D02*
X130810000Y-96520000D01*
X128270000Y-98983000D02*
X128270000Y-96774000D01*
X121920000Y-96520000D02*
X124460000Y-96520000D01*
X130479000Y-92964000D02*
X128524000Y-92964000D01*
X128524000Y-91948000D02*
X128524000Y-92964000D01*
X128270000Y-96774000D02*
X128524000Y-96520000D01*
%TO.N,Net-(C5-Pad2)*%
X137922000Y-96520000D02*
X139700000Y-96520000D01*
X139700000Y-96520000D02*
X142240000Y-96520000D01*
X133642500Y-90170000D02*
X134112000Y-90170000D01*
X135636000Y-92964000D02*
X135636000Y-91694000D01*
X135636000Y-96520000D02*
X135636000Y-92964000D01*
X135636000Y-96520000D02*
X137160000Y-96520000D01*
X135890000Y-96774000D02*
X135636000Y-96520000D01*
X137160000Y-96520000D02*
X137922000Y-96520000D01*
X139700000Y-98983000D02*
X139700000Y-96520000D01*
X134112000Y-90170000D02*
X135636000Y-91694000D01*
X133350000Y-96520000D02*
X134620000Y-96520000D01*
X133604000Y-92964000D02*
X135636000Y-92964000D01*
X134620000Y-96520000D02*
X135636000Y-96520000D01*
X135890000Y-98983000D02*
X135890000Y-96774000D01*
%TO.N,Net-(J2-Pin_2)*%
X144780000Y-96520000D02*
X147320000Y-96520000D01*
X153670000Y-96520000D02*
X151130000Y-96520000D01*
X147320000Y-98983000D02*
X147320000Y-96520000D01*
X151130000Y-96520000D02*
X149352000Y-96520000D01*
X151130000Y-98983000D02*
X151130000Y-96520000D01*
X147320000Y-96520000D02*
X149352000Y-96520000D01*
%TD*%
M02*
