%TF.GenerationSoftware,KiCad,Pcbnew,7.0.2*%
%TF.CreationDate,2023-05-05T15:54:23-05:00*%
%TF.ProjectId,Low-Pass-Filter-Board,4c6f772d-5061-4737-932d-46696c746572,V01*%
%TF.SameCoordinates,Original*%
%TF.FileFunction,Legend,Bot*%
%TF.FilePolarity,Positive*%
%FSLAX46Y46*%
G04 Gerber Fmt 4.6, Leading zero omitted, Abs format (unit mm)*
G04 Created by KiCad (PCBNEW 7.0.2) date 2023-05-05 15:54:23*
%MOMM*%
%LPD*%
G01*
G04 APERTURE LIST*
%ADD10C,0.000000*%
%ADD11C,0.150000*%
%ADD12C,0.120000*%
G04 APERTURE END LIST*
D10*
G36*
X111711018Y-97512707D02*
G01*
X111737529Y-97514600D01*
X111763650Y-97517717D01*
X111789347Y-97522027D01*
X111814589Y-97527497D01*
X111839343Y-97534097D01*
X111863577Y-97541794D01*
X111887258Y-97550557D01*
X111910354Y-97560356D01*
X111932832Y-97571158D01*
X111954661Y-97582931D01*
X111975806Y-97595645D01*
X111996236Y-97609268D01*
X112015919Y-97623768D01*
X112034822Y-97639114D01*
X112052912Y-97655275D01*
X112070158Y-97672218D01*
X112086526Y-97689913D01*
X112101984Y-97708327D01*
X112116500Y-97727431D01*
X112130042Y-97747191D01*
X112142576Y-97767576D01*
X112154070Y-97788555D01*
X112164492Y-97810097D01*
X112173810Y-97832170D01*
X112181990Y-97854743D01*
X112189002Y-97877783D01*
X112194811Y-97901260D01*
X112199385Y-97925142D01*
X112202693Y-97949397D01*
X112204702Y-97973994D01*
X112205379Y-97998902D01*
X112204694Y-98023810D01*
X112202664Y-98048408D01*
X112199322Y-98072663D01*
X112194702Y-98096545D01*
X112188838Y-98120022D01*
X112181764Y-98143062D01*
X112173513Y-98165634D01*
X112164120Y-98187707D01*
X112153619Y-98209249D01*
X112142043Y-98230229D01*
X112129426Y-98250614D01*
X112115803Y-98270374D01*
X112101206Y-98289477D01*
X112085671Y-98307892D01*
X112069231Y-98325587D01*
X112051920Y-98342530D01*
X112033772Y-98358690D01*
X112014820Y-98374037D01*
X111995099Y-98388537D01*
X111974643Y-98402160D01*
X111953485Y-98414873D01*
X111931660Y-98426647D01*
X111909201Y-98437449D01*
X111886142Y-98447247D01*
X111862517Y-98456011D01*
X111838361Y-98463708D01*
X111813706Y-98470308D01*
X111788587Y-98475778D01*
X111763038Y-98480087D01*
X111737093Y-98483204D01*
X111710785Y-98485098D01*
X111684149Y-98485736D01*
X111657280Y-98485105D01*
X111630769Y-98483233D01*
X111604649Y-98480151D01*
X111578952Y-98475886D01*
X111553709Y-98470471D01*
X111528955Y-98463935D01*
X111504721Y-98456308D01*
X111481040Y-98447619D01*
X111457944Y-98437900D01*
X111435466Y-98427180D01*
X111413638Y-98415489D01*
X111392493Y-98402857D01*
X111372062Y-98389315D01*
X111352379Y-98374891D01*
X111333477Y-98359617D01*
X111315386Y-98343522D01*
X111298141Y-98326637D01*
X111281773Y-98308991D01*
X111266314Y-98290614D01*
X111251798Y-98271537D01*
X111238257Y-98251790D01*
X111225723Y-98231401D01*
X111214229Y-98210403D01*
X111203806Y-98188824D01*
X111194489Y-98166695D01*
X111186308Y-98144045D01*
X111179297Y-98120905D01*
X111173488Y-98097305D01*
X111168913Y-98073274D01*
X111165605Y-98048844D01*
X111163597Y-98024043D01*
X111162920Y-97998902D01*
X111358712Y-97998902D01*
X111359135Y-98014441D01*
X111360390Y-98029789D01*
X111362455Y-98044926D01*
X111365311Y-98059834D01*
X111368936Y-98074491D01*
X111373310Y-98088879D01*
X111378411Y-98102977D01*
X111384219Y-98116766D01*
X111390714Y-98130225D01*
X111397873Y-98143335D01*
X111405677Y-98156075D01*
X111414104Y-98168427D01*
X111423134Y-98180369D01*
X111432746Y-98191883D01*
X111442918Y-98202949D01*
X111453631Y-98213545D01*
X111464864Y-98223654D01*
X111476594Y-98233254D01*
X111488803Y-98242327D01*
X111501468Y-98250851D01*
X111514569Y-98258807D01*
X111528086Y-98266176D01*
X111541997Y-98272938D01*
X111556281Y-98279072D01*
X111570918Y-98284558D01*
X111585887Y-98289378D01*
X111601167Y-98293511D01*
X111616738Y-98296936D01*
X111632577Y-98299635D01*
X111648665Y-98301588D01*
X111664981Y-98302774D01*
X111681504Y-98303174D01*
X111698026Y-98302774D01*
X111714342Y-98301588D01*
X111730430Y-98299636D01*
X111746270Y-98296937D01*
X111761840Y-98293511D01*
X111777120Y-98289378D01*
X111792089Y-98284559D01*
X111806726Y-98279072D01*
X111821010Y-98272938D01*
X111834921Y-98266177D01*
X111848438Y-98258808D01*
X111861539Y-98250852D01*
X111874205Y-98242327D01*
X111886413Y-98233255D01*
X111898144Y-98223655D01*
X111909376Y-98213546D01*
X111920089Y-98202949D01*
X111930262Y-98191884D01*
X111939874Y-98180370D01*
X111948903Y-98168427D01*
X111957331Y-98156076D01*
X111965134Y-98143335D01*
X111972294Y-98130225D01*
X111978788Y-98116766D01*
X111984596Y-98102978D01*
X111989697Y-98088880D01*
X111994071Y-98074492D01*
X111997696Y-98059834D01*
X112000552Y-98044927D01*
X112002618Y-98029789D01*
X112003873Y-98014441D01*
X112004295Y-97998902D01*
X112003873Y-97983131D01*
X112002618Y-97967580D01*
X112000552Y-97952267D01*
X111997696Y-97937211D01*
X111994071Y-97922430D01*
X111989697Y-97907942D01*
X111984596Y-97893767D01*
X111978788Y-97879922D01*
X111972294Y-97866426D01*
X111965134Y-97853297D01*
X111957331Y-97840554D01*
X111948903Y-97828215D01*
X111939874Y-97816298D01*
X111930262Y-97804822D01*
X111920089Y-97793805D01*
X111909376Y-97783267D01*
X111898144Y-97773224D01*
X111886413Y-97763695D01*
X111874205Y-97754700D01*
X111861539Y-97746256D01*
X111848438Y-97738382D01*
X111834921Y-97731096D01*
X111821010Y-97724416D01*
X111806726Y-97718361D01*
X111792089Y-97712950D01*
X111777120Y-97708200D01*
X111761840Y-97704131D01*
X111746270Y-97700760D01*
X111730430Y-97698107D01*
X111714342Y-97696188D01*
X111698026Y-97695024D01*
X111681504Y-97694632D01*
X111664981Y-97695031D01*
X111648665Y-97696217D01*
X111632577Y-97698170D01*
X111616738Y-97700869D01*
X111601168Y-97704295D01*
X111585888Y-97708427D01*
X111570919Y-97713247D01*
X111556281Y-97718733D01*
X111541997Y-97724867D01*
X111528086Y-97731629D01*
X111514570Y-97738997D01*
X111501468Y-97746954D01*
X111488803Y-97755478D01*
X111476594Y-97764550D01*
X111464864Y-97774151D01*
X111453631Y-97784259D01*
X111442918Y-97794856D01*
X111432746Y-97805921D01*
X111423134Y-97817435D01*
X111414104Y-97829378D01*
X111405677Y-97841729D01*
X111397873Y-97854470D01*
X111390714Y-97867580D01*
X111384220Y-97881039D01*
X111378411Y-97894827D01*
X111373310Y-97908925D01*
X111368936Y-97923313D01*
X111365311Y-97937971D01*
X111362455Y-97952878D01*
X111360390Y-97968016D01*
X111359135Y-97983364D01*
X111358712Y-97998902D01*
X111162920Y-97998902D01*
X111163597Y-97973994D01*
X111165605Y-97949397D01*
X111168913Y-97925141D01*
X111173488Y-97901259D01*
X111179297Y-97877783D01*
X111186308Y-97854742D01*
X111194489Y-97832170D01*
X111203806Y-97810097D01*
X111214229Y-97788555D01*
X111225723Y-97767576D01*
X111238257Y-97747190D01*
X111251798Y-97727430D01*
X111266314Y-97708327D01*
X111281773Y-97689912D01*
X111298141Y-97672218D01*
X111315386Y-97655274D01*
X111333477Y-97639114D01*
X111352379Y-97623768D01*
X111372062Y-97609268D01*
X111392493Y-97595645D01*
X111413638Y-97582931D01*
X111435466Y-97571157D01*
X111457944Y-97560356D01*
X111481040Y-97550557D01*
X111504721Y-97541794D01*
X111528955Y-97534096D01*
X111553709Y-97527497D01*
X111578952Y-97522027D01*
X111604649Y-97517717D01*
X111630769Y-97514600D01*
X111657280Y-97512707D01*
X111684149Y-97512069D01*
X111711018Y-97512707D01*
G37*
G36*
X113586148Y-95665400D02*
G01*
X113591031Y-95665765D01*
X113595855Y-95666365D01*
X113600611Y-95667194D01*
X113605294Y-95668246D01*
X113609896Y-95669515D01*
X113614411Y-95670994D01*
X113618832Y-95672677D01*
X113623153Y-95674558D01*
X113627365Y-95676630D01*
X113631464Y-95678887D01*
X113635441Y-95681323D01*
X113639291Y-95683931D01*
X113643005Y-95686705D01*
X113646579Y-95689640D01*
X113650004Y-95692728D01*
X113653274Y-95695963D01*
X113656382Y-95699339D01*
X113659321Y-95702850D01*
X113662086Y-95706489D01*
X113664668Y-95710250D01*
X113667061Y-95714128D01*
X113669258Y-95718114D01*
X113671253Y-95722204D01*
X113673038Y-95726391D01*
X113674608Y-95730668D01*
X113675955Y-95735029D01*
X113677072Y-95739469D01*
X113677952Y-95743980D01*
X113678590Y-95748557D01*
X113678977Y-95753193D01*
X113679108Y-95757881D01*
X113679108Y-96342610D01*
X113678985Y-96347299D01*
X113678619Y-96351935D01*
X113678015Y-96356511D01*
X113677180Y-96361023D01*
X113676118Y-96365462D01*
X113674835Y-96369824D01*
X113673335Y-96374101D01*
X113671625Y-96378288D01*
X113669709Y-96382378D01*
X113667593Y-96386364D01*
X113665283Y-96390241D01*
X113662783Y-96394003D01*
X113660099Y-96397642D01*
X113657236Y-96401153D01*
X113654200Y-96404529D01*
X113650995Y-96407764D01*
X113647628Y-96410852D01*
X113644104Y-96413786D01*
X113640427Y-96416561D01*
X113636603Y-96419169D01*
X113632638Y-96421605D01*
X113628537Y-96423862D01*
X113624305Y-96425934D01*
X113619948Y-96427815D01*
X113615471Y-96429497D01*
X113610878Y-96430976D01*
X113606176Y-96432245D01*
X113601370Y-96433297D01*
X113596466Y-96434127D01*
X113591467Y-96434727D01*
X113586381Y-96435092D01*
X113581212Y-96435215D01*
X111260816Y-96435215D01*
X111255879Y-96435092D01*
X111250996Y-96434727D01*
X111246173Y-96434127D01*
X111241417Y-96433297D01*
X111236734Y-96432245D01*
X111232132Y-96430976D01*
X111227617Y-96429497D01*
X111223196Y-96427815D01*
X111218875Y-96425934D01*
X111214662Y-96423862D01*
X111210564Y-96421605D01*
X111206587Y-96419169D01*
X111202737Y-96416561D01*
X111199023Y-96413786D01*
X111195449Y-96410852D01*
X111192024Y-96407764D01*
X111188754Y-96404529D01*
X111185646Y-96401153D01*
X111182707Y-96397642D01*
X111179942Y-96394003D01*
X111177360Y-96390241D01*
X111174967Y-96386364D01*
X111172770Y-96382378D01*
X111170775Y-96378288D01*
X111168989Y-96374101D01*
X111167420Y-96369824D01*
X111166073Y-96365462D01*
X111164956Y-96361023D01*
X111164076Y-96356511D01*
X111163438Y-96351935D01*
X111163051Y-96347299D01*
X111162920Y-96342610D01*
X111162920Y-95850486D01*
X111358712Y-95850486D01*
X111364004Y-96250007D01*
X111681504Y-96250007D01*
X111681504Y-96048923D01*
X111681634Y-96044234D01*
X111682022Y-96039599D01*
X111682659Y-96035022D01*
X111683540Y-96030511D01*
X111684657Y-96026071D01*
X111686004Y-96021710D01*
X111687573Y-96017432D01*
X111689359Y-96013246D01*
X111691353Y-96009156D01*
X111693551Y-96005169D01*
X111695944Y-96001292D01*
X111698526Y-95997531D01*
X111701290Y-95993892D01*
X111704230Y-95990381D01*
X111707338Y-95987005D01*
X111710608Y-95983769D01*
X111714033Y-95980681D01*
X111717606Y-95977747D01*
X111721321Y-95974973D01*
X111725170Y-95972364D01*
X111729148Y-95969929D01*
X111733246Y-95967672D01*
X111737459Y-95965600D01*
X111741779Y-95963719D01*
X111746200Y-95962036D01*
X111750715Y-95960557D01*
X111755317Y-95959288D01*
X111760000Y-95958236D01*
X111764756Y-95957407D01*
X111769580Y-95956807D01*
X111774463Y-95956442D01*
X111779399Y-95956319D01*
X111784336Y-95956442D01*
X111789219Y-95956807D01*
X111794042Y-95957407D01*
X111798799Y-95958236D01*
X111803482Y-95959288D01*
X111808084Y-95960557D01*
X111812599Y-95962036D01*
X111817020Y-95963719D01*
X111821340Y-95965600D01*
X111825553Y-95967672D01*
X111829651Y-95969929D01*
X111833629Y-95972364D01*
X111837478Y-95974973D01*
X111841193Y-95977747D01*
X111844766Y-95980681D01*
X111848191Y-95983769D01*
X111851461Y-95987005D01*
X111854569Y-95990381D01*
X111857509Y-95993892D01*
X111860273Y-95997531D01*
X111862855Y-96001292D01*
X111865248Y-96005169D01*
X111867446Y-96009156D01*
X111869440Y-96013246D01*
X111871226Y-96017432D01*
X111872796Y-96021710D01*
X111874142Y-96026071D01*
X111875259Y-96030511D01*
X111876140Y-96035022D01*
X111876777Y-96039599D01*
X111877165Y-96044234D01*
X111877295Y-96048923D01*
X111877295Y-96250007D01*
X113091733Y-96250007D01*
X113091733Y-96048923D01*
X113091863Y-96044234D01*
X113092251Y-96039599D01*
X113092888Y-96035022D01*
X113093769Y-96030511D01*
X113094886Y-96026071D01*
X113096232Y-96021710D01*
X113097802Y-96017432D01*
X113099587Y-96013246D01*
X113101582Y-96009156D01*
X113103780Y-96005169D01*
X113106173Y-96001292D01*
X113108755Y-95997531D01*
X113111519Y-95993892D01*
X113114459Y-95990381D01*
X113117567Y-95987005D01*
X113120837Y-95983769D01*
X113124262Y-95980681D01*
X113127835Y-95977747D01*
X113131550Y-95974973D01*
X113135399Y-95972364D01*
X113139377Y-95969929D01*
X113143475Y-95967672D01*
X113147688Y-95965600D01*
X113152008Y-95963719D01*
X113156429Y-95962036D01*
X113160944Y-95960557D01*
X113165547Y-95959288D01*
X113170229Y-95958236D01*
X113174986Y-95957407D01*
X113179809Y-95956807D01*
X113184692Y-95956442D01*
X113189629Y-95956319D01*
X113194565Y-95956442D01*
X113199448Y-95956807D01*
X113204272Y-95957407D01*
X113209028Y-95958236D01*
X113213711Y-95959288D01*
X113218313Y-95960557D01*
X113222828Y-95962036D01*
X113227249Y-95963719D01*
X113231569Y-95965600D01*
X113235782Y-95967672D01*
X113239880Y-95969929D01*
X113243858Y-95972364D01*
X113247707Y-95974973D01*
X113251422Y-95977747D01*
X113254995Y-95980681D01*
X113258420Y-95983769D01*
X113261690Y-95987005D01*
X113264798Y-95990381D01*
X113267738Y-95993892D01*
X113270502Y-95997531D01*
X113273084Y-96001292D01*
X113275477Y-96005169D01*
X113277675Y-96009156D01*
X113279669Y-96013246D01*
X113281455Y-96017432D01*
X113283025Y-96021710D01*
X113284371Y-96026071D01*
X113285488Y-96030511D01*
X113286369Y-96035022D01*
X113287006Y-96039599D01*
X113287394Y-96044234D01*
X113287524Y-96048923D01*
X113287524Y-96250007D01*
X113483316Y-96250007D01*
X113483316Y-95850486D01*
X111358712Y-95850486D01*
X111162920Y-95850486D01*
X111162920Y-95757881D01*
X111163051Y-95752960D01*
X111163438Y-95748121D01*
X111164076Y-95743369D01*
X111164956Y-95738709D01*
X111166073Y-95734146D01*
X111167420Y-95729685D01*
X111168989Y-95725331D01*
X111170775Y-95721088D01*
X111172770Y-95716961D01*
X111174967Y-95712955D01*
X111177360Y-95709075D01*
X111179942Y-95705326D01*
X111182707Y-95701713D01*
X111185646Y-95698240D01*
X111188754Y-95694913D01*
X111192024Y-95691735D01*
X111195449Y-95688713D01*
X111199023Y-95685851D01*
X111202737Y-95683153D01*
X111206587Y-95680625D01*
X111210564Y-95678271D01*
X111214662Y-95676097D01*
X111218875Y-95674106D01*
X111223195Y-95672305D01*
X111227616Y-95670697D01*
X111232132Y-95669288D01*
X111236734Y-95668083D01*
X111241416Y-95667086D01*
X111246173Y-95666302D01*
X111250996Y-95665736D01*
X111255879Y-95665392D01*
X111260816Y-95665277D01*
X113581212Y-95665277D01*
X113586148Y-95665400D01*
G37*
G36*
X117167984Y-91014825D02*
G01*
X117206197Y-91017564D01*
X117243865Y-91022073D01*
X117280939Y-91028310D01*
X117317371Y-91036228D01*
X117353114Y-91045784D01*
X117388120Y-91056933D01*
X117422341Y-91069630D01*
X117455728Y-91083831D01*
X117488234Y-91099492D01*
X117519811Y-91116566D01*
X117550411Y-91135011D01*
X117579985Y-91154782D01*
X117608486Y-91175833D01*
X117635867Y-91198121D01*
X117662078Y-91221600D01*
X117687073Y-91246227D01*
X117710802Y-91271957D01*
X117733219Y-91298744D01*
X117754274Y-91326545D01*
X117773921Y-91355315D01*
X117792111Y-91385009D01*
X117808796Y-91415583D01*
X117823929Y-91446992D01*
X117837461Y-91479192D01*
X117849344Y-91512138D01*
X117859531Y-91545786D01*
X117867973Y-91580090D01*
X117874622Y-91615007D01*
X117879431Y-91650492D01*
X117882352Y-91686499D01*
X117883336Y-91722986D01*
X117883336Y-94985298D01*
X117882352Y-95021785D01*
X117879431Y-95057792D01*
X117874622Y-95093277D01*
X117867973Y-95128194D01*
X117859531Y-95162498D01*
X117849344Y-95196146D01*
X117837461Y-95229092D01*
X117823929Y-95261291D01*
X117808796Y-95292701D01*
X117792111Y-95323275D01*
X117773921Y-95352969D01*
X117754274Y-95381739D01*
X117733219Y-95409540D01*
X117710802Y-95436327D01*
X117687073Y-95462057D01*
X117662078Y-95486683D01*
X117635867Y-95510163D01*
X117608486Y-95532451D01*
X117579985Y-95553502D01*
X117550411Y-95573272D01*
X117519811Y-95591717D01*
X117488234Y-95608792D01*
X117455728Y-95624452D01*
X117422341Y-95638653D01*
X117388120Y-95651351D01*
X117353114Y-95662499D01*
X117317371Y-95672055D01*
X117280939Y-95679974D01*
X117243865Y-95686210D01*
X117206197Y-95690720D01*
X117167984Y-95693459D01*
X117129273Y-95694381D01*
X115925419Y-95694381D01*
X115891838Y-95693688D01*
X115858586Y-95691627D01*
X115825697Y-95688225D01*
X115793205Y-95683509D01*
X115761146Y-95677506D01*
X115729554Y-95670243D01*
X115698462Y-95661748D01*
X115667906Y-95652048D01*
X115637919Y-95641169D01*
X115608537Y-95629140D01*
X115579793Y-95615986D01*
X115551722Y-95601736D01*
X115524358Y-95586416D01*
X115497736Y-95570053D01*
X115471890Y-95552675D01*
X115446855Y-95534308D01*
X115422664Y-95514981D01*
X115399353Y-95494719D01*
X115376956Y-95473551D01*
X115355506Y-95451502D01*
X115335039Y-95428601D01*
X115315589Y-95404875D01*
X115297191Y-95380350D01*
X115279878Y-95355053D01*
X115263685Y-95329013D01*
X115248646Y-95302256D01*
X115234797Y-95274808D01*
X115222170Y-95246698D01*
X115210802Y-95217953D01*
X115200725Y-95188599D01*
X115191975Y-95158663D01*
X115184586Y-95128173D01*
X115180866Y-95111182D01*
X115177641Y-95093943D01*
X115174912Y-95076456D01*
X115172680Y-95058720D01*
X115170944Y-95040737D01*
X115169703Y-95022505D01*
X115168959Y-95004026D01*
X115168711Y-94985298D01*
X115168711Y-91722986D01*
X115367149Y-91722986D01*
X115369795Y-91722986D01*
X115369795Y-91984923D01*
X116004795Y-91984923D01*
X116009731Y-91985046D01*
X116014615Y-91985410D01*
X116019438Y-91986011D01*
X116024194Y-91986840D01*
X116028877Y-91987892D01*
X116033479Y-91989161D01*
X116037994Y-91990640D01*
X116042415Y-91992323D01*
X116046736Y-91994203D01*
X116050948Y-91996275D01*
X116055047Y-91998532D01*
X116059024Y-92000968D01*
X116062874Y-92003577D01*
X116066588Y-92006351D01*
X116070162Y-92009285D01*
X116073587Y-92012373D01*
X116076857Y-92015608D01*
X116079965Y-92018985D01*
X116082904Y-92022496D01*
X116085669Y-92026135D01*
X116088251Y-92029896D01*
X116090644Y-92033773D01*
X116092841Y-92037760D01*
X116094836Y-92041850D01*
X116096622Y-92046036D01*
X116098191Y-92050313D01*
X116099538Y-92054675D01*
X116100655Y-92059115D01*
X116101535Y-92063626D01*
X116102173Y-92068203D01*
X116102560Y-92072838D01*
X116102691Y-92077527D01*
X116102568Y-92082215D01*
X116102202Y-92086851D01*
X116101599Y-92091428D01*
X116100763Y-92095939D01*
X116099701Y-92100379D01*
X116098418Y-92104740D01*
X116096918Y-92109018D01*
X116095208Y-92113204D01*
X116093292Y-92117294D01*
X116091177Y-92121281D01*
X116088866Y-92125158D01*
X116086366Y-92128919D01*
X116083682Y-92132558D01*
X116080819Y-92136069D01*
X116077783Y-92139445D01*
X116074579Y-92142681D01*
X116071211Y-92145769D01*
X116067687Y-92148703D01*
X116064010Y-92151477D01*
X116060187Y-92154086D01*
X116056222Y-92156522D01*
X116052121Y-92158779D01*
X116047889Y-92160851D01*
X116043531Y-92162731D01*
X116039054Y-92164414D01*
X116034461Y-92165893D01*
X116029760Y-92167162D01*
X116024954Y-92168214D01*
X116020049Y-92169043D01*
X116015050Y-92169644D01*
X116009964Y-92170008D01*
X116004795Y-92170131D01*
X115369795Y-92170131D01*
X115369795Y-92511444D01*
X116004795Y-92511444D01*
X116009731Y-92511567D01*
X116014615Y-92511931D01*
X116019438Y-92512532D01*
X116024194Y-92513361D01*
X116028877Y-92514413D01*
X116033479Y-92515682D01*
X116037994Y-92517161D01*
X116042415Y-92518844D01*
X116046736Y-92520724D01*
X116050948Y-92522796D01*
X116055047Y-92525053D01*
X116059024Y-92527489D01*
X116062874Y-92530097D01*
X116066588Y-92532872D01*
X116070162Y-92535806D01*
X116073587Y-92538894D01*
X116076857Y-92542129D01*
X116079965Y-92545506D01*
X116082904Y-92549016D01*
X116085669Y-92552656D01*
X116088251Y-92556417D01*
X116090644Y-92560294D01*
X116092841Y-92564281D01*
X116094836Y-92568371D01*
X116096622Y-92572557D01*
X116098191Y-92576834D01*
X116099538Y-92581196D01*
X116100655Y-92585636D01*
X116101535Y-92590147D01*
X116102173Y-92594724D01*
X116102560Y-92599359D01*
X116102691Y-92604048D01*
X116102568Y-92608737D01*
X116102202Y-92613372D01*
X116101599Y-92617949D01*
X116100763Y-92622460D01*
X116099701Y-92626900D01*
X116098418Y-92631261D01*
X116096918Y-92635539D01*
X116095208Y-92639725D01*
X116093292Y-92643815D01*
X116091177Y-92647802D01*
X116088866Y-92651679D01*
X116086366Y-92655440D01*
X116083682Y-92659079D01*
X116080819Y-92662590D01*
X116077783Y-92665966D01*
X116074579Y-92669202D01*
X116071211Y-92672290D01*
X116067687Y-92675224D01*
X116064010Y-92677998D01*
X116060187Y-92680607D01*
X116056222Y-92683042D01*
X116052121Y-92685300D01*
X116047889Y-92687372D01*
X116043531Y-92689252D01*
X116039054Y-92690935D01*
X116034461Y-92692414D01*
X116029760Y-92693683D01*
X116024954Y-92694735D01*
X116020049Y-92695564D01*
X116015050Y-92696165D01*
X116009964Y-92696529D01*
X116004795Y-92696652D01*
X115369795Y-92696652D01*
X115369795Y-93037965D01*
X116004795Y-93037965D01*
X116009731Y-93038088D01*
X116014615Y-93038453D01*
X116019438Y-93039053D01*
X116024194Y-93039882D01*
X116028877Y-93040934D01*
X116033479Y-93042203D01*
X116037994Y-93043682D01*
X116042415Y-93045365D01*
X116046736Y-93047245D01*
X116050948Y-93049317D01*
X116055047Y-93051575D01*
X116059024Y-93054010D01*
X116062874Y-93056619D01*
X116066588Y-93059393D01*
X116070162Y-93062327D01*
X116073587Y-93065415D01*
X116076857Y-93068650D01*
X116079965Y-93072027D01*
X116082904Y-93075537D01*
X116085669Y-93079177D01*
X116088251Y-93082938D01*
X116090644Y-93086815D01*
X116092841Y-93090802D01*
X116094836Y-93094892D01*
X116096622Y-93099078D01*
X116098191Y-93103355D01*
X116099538Y-93107717D01*
X116100655Y-93112157D01*
X116101535Y-93116668D01*
X116102173Y-93121245D01*
X116102560Y-93125880D01*
X116102691Y-93130569D01*
X116102568Y-93135258D01*
X116102202Y-93139893D01*
X116101599Y-93144470D01*
X116100763Y-93148981D01*
X116099701Y-93153421D01*
X116098418Y-93157783D01*
X116096918Y-93162060D01*
X116095208Y-93166246D01*
X116093292Y-93170336D01*
X116091177Y-93174323D01*
X116088866Y-93178200D01*
X116086366Y-93181961D01*
X116083682Y-93185601D01*
X116080819Y-93189111D01*
X116077783Y-93192488D01*
X116074579Y-93195723D01*
X116071211Y-93198811D01*
X116067687Y-93201745D01*
X116064010Y-93204519D01*
X116060187Y-93207128D01*
X116056222Y-93209564D01*
X116052121Y-93211821D01*
X116047889Y-93213893D01*
X116043531Y-93215773D01*
X116039054Y-93217456D01*
X116034461Y-93218935D01*
X116029760Y-93220204D01*
X116024954Y-93221256D01*
X116020049Y-93222085D01*
X116015050Y-93222685D01*
X116009964Y-93223050D01*
X116004795Y-93223173D01*
X115369795Y-93223173D01*
X115369795Y-93567132D01*
X116004795Y-93567132D01*
X116009731Y-93567255D01*
X116014615Y-93567620D01*
X116019438Y-93568220D01*
X116024194Y-93569049D01*
X116028877Y-93570101D01*
X116033479Y-93571370D01*
X116037994Y-93572849D01*
X116042415Y-93574532D01*
X116046736Y-93576413D01*
X116050948Y-93578485D01*
X116055047Y-93580742D01*
X116059024Y-93583177D01*
X116062874Y-93585786D01*
X116066588Y-93588560D01*
X116070162Y-93591495D01*
X116073587Y-93594582D01*
X116076857Y-93597818D01*
X116079965Y-93601194D01*
X116082904Y-93604705D01*
X116085669Y-93608344D01*
X116088251Y-93612105D01*
X116090644Y-93615982D01*
X116092841Y-93619969D01*
X116094836Y-93624059D01*
X116096622Y-93628245D01*
X116098191Y-93632523D01*
X116099538Y-93636884D01*
X116100655Y-93641324D01*
X116101535Y-93645835D01*
X116102173Y-93650412D01*
X116102560Y-93655048D01*
X116102691Y-93659736D01*
X116102568Y-93664425D01*
X116102202Y-93669061D01*
X116101599Y-93673637D01*
X116100763Y-93678149D01*
X116099701Y-93682588D01*
X116098418Y-93686950D01*
X116096918Y-93691227D01*
X116095208Y-93695414D01*
X116093292Y-93699503D01*
X116091177Y-93703490D01*
X116088866Y-93707367D01*
X116086366Y-93711128D01*
X116083682Y-93714768D01*
X116080819Y-93718279D01*
X116077783Y-93721655D01*
X116074579Y-93724890D01*
X116071211Y-93727978D01*
X116067687Y-93730912D01*
X116064010Y-93733687D01*
X116060187Y-93736295D01*
X116056222Y-93738731D01*
X116052121Y-93740988D01*
X116047889Y-93743060D01*
X116043531Y-93744940D01*
X116039054Y-93746623D01*
X116034461Y-93748102D01*
X116029760Y-93749371D01*
X116024954Y-93750423D01*
X116020049Y-93751252D01*
X116015050Y-93751853D01*
X116009964Y-93752217D01*
X116004795Y-93752340D01*
X115369795Y-93752340D01*
X115369795Y-94093653D01*
X116004795Y-94093653D01*
X116009731Y-94093776D01*
X116014615Y-94094141D01*
X116019438Y-94094741D01*
X116024194Y-94095570D01*
X116028877Y-94096623D01*
X116033479Y-94097891D01*
X116037994Y-94099370D01*
X116042415Y-94101053D01*
X116046736Y-94102934D01*
X116050948Y-94105006D01*
X116055047Y-94107263D01*
X116059024Y-94109699D01*
X116062874Y-94112307D01*
X116066588Y-94115081D01*
X116070162Y-94118016D01*
X116073587Y-94121104D01*
X116076857Y-94124339D01*
X116079965Y-94127715D01*
X116082904Y-94131226D01*
X116085669Y-94134865D01*
X116088251Y-94138626D01*
X116090644Y-94142504D01*
X116092841Y-94146490D01*
X116094836Y-94150580D01*
X116096622Y-94154767D01*
X116098191Y-94159044D01*
X116099538Y-94163405D01*
X116100655Y-94167845D01*
X116101535Y-94172356D01*
X116102173Y-94176933D01*
X116102560Y-94181569D01*
X116102691Y-94186257D01*
X116102568Y-94190946D01*
X116102202Y-94195582D01*
X116101599Y-94200158D01*
X116100763Y-94204670D01*
X116099701Y-94209109D01*
X116098418Y-94213471D01*
X116096918Y-94217748D01*
X116095208Y-94221935D01*
X116093292Y-94226025D01*
X116091177Y-94230011D01*
X116088866Y-94233888D01*
X116086366Y-94237650D01*
X116083682Y-94241289D01*
X116080819Y-94244800D01*
X116077783Y-94248176D01*
X116074579Y-94251411D01*
X116071211Y-94254499D01*
X116067687Y-94257433D01*
X116064010Y-94260208D01*
X116060187Y-94262816D01*
X116056222Y-94265252D01*
X116052121Y-94267509D01*
X116047889Y-94269581D01*
X116043531Y-94271462D01*
X116039054Y-94273144D01*
X116034461Y-94274623D01*
X116029760Y-94275892D01*
X116024954Y-94276944D01*
X116020049Y-94277774D01*
X116015050Y-94278374D01*
X116009964Y-94278739D01*
X116004795Y-94278862D01*
X115369795Y-94278862D01*
X115369795Y-94620174D01*
X116004795Y-94620174D01*
X116009731Y-94620297D01*
X116014615Y-94620662D01*
X116019438Y-94621262D01*
X116024194Y-94622092D01*
X116028877Y-94623144D01*
X116033479Y-94624413D01*
X116037994Y-94625892D01*
X116042415Y-94627574D01*
X116046736Y-94629455D01*
X116050948Y-94631527D01*
X116055047Y-94633784D01*
X116059024Y-94636220D01*
X116062874Y-94638828D01*
X116066588Y-94641603D01*
X116070162Y-94644537D01*
X116073587Y-94647625D01*
X116076857Y-94650860D01*
X116079965Y-94654236D01*
X116082904Y-94657747D01*
X116085669Y-94661386D01*
X116088251Y-94665148D01*
X116090644Y-94669025D01*
X116092841Y-94673011D01*
X116094836Y-94677101D01*
X116096622Y-94681288D01*
X116098191Y-94685565D01*
X116099538Y-94689927D01*
X116100655Y-94694366D01*
X116101535Y-94698878D01*
X116102173Y-94703454D01*
X116102560Y-94708090D01*
X116102691Y-94712779D01*
X116102568Y-94717467D01*
X116102202Y-94722103D01*
X116101599Y-94726680D01*
X116100763Y-94731191D01*
X116099701Y-94735631D01*
X116098418Y-94739992D01*
X116096918Y-94744269D01*
X116095208Y-94748456D01*
X116093292Y-94752546D01*
X116091177Y-94756532D01*
X116088866Y-94760410D01*
X116086366Y-94764171D01*
X116083682Y-94767810D01*
X116080819Y-94771321D01*
X116077783Y-94774697D01*
X116074579Y-94777932D01*
X116071211Y-94781020D01*
X116067687Y-94783955D01*
X116064010Y-94786729D01*
X116060187Y-94789337D01*
X116056222Y-94791773D01*
X116052121Y-94794030D01*
X116047889Y-94796102D01*
X116043531Y-94797983D01*
X116039054Y-94799666D01*
X116034461Y-94801145D01*
X116029760Y-94802413D01*
X116024954Y-94803466D01*
X116020049Y-94804295D01*
X116015050Y-94804895D01*
X116009964Y-94805260D01*
X116004795Y-94805383D01*
X115369795Y-94805383D01*
X115369795Y-94990592D01*
X115369924Y-95005231D01*
X115370332Y-95019406D01*
X115371051Y-95033147D01*
X115372110Y-95046484D01*
X115373542Y-95059450D01*
X115375376Y-95072075D01*
X115377645Y-95084389D01*
X115380378Y-95096425D01*
X115385289Y-95117328D01*
X115391079Y-95137860D01*
X115397725Y-95158007D01*
X115405209Y-95177753D01*
X115413508Y-95197085D01*
X115422603Y-95215987D01*
X115443093Y-95252446D01*
X115466513Y-95287014D01*
X115492697Y-95319574D01*
X115521478Y-95350010D01*
X115552688Y-95378206D01*
X115586162Y-95404045D01*
X115621733Y-95427412D01*
X115659234Y-95448190D01*
X115698499Y-95466262D01*
X115739360Y-95481513D01*
X115781651Y-95493827D01*
X115825206Y-95503086D01*
X115869858Y-95509174D01*
X115869858Y-95252529D01*
X115869981Y-95247840D01*
X115870347Y-95243204D01*
X115870950Y-95238628D01*
X115871785Y-95234116D01*
X115872847Y-95229677D01*
X115874131Y-95225315D01*
X115875630Y-95221038D01*
X115877341Y-95216851D01*
X115879256Y-95212761D01*
X115881372Y-95208775D01*
X115883683Y-95204898D01*
X115886182Y-95201136D01*
X115888867Y-95197497D01*
X115891729Y-95193986D01*
X115894766Y-95190610D01*
X115897970Y-95187375D01*
X115901337Y-95184287D01*
X115904862Y-95181353D01*
X115908538Y-95178578D01*
X115912362Y-95175970D01*
X115916327Y-95173534D01*
X115920428Y-95171277D01*
X115924660Y-95169205D01*
X115929017Y-95167325D01*
X115933495Y-95165642D01*
X115938087Y-95164163D01*
X115942789Y-95162894D01*
X115947595Y-95161842D01*
X115952499Y-95161012D01*
X115957498Y-95160412D01*
X115962584Y-95160048D01*
X115967753Y-95159925D01*
X115972690Y-95160048D01*
X115977573Y-95160412D01*
X115982397Y-95161012D01*
X115987153Y-95161842D01*
X115991836Y-95162894D01*
X115996438Y-95164163D01*
X116000953Y-95165642D01*
X116005374Y-95167325D01*
X116009694Y-95169205D01*
X116013907Y-95171277D01*
X116018006Y-95173534D01*
X116021983Y-95175970D01*
X116025832Y-95178578D01*
X116029547Y-95181353D01*
X116033120Y-95184287D01*
X116036545Y-95187375D01*
X116039815Y-95190610D01*
X116042924Y-95193986D01*
X116045863Y-95197497D01*
X116048627Y-95201136D01*
X116051209Y-95204898D01*
X116053602Y-95208775D01*
X116055800Y-95212761D01*
X116057795Y-95216851D01*
X116059580Y-95221038D01*
X116061150Y-95225315D01*
X116062496Y-95229677D01*
X116063614Y-95234116D01*
X116064494Y-95238628D01*
X116065132Y-95243204D01*
X116065519Y-95247840D01*
X116065650Y-95252529D01*
X116065650Y-95514466D01*
X116430774Y-95514466D01*
X116430774Y-95252529D01*
X116430897Y-95247840D01*
X116431263Y-95243204D01*
X116431867Y-95238628D01*
X116432702Y-95234116D01*
X116433764Y-95229677D01*
X116435047Y-95225315D01*
X116436547Y-95221038D01*
X116438257Y-95216851D01*
X116440173Y-95212761D01*
X116442289Y-95208775D01*
X116444599Y-95204898D01*
X116447099Y-95201136D01*
X116449783Y-95197497D01*
X116452646Y-95193986D01*
X116455682Y-95190610D01*
X116458887Y-95187375D01*
X116462254Y-95184287D01*
X116465778Y-95181353D01*
X116469455Y-95178578D01*
X116473279Y-95175970D01*
X116477243Y-95173534D01*
X116481345Y-95171277D01*
X116485576Y-95169205D01*
X116489934Y-95167325D01*
X116494411Y-95165642D01*
X116499004Y-95164163D01*
X116503706Y-95162894D01*
X116508512Y-95161842D01*
X116513416Y-95161012D01*
X116518415Y-95160412D01*
X116523501Y-95160048D01*
X116528670Y-95159925D01*
X116533607Y-95160048D01*
X116538490Y-95160412D01*
X116543313Y-95161012D01*
X116548070Y-95161842D01*
X116552753Y-95162894D01*
X116557355Y-95164163D01*
X116561870Y-95165642D01*
X116566291Y-95167325D01*
X116570611Y-95169205D01*
X116574824Y-95171277D01*
X116578923Y-95173534D01*
X116582900Y-95175970D01*
X116586749Y-95178578D01*
X116590464Y-95181353D01*
X116594037Y-95184287D01*
X116597462Y-95187375D01*
X116600732Y-95190610D01*
X116603840Y-95193986D01*
X116606780Y-95197497D01*
X116609544Y-95201136D01*
X116612126Y-95204898D01*
X116614519Y-95208775D01*
X116616717Y-95212761D01*
X116618712Y-95216851D01*
X116620497Y-95221038D01*
X116622067Y-95225315D01*
X116623413Y-95229677D01*
X116624530Y-95234116D01*
X116625411Y-95238628D01*
X116626048Y-95243204D01*
X116626436Y-95247840D01*
X116626566Y-95252529D01*
X116626566Y-95514466D01*
X116991692Y-95514466D01*
X116991692Y-95252529D01*
X116991815Y-95247840D01*
X116992181Y-95243204D01*
X116992784Y-95238628D01*
X116993619Y-95234116D01*
X116994681Y-95229677D01*
X116995965Y-95225315D01*
X116997464Y-95221038D01*
X116999174Y-95216851D01*
X117001090Y-95212761D01*
X117003206Y-95208775D01*
X117005516Y-95204898D01*
X117008016Y-95201136D01*
X117010700Y-95197497D01*
X117013563Y-95193986D01*
X117016599Y-95190610D01*
X117019804Y-95187375D01*
X117023171Y-95184287D01*
X117026695Y-95181353D01*
X117030372Y-95178578D01*
X117034196Y-95175970D01*
X117038161Y-95173534D01*
X117042262Y-95171277D01*
X117046493Y-95169205D01*
X117050851Y-95167325D01*
X117055328Y-95165642D01*
X117059921Y-95164163D01*
X117064622Y-95162894D01*
X117069428Y-95161842D01*
X117074333Y-95161012D01*
X117079332Y-95160412D01*
X117084418Y-95160048D01*
X117089587Y-95159925D01*
X117094524Y-95160048D01*
X117099407Y-95160412D01*
X117104230Y-95161012D01*
X117108987Y-95161842D01*
X117113670Y-95162894D01*
X117118272Y-95164163D01*
X117122787Y-95165642D01*
X117127208Y-95167325D01*
X117131529Y-95169205D01*
X117135741Y-95171277D01*
X117139840Y-95173534D01*
X117143817Y-95175970D01*
X117147667Y-95178578D01*
X117151381Y-95181353D01*
X117154955Y-95184287D01*
X117158380Y-95187375D01*
X117161650Y-95190610D01*
X117164758Y-95193986D01*
X117167697Y-95197497D01*
X117170462Y-95201136D01*
X117173044Y-95204898D01*
X117175437Y-95208775D01*
X117177634Y-95212761D01*
X117179629Y-95216851D01*
X117181415Y-95221038D01*
X117182984Y-95225315D01*
X117184331Y-95229677D01*
X117185448Y-95234116D01*
X117186328Y-95238628D01*
X117186966Y-95243204D01*
X117187353Y-95247840D01*
X117187484Y-95252529D01*
X117187484Y-95509174D01*
X117213594Y-95505892D01*
X117239318Y-95501519D01*
X117264627Y-95496082D01*
X117289493Y-95489605D01*
X117313886Y-95482114D01*
X117337777Y-95473636D01*
X117361137Y-95464196D01*
X117383937Y-95453819D01*
X117406147Y-95442531D01*
X117427740Y-95430358D01*
X117448685Y-95417326D01*
X117468954Y-95403460D01*
X117488518Y-95388786D01*
X117507347Y-95373330D01*
X117525413Y-95357116D01*
X117542686Y-95340172D01*
X117559138Y-95322523D01*
X117574739Y-95304193D01*
X117589460Y-95285210D01*
X117603272Y-95265598D01*
X117616146Y-95245384D01*
X117628053Y-95224592D01*
X117638964Y-95203249D01*
X117648850Y-95181381D01*
X117657682Y-95159013D01*
X117665431Y-95136170D01*
X117672067Y-95112879D01*
X117677562Y-95089164D01*
X117681886Y-95065053D01*
X117685011Y-95040570D01*
X117686907Y-95015741D01*
X117687546Y-94990592D01*
X117687546Y-94805383D01*
X117052546Y-94805383D01*
X117047609Y-94805260D01*
X117042726Y-94804895D01*
X117037903Y-94804295D01*
X117033146Y-94803466D01*
X117028464Y-94802413D01*
X117023861Y-94801145D01*
X117019346Y-94799666D01*
X117014925Y-94797983D01*
X117010605Y-94796102D01*
X117006392Y-94794030D01*
X117002294Y-94791773D01*
X116998316Y-94789337D01*
X116994467Y-94786729D01*
X116990752Y-94783955D01*
X116987179Y-94781020D01*
X116983754Y-94777932D01*
X116980484Y-94774697D01*
X116977376Y-94771321D01*
X116974436Y-94767810D01*
X116971672Y-94764171D01*
X116969090Y-94760410D01*
X116966697Y-94756532D01*
X116964500Y-94752546D01*
X116962505Y-94748456D01*
X116960719Y-94744269D01*
X116959150Y-94739992D01*
X116957803Y-94735631D01*
X116956686Y-94731191D01*
X116955805Y-94726680D01*
X116955168Y-94722103D01*
X116954781Y-94717467D01*
X116954650Y-94712779D01*
X116954773Y-94708090D01*
X116955139Y-94703454D01*
X116955742Y-94698878D01*
X116956578Y-94694366D01*
X116957640Y-94689927D01*
X116958923Y-94685565D01*
X116960423Y-94681288D01*
X116962133Y-94677101D01*
X116964048Y-94673011D01*
X116966164Y-94669025D01*
X116968475Y-94665148D01*
X116970975Y-94661386D01*
X116973659Y-94657747D01*
X116976521Y-94654236D01*
X116979558Y-94650860D01*
X116982762Y-94647625D01*
X116986129Y-94644537D01*
X116989654Y-94641603D01*
X116993330Y-94638828D01*
X116997154Y-94636220D01*
X117001119Y-94633784D01*
X117005220Y-94631527D01*
X117009452Y-94629455D01*
X117013809Y-94627574D01*
X117018287Y-94625892D01*
X117022879Y-94624413D01*
X117027581Y-94623144D01*
X117032387Y-94622092D01*
X117037292Y-94621262D01*
X117042290Y-94620662D01*
X117047376Y-94620297D01*
X117052546Y-94620174D01*
X117687546Y-94620174D01*
X117687546Y-94278862D01*
X117052546Y-94278862D01*
X117047609Y-94278739D01*
X117042726Y-94278374D01*
X117037903Y-94277774D01*
X117033146Y-94276944D01*
X117028464Y-94275892D01*
X117023861Y-94274623D01*
X117019346Y-94273144D01*
X117014925Y-94271462D01*
X117010605Y-94269581D01*
X117006392Y-94267509D01*
X117002294Y-94265252D01*
X116998316Y-94262816D01*
X116994467Y-94260208D01*
X116990752Y-94257433D01*
X116987179Y-94254499D01*
X116983754Y-94251411D01*
X116980484Y-94248176D01*
X116977376Y-94244800D01*
X116974436Y-94241289D01*
X116971672Y-94237650D01*
X116969090Y-94233888D01*
X116966697Y-94230011D01*
X116964500Y-94226025D01*
X116962505Y-94221935D01*
X116960719Y-94217748D01*
X116959150Y-94213471D01*
X116957803Y-94209109D01*
X116956686Y-94204670D01*
X116955805Y-94200158D01*
X116955168Y-94195582D01*
X116954781Y-94190946D01*
X116954650Y-94186257D01*
X116954773Y-94181569D01*
X116955139Y-94176933D01*
X116955742Y-94172356D01*
X116956578Y-94167845D01*
X116957640Y-94163405D01*
X116958923Y-94159044D01*
X116960423Y-94154767D01*
X116962133Y-94150580D01*
X116964048Y-94146490D01*
X116966164Y-94142504D01*
X116968475Y-94138626D01*
X116970975Y-94134865D01*
X116973659Y-94131226D01*
X116976521Y-94127715D01*
X116979558Y-94124339D01*
X116982762Y-94121104D01*
X116986129Y-94118016D01*
X116989654Y-94115081D01*
X116993330Y-94112307D01*
X116997154Y-94109699D01*
X117001119Y-94107263D01*
X117005220Y-94105006D01*
X117009452Y-94102934D01*
X117013809Y-94101053D01*
X117018287Y-94099370D01*
X117022879Y-94097891D01*
X117027581Y-94096623D01*
X117032387Y-94095570D01*
X117037292Y-94094741D01*
X117042290Y-94094141D01*
X117047376Y-94093776D01*
X117052546Y-94093653D01*
X117687546Y-94093653D01*
X117687546Y-93752340D01*
X117052546Y-93752340D01*
X117047609Y-93752217D01*
X117042726Y-93751853D01*
X117037903Y-93751252D01*
X117033146Y-93750423D01*
X117028464Y-93749371D01*
X117023861Y-93748102D01*
X117019346Y-93746623D01*
X117014925Y-93744940D01*
X117010605Y-93743060D01*
X117006392Y-93740988D01*
X117002294Y-93738731D01*
X116998316Y-93736295D01*
X116994467Y-93733687D01*
X116990752Y-93730912D01*
X116987179Y-93727978D01*
X116983754Y-93724890D01*
X116980484Y-93721655D01*
X116977376Y-93718279D01*
X116974436Y-93714768D01*
X116971672Y-93711128D01*
X116969090Y-93707367D01*
X116966697Y-93703490D01*
X116964500Y-93699503D01*
X116962505Y-93695414D01*
X116960719Y-93691227D01*
X116959150Y-93686950D01*
X116957803Y-93682588D01*
X116956686Y-93678149D01*
X116955805Y-93673637D01*
X116955168Y-93669061D01*
X116954781Y-93664425D01*
X116954650Y-93659736D01*
X116954773Y-93655048D01*
X116955139Y-93650412D01*
X116955742Y-93645835D01*
X116956578Y-93641324D01*
X116957640Y-93636884D01*
X116958923Y-93632523D01*
X116960423Y-93628245D01*
X116962133Y-93624059D01*
X116964048Y-93619969D01*
X116966164Y-93615982D01*
X116968475Y-93612105D01*
X116970975Y-93608344D01*
X116973659Y-93604705D01*
X116976521Y-93601194D01*
X116979558Y-93597818D01*
X116982762Y-93594582D01*
X116986129Y-93591495D01*
X116989654Y-93588560D01*
X116993330Y-93585786D01*
X116997154Y-93583177D01*
X117001119Y-93580742D01*
X117005220Y-93578485D01*
X117009452Y-93576413D01*
X117013809Y-93574532D01*
X117018287Y-93572849D01*
X117022879Y-93571370D01*
X117027581Y-93570101D01*
X117032387Y-93569049D01*
X117037292Y-93568220D01*
X117042290Y-93567620D01*
X117047376Y-93567255D01*
X117052546Y-93567132D01*
X117687546Y-93567132D01*
X117687546Y-93225819D01*
X117052546Y-93225819D01*
X117047609Y-93225696D01*
X117042726Y-93225331D01*
X117037903Y-93224731D01*
X117033146Y-93223902D01*
X117028464Y-93222850D01*
X117023861Y-93221581D01*
X117019346Y-93220102D01*
X117014925Y-93218419D01*
X117010605Y-93216538D01*
X117006392Y-93214466D01*
X117002294Y-93212209D01*
X116998316Y-93209774D01*
X116994467Y-93207165D01*
X116990752Y-93204391D01*
X116987179Y-93201456D01*
X116983754Y-93198369D01*
X116980484Y-93195133D01*
X116977376Y-93191757D01*
X116974436Y-93188246D01*
X116971672Y-93184607D01*
X116969090Y-93180846D01*
X116966697Y-93176969D01*
X116964500Y-93172982D01*
X116962505Y-93168892D01*
X116960719Y-93164706D01*
X116959150Y-93160428D01*
X116957803Y-93156067D01*
X116956686Y-93151627D01*
X116955805Y-93147116D01*
X116955168Y-93142539D01*
X116954781Y-93137904D01*
X116954650Y-93133215D01*
X116954773Y-93128526D01*
X116955139Y-93123891D01*
X116955742Y-93119314D01*
X116956578Y-93114803D01*
X116957640Y-93110363D01*
X116958923Y-93106002D01*
X116960423Y-93101724D01*
X116962133Y-93097538D01*
X116964048Y-93093448D01*
X116966164Y-93089461D01*
X116968475Y-93085584D01*
X116970975Y-93081823D01*
X116973659Y-93078184D01*
X116976521Y-93074673D01*
X116979558Y-93071297D01*
X116982762Y-93068061D01*
X116986129Y-93064974D01*
X116989654Y-93062039D01*
X116993330Y-93059265D01*
X116997154Y-93056656D01*
X117001119Y-93054221D01*
X117005220Y-93051964D01*
X117009452Y-93049892D01*
X117013809Y-93048011D01*
X117018287Y-93046328D01*
X117022879Y-93044849D01*
X117027581Y-93043580D01*
X117032387Y-93042528D01*
X117037292Y-93041699D01*
X117042290Y-93041099D01*
X117047376Y-93040734D01*
X117052546Y-93040611D01*
X117687546Y-93040611D01*
X117687546Y-92699298D01*
X117052546Y-92699298D01*
X117047609Y-92699175D01*
X117042726Y-92698811D01*
X117037903Y-92698211D01*
X117033146Y-92697381D01*
X117028464Y-92696329D01*
X117023861Y-92695060D01*
X117019346Y-92693581D01*
X117014925Y-92691898D01*
X117010605Y-92690018D01*
X117006392Y-92687946D01*
X117002294Y-92685689D01*
X116998316Y-92683253D01*
X116994467Y-92680645D01*
X116990752Y-92677870D01*
X116987179Y-92674936D01*
X116983754Y-92671848D01*
X116980484Y-92668613D01*
X116977376Y-92665236D01*
X116974436Y-92661726D01*
X116971672Y-92658086D01*
X116969090Y-92654325D01*
X116966697Y-92650448D01*
X116964500Y-92646461D01*
X116962505Y-92642372D01*
X116960719Y-92638185D01*
X116959150Y-92633908D01*
X116957803Y-92629546D01*
X116956686Y-92625106D01*
X116955805Y-92620595D01*
X116955168Y-92616018D01*
X116954781Y-92611383D01*
X116954650Y-92606694D01*
X116954773Y-92602005D01*
X116955139Y-92597370D01*
X116955742Y-92592793D01*
X116956578Y-92588282D01*
X116957640Y-92583842D01*
X116958923Y-92579481D01*
X116960423Y-92575203D01*
X116962133Y-92571017D01*
X116964048Y-92566927D01*
X116966164Y-92562940D01*
X116968475Y-92559063D01*
X116970975Y-92555302D01*
X116973659Y-92551663D01*
X116976521Y-92548152D01*
X116979558Y-92544776D01*
X116982762Y-92541540D01*
X116986129Y-92538452D01*
X116989654Y-92535518D01*
X116993330Y-92532744D01*
X116997154Y-92530135D01*
X117001119Y-92527700D01*
X117005220Y-92525443D01*
X117009452Y-92523371D01*
X117013809Y-92521490D01*
X117018287Y-92519807D01*
X117022879Y-92518328D01*
X117027581Y-92517059D01*
X117032387Y-92516007D01*
X117037292Y-92515178D01*
X117042290Y-92514578D01*
X117047376Y-92514213D01*
X117052546Y-92514090D01*
X117687546Y-92514090D01*
X117687546Y-92172777D01*
X117052546Y-92172777D01*
X117047609Y-92172654D01*
X117042726Y-92172290D01*
X117037903Y-92171690D01*
X117033146Y-92170860D01*
X117028464Y-92169808D01*
X117023861Y-92168539D01*
X117019346Y-92167060D01*
X117014925Y-92165377D01*
X117010605Y-92163497D01*
X117006392Y-92161425D01*
X117002294Y-92159168D01*
X116998316Y-92156732D01*
X116994467Y-92154124D01*
X116990752Y-92151349D01*
X116987179Y-92148415D01*
X116983754Y-92145327D01*
X116980484Y-92142092D01*
X116977376Y-92138715D01*
X116974436Y-92135205D01*
X116971672Y-92131565D01*
X116969090Y-92127804D01*
X116966697Y-92123927D01*
X116964500Y-92119940D01*
X116962505Y-92115850D01*
X116960719Y-92111664D01*
X116959150Y-92107387D01*
X116957803Y-92103025D01*
X116956686Y-92098585D01*
X116955805Y-92094074D01*
X116955168Y-92089497D01*
X116954781Y-92084862D01*
X116954650Y-92080173D01*
X116954773Y-92075484D01*
X116955139Y-92070849D01*
X116955742Y-92066272D01*
X116956578Y-92061761D01*
X116957640Y-92057321D01*
X116958923Y-92052960D01*
X116960423Y-92048682D01*
X116962133Y-92044496D01*
X116964048Y-92040406D01*
X116966164Y-92036419D01*
X116968475Y-92032542D01*
X116970975Y-92028781D01*
X116973659Y-92025142D01*
X116976521Y-92021631D01*
X116979558Y-92018255D01*
X116982762Y-92015019D01*
X116986129Y-92011931D01*
X116989654Y-92008997D01*
X116993330Y-92006223D01*
X116997154Y-92003614D01*
X117001119Y-92001179D01*
X117005220Y-91998922D01*
X117009452Y-91996850D01*
X117013809Y-91994969D01*
X117018287Y-91993286D01*
X117022879Y-91991807D01*
X117027581Y-91990538D01*
X117032387Y-91989486D01*
X117037292Y-91988657D01*
X117042290Y-91988057D01*
X117047376Y-91987692D01*
X117052546Y-91987569D01*
X117687546Y-91987569D01*
X117687546Y-91725632D01*
X117686907Y-91700475D01*
X117685011Y-91675624D01*
X117681886Y-91651107D01*
X117677562Y-91626950D01*
X117672067Y-91603181D01*
X117665431Y-91579826D01*
X117657682Y-91556914D01*
X117648850Y-91534470D01*
X117638964Y-91512522D01*
X117628053Y-91491098D01*
X117616146Y-91470224D01*
X117603272Y-91449927D01*
X117589460Y-91430235D01*
X117574739Y-91411175D01*
X117559138Y-91392774D01*
X117542686Y-91375058D01*
X117525413Y-91358056D01*
X117507347Y-91341794D01*
X117488518Y-91326300D01*
X117468954Y-91311600D01*
X117448685Y-91297722D01*
X117427740Y-91284692D01*
X117406147Y-91272538D01*
X117383936Y-91261288D01*
X117361136Y-91250967D01*
X117337776Y-91241604D01*
X117313885Y-91233226D01*
X117289492Y-91225858D01*
X117264626Y-91219530D01*
X117239317Y-91214267D01*
X117213593Y-91210098D01*
X117187483Y-91207048D01*
X117187483Y-91455756D01*
X117187360Y-91460445D01*
X117186994Y-91465081D01*
X117186391Y-91469658D01*
X117185555Y-91474169D01*
X117184493Y-91478608D01*
X117183210Y-91482970D01*
X117181710Y-91487247D01*
X117180000Y-91491434D01*
X117178084Y-91495524D01*
X117175969Y-91499510D01*
X117173658Y-91503387D01*
X117171158Y-91507149D01*
X117168474Y-91510788D01*
X117165611Y-91514299D01*
X117162575Y-91517675D01*
X117159371Y-91520910D01*
X117156004Y-91523998D01*
X117152479Y-91526933D01*
X117148802Y-91529707D01*
X117144979Y-91532315D01*
X117141014Y-91534751D01*
X117136913Y-91537008D01*
X117132681Y-91539080D01*
X117128324Y-91540961D01*
X117123846Y-91542644D01*
X117119254Y-91544123D01*
X117114552Y-91545391D01*
X117109746Y-91546444D01*
X117104841Y-91547273D01*
X117099843Y-91547873D01*
X117094757Y-91548238D01*
X117089587Y-91548361D01*
X117084651Y-91548238D01*
X117079767Y-91547873D01*
X117074944Y-91547273D01*
X117070188Y-91546444D01*
X117065505Y-91545391D01*
X117060903Y-91544123D01*
X117056387Y-91542644D01*
X117051966Y-91540961D01*
X117047646Y-91539080D01*
X117043433Y-91537008D01*
X117039335Y-91534751D01*
X117035357Y-91532315D01*
X117031508Y-91529707D01*
X117027793Y-91526932D01*
X117024220Y-91523998D01*
X117020795Y-91520910D01*
X117017525Y-91517675D01*
X117014417Y-91514299D01*
X117011477Y-91510788D01*
X117008713Y-91507149D01*
X117006131Y-91503387D01*
X117003738Y-91499510D01*
X117001540Y-91495524D01*
X116999546Y-91491434D01*
X116997760Y-91487247D01*
X116996190Y-91482970D01*
X116994844Y-91478608D01*
X116993727Y-91474169D01*
X116992846Y-91469657D01*
X116992209Y-91465081D01*
X116991821Y-91460445D01*
X116991691Y-91455756D01*
X116991691Y-91201757D01*
X116626566Y-91201757D01*
X116626566Y-91455756D01*
X116626443Y-91460445D01*
X116626077Y-91465081D01*
X116625474Y-91469658D01*
X116624638Y-91474169D01*
X116623576Y-91478608D01*
X116622293Y-91482970D01*
X116620793Y-91487247D01*
X116619083Y-91491434D01*
X116617168Y-91495524D01*
X116615052Y-91499510D01*
X116612741Y-91503387D01*
X116610241Y-91507149D01*
X116607557Y-91510788D01*
X116604694Y-91514299D01*
X116601658Y-91517675D01*
X116598454Y-91520910D01*
X116595087Y-91523998D01*
X116591562Y-91526933D01*
X116587885Y-91529707D01*
X116584062Y-91532315D01*
X116580097Y-91534751D01*
X116575996Y-91537008D01*
X116571764Y-91539080D01*
X116567407Y-91540961D01*
X116562929Y-91542644D01*
X116558337Y-91544123D01*
X116553635Y-91545391D01*
X116548829Y-91546444D01*
X116543924Y-91547273D01*
X116538926Y-91547873D01*
X116533839Y-91548238D01*
X116528670Y-91548361D01*
X116523733Y-91548238D01*
X116518850Y-91547873D01*
X116514027Y-91547273D01*
X116509271Y-91546444D01*
X116504588Y-91545391D01*
X116499986Y-91544123D01*
X116495471Y-91542644D01*
X116491049Y-91540961D01*
X116486729Y-91539080D01*
X116482516Y-91537008D01*
X116478418Y-91534751D01*
X116474441Y-91532315D01*
X116470591Y-91529707D01*
X116466876Y-91526932D01*
X116463303Y-91523998D01*
X116459878Y-91520910D01*
X116456608Y-91517675D01*
X116453500Y-91514299D01*
X116450560Y-91510788D01*
X116447796Y-91507149D01*
X116445214Y-91503387D01*
X116442821Y-91499510D01*
X116440624Y-91495524D01*
X116438629Y-91491434D01*
X116436843Y-91487247D01*
X116435274Y-91482970D01*
X116433927Y-91478608D01*
X116432810Y-91474169D01*
X116431929Y-91469657D01*
X116431292Y-91465081D01*
X116430904Y-91460445D01*
X116430774Y-91455756D01*
X116430774Y-91201757D01*
X116065649Y-91201757D01*
X116065649Y-91453111D01*
X116065526Y-91457799D01*
X116065160Y-91462435D01*
X116064557Y-91467012D01*
X116063722Y-91471523D01*
X116062659Y-91475963D01*
X116061376Y-91480324D01*
X116059877Y-91484601D01*
X116058166Y-91488788D01*
X116056251Y-91492878D01*
X116054135Y-91496864D01*
X116051824Y-91500742D01*
X116049324Y-91504503D01*
X116046640Y-91508142D01*
X116043778Y-91511653D01*
X116040741Y-91515029D01*
X116037537Y-91518264D01*
X116034170Y-91521352D01*
X116030645Y-91524287D01*
X116026969Y-91527061D01*
X116023145Y-91529669D01*
X116019180Y-91532105D01*
X116015079Y-91534362D01*
X116010847Y-91536434D01*
X116006490Y-91538315D01*
X116002012Y-91539998D01*
X115997420Y-91541477D01*
X115992718Y-91542746D01*
X115987912Y-91543798D01*
X115983007Y-91544627D01*
X115978009Y-91545227D01*
X115972922Y-91545592D01*
X115967753Y-91545715D01*
X115962816Y-91545592D01*
X115957933Y-91545227D01*
X115953110Y-91544627D01*
X115948354Y-91543798D01*
X115943671Y-91542745D01*
X115939069Y-91541477D01*
X115934554Y-91539998D01*
X115930133Y-91538315D01*
X115925812Y-91536434D01*
X115921600Y-91534362D01*
X115917501Y-91532105D01*
X115913524Y-91529669D01*
X115909674Y-91527061D01*
X115905960Y-91524287D01*
X115902386Y-91521352D01*
X115898961Y-91518264D01*
X115895691Y-91515029D01*
X115892583Y-91511653D01*
X115889644Y-91508142D01*
X115886880Y-91504503D01*
X115884298Y-91500741D01*
X115881904Y-91496864D01*
X115879707Y-91492878D01*
X115877712Y-91488788D01*
X115875927Y-91484601D01*
X115874357Y-91480324D01*
X115873010Y-91475963D01*
X115871893Y-91471523D01*
X115871013Y-91467012D01*
X115870375Y-91462435D01*
X115869988Y-91457799D01*
X115869857Y-91453111D01*
X115869857Y-91204402D01*
X115843507Y-91207452D01*
X115817558Y-91211622D01*
X115792037Y-91216884D01*
X115766975Y-91223213D01*
X115742399Y-91230580D01*
X115718337Y-91238959D01*
X115694820Y-91248322D01*
X115671874Y-91258642D01*
X115649530Y-91269893D01*
X115627815Y-91282046D01*
X115606757Y-91295076D01*
X115586386Y-91308954D01*
X115566730Y-91323654D01*
X115547818Y-91339149D01*
X115529678Y-91355411D01*
X115512339Y-91372413D01*
X115495829Y-91390128D01*
X115480178Y-91408530D01*
X115465412Y-91427590D01*
X115451562Y-91447282D01*
X115438656Y-91467578D01*
X115426722Y-91488452D01*
X115415789Y-91509877D01*
X115405886Y-91531824D01*
X115397040Y-91554268D01*
X115389281Y-91577181D01*
X115382638Y-91600535D01*
X115377138Y-91624304D01*
X115372811Y-91648461D01*
X115369684Y-91672978D01*
X115367788Y-91697829D01*
X115367149Y-91722986D01*
X115168711Y-91722986D01*
X115169696Y-91686740D01*
X115172617Y-91650957D01*
X115177427Y-91615681D01*
X115184080Y-91580958D01*
X115192527Y-91546832D01*
X115202721Y-91513347D01*
X115214614Y-91480549D01*
X115228160Y-91448481D01*
X115243310Y-91417188D01*
X115260017Y-91386714D01*
X115278234Y-91357105D01*
X115297913Y-91328405D01*
X115319006Y-91300659D01*
X115341467Y-91273910D01*
X115365247Y-91248204D01*
X115390300Y-91223585D01*
X115416577Y-91200097D01*
X115444032Y-91177786D01*
X115472616Y-91156696D01*
X115502283Y-91136872D01*
X115532984Y-91118357D01*
X115564673Y-91101197D01*
X115597301Y-91085436D01*
X115630822Y-91071119D01*
X115665188Y-91058290D01*
X115700352Y-91046993D01*
X115736265Y-91037275D01*
X115772881Y-91029178D01*
X115810151Y-91022748D01*
X115848030Y-91018029D01*
X115886468Y-91015065D01*
X115925419Y-91013902D01*
X117129273Y-91013902D01*
X117167984Y-91014825D01*
G37*
G36*
X112828539Y-92890214D02*
G01*
X112845598Y-92891446D01*
X112862425Y-92893475D01*
X112879000Y-92896279D01*
X112895300Y-92899840D01*
X112911302Y-92904135D01*
X112926984Y-92909146D01*
X112942324Y-92914852D01*
X112957300Y-92921232D01*
X112971890Y-92928266D01*
X112986070Y-92935933D01*
X112999819Y-92944214D01*
X113013115Y-92953088D01*
X113025935Y-92962535D01*
X113038258Y-92972534D01*
X113050059Y-92983065D01*
X113061318Y-92994107D01*
X113072013Y-93005641D01*
X113082120Y-93017645D01*
X113091617Y-93030100D01*
X113100483Y-93042986D01*
X113108695Y-93056281D01*
X113116231Y-93069966D01*
X113123068Y-93084020D01*
X113129184Y-93098422D01*
X113134557Y-93113153D01*
X113139164Y-93128193D01*
X113142984Y-93143520D01*
X113145994Y-93159114D01*
X113148171Y-93174956D01*
X113149494Y-93191024D01*
X113149940Y-93207299D01*
X113149602Y-93221125D01*
X113148601Y-93234811D01*
X113146957Y-93248343D01*
X113144689Y-93261704D01*
X113141817Y-93274879D01*
X113138359Y-93287852D01*
X113134335Y-93300608D01*
X113129765Y-93313132D01*
X113124668Y-93325408D01*
X113119063Y-93337420D01*
X113112970Y-93349153D01*
X113106407Y-93360592D01*
X113099395Y-93371720D01*
X113091953Y-93382523D01*
X113084101Y-93392985D01*
X113075856Y-93403091D01*
X114057460Y-94940320D01*
X114057460Y-93699423D01*
X114057956Y-93679646D01*
X114059440Y-93660020D01*
X114061908Y-93640572D01*
X114065356Y-93621330D01*
X114069782Y-93602320D01*
X114075180Y-93583570D01*
X114081547Y-93565107D01*
X114088880Y-93546957D01*
X114097173Y-93529149D01*
X114106424Y-93511709D01*
X114116628Y-93494664D01*
X114127781Y-93478042D01*
X114139881Y-93461869D01*
X114152922Y-93446173D01*
X114166901Y-93430981D01*
X114181814Y-93416319D01*
X114197468Y-93402803D01*
X114213657Y-93390047D01*
X114230358Y-93378066D01*
X114247547Y-93366875D01*
X114265201Y-93356491D01*
X114283296Y-93346928D01*
X114301811Y-93338203D01*
X114320720Y-93330330D01*
X114340002Y-93323325D01*
X114359633Y-93317204D01*
X114379589Y-93311982D01*
X114399847Y-93307675D01*
X114420385Y-93304298D01*
X114441178Y-93301866D01*
X114462204Y-93300396D01*
X114483439Y-93299902D01*
X114505379Y-93300425D01*
X114527029Y-93301977D01*
X114548362Y-93304531D01*
X114569351Y-93308062D01*
X114589970Y-93312545D01*
X114610193Y-93317954D01*
X114629992Y-93324263D01*
X114649341Y-93331446D01*
X114668213Y-93339478D01*
X114686582Y-93348333D01*
X114704421Y-93357986D01*
X114721704Y-93368410D01*
X114738403Y-93379580D01*
X114754492Y-93391471D01*
X114769944Y-93404057D01*
X114784733Y-93417311D01*
X114798833Y-93431209D01*
X114812216Y-93445725D01*
X114824855Y-93460833D01*
X114836725Y-93476507D01*
X114847798Y-93492721D01*
X114858049Y-93509451D01*
X114867449Y-93526670D01*
X114875973Y-93544353D01*
X114883594Y-93562473D01*
X114890286Y-93581006D01*
X114896021Y-93599926D01*
X114900773Y-93619206D01*
X114904515Y-93638822D01*
X114907221Y-93658747D01*
X114908864Y-93678956D01*
X114909418Y-93699423D01*
X114909418Y-94990591D01*
X114909542Y-95005354D01*
X114909914Y-95019901D01*
X114910534Y-95034262D01*
X114911403Y-95048468D01*
X114912519Y-95062550D01*
X114913883Y-95076539D01*
X114915496Y-95090465D01*
X114917356Y-95104361D01*
X114923912Y-95148909D01*
X114932631Y-95192730D01*
X114943457Y-95235778D01*
X114956335Y-95278009D01*
X114971212Y-95319378D01*
X114988032Y-95359840D01*
X115006740Y-95399349D01*
X115027282Y-95437860D01*
X115049603Y-95475329D01*
X115073648Y-95511710D01*
X115099363Y-95546959D01*
X115126692Y-95581030D01*
X115155581Y-95613878D01*
X115185976Y-95645458D01*
X115217821Y-95675725D01*
X115251062Y-95704635D01*
X115285643Y-95732141D01*
X115321511Y-95758199D01*
X115358611Y-95782764D01*
X115396887Y-95805791D01*
X115436286Y-95827235D01*
X115476751Y-95847050D01*
X115518229Y-95865193D01*
X115560665Y-95881616D01*
X115604004Y-95896276D01*
X115648192Y-95909128D01*
X115693173Y-95920126D01*
X115738892Y-95929226D01*
X115785296Y-95936382D01*
X115832329Y-95941549D01*
X115879937Y-95944682D01*
X115928064Y-95945736D01*
X117131919Y-95945736D01*
X117184192Y-95944491D01*
X117235795Y-95940794D01*
X117286664Y-95934707D01*
X117336733Y-95926291D01*
X117385939Y-95915605D01*
X117434214Y-95902710D01*
X117481496Y-95887667D01*
X117527719Y-95870537D01*
X117572818Y-95851380D01*
X117616728Y-95830256D01*
X117659384Y-95807226D01*
X117700721Y-95782351D01*
X117740675Y-95755691D01*
X117779180Y-95727307D01*
X117816172Y-95697260D01*
X117851585Y-95665609D01*
X117885355Y-95632415D01*
X117917417Y-95597740D01*
X117947706Y-95561643D01*
X117976157Y-95524186D01*
X118002704Y-95485428D01*
X118027284Y-95445430D01*
X118049831Y-95404254D01*
X118070280Y-95361958D01*
X118088566Y-95318605D01*
X118104625Y-95274253D01*
X118118392Y-95228965D01*
X118129801Y-95182801D01*
X118138787Y-95135821D01*
X118145287Y-95088085D01*
X118149234Y-95039655D01*
X118150564Y-94990591D01*
X118150564Y-93699423D01*
X118151089Y-93679646D01*
X118152652Y-93660020D01*
X118155238Y-93640572D01*
X118158833Y-93621330D01*
X118163419Y-93602320D01*
X118168982Y-93583570D01*
X118175506Y-93565107D01*
X118182976Y-93546957D01*
X118191376Y-93529149D01*
X118200691Y-93511709D01*
X118210905Y-93494664D01*
X118222002Y-93478042D01*
X118233968Y-93461869D01*
X118246786Y-93446173D01*
X118260442Y-93430981D01*
X118274919Y-93416319D01*
X118290137Y-93402803D01*
X118306002Y-93390047D01*
X118322480Y-93378066D01*
X118339535Y-93366875D01*
X118357133Y-93356491D01*
X118375238Y-93346928D01*
X118393817Y-93338203D01*
X118412833Y-93330330D01*
X118432252Y-93323325D01*
X118452040Y-93317204D01*
X118472161Y-93311982D01*
X118492580Y-93307675D01*
X118513263Y-93304298D01*
X118534174Y-93301866D01*
X118555280Y-93300396D01*
X118576544Y-93299902D01*
X118598484Y-93300425D01*
X118620134Y-93301977D01*
X118641467Y-93304531D01*
X118662456Y-93308062D01*
X118683075Y-93312545D01*
X118703298Y-93317954D01*
X118723097Y-93324263D01*
X118742446Y-93331446D01*
X118761318Y-93339478D01*
X118779687Y-93348333D01*
X118797526Y-93357986D01*
X118814809Y-93368410D01*
X118831508Y-93379580D01*
X118847597Y-93391471D01*
X118863049Y-93404057D01*
X118877838Y-93417311D01*
X118891938Y-93431209D01*
X118905321Y-93445725D01*
X118917960Y-93460833D01*
X118929830Y-93476507D01*
X118940904Y-93492721D01*
X118951154Y-93509451D01*
X118960554Y-93526670D01*
X118969078Y-93544353D01*
X118976700Y-93562473D01*
X118983391Y-93581006D01*
X118989126Y-93599926D01*
X118993878Y-93619206D01*
X118997620Y-93638822D01*
X119000327Y-93658747D01*
X119001970Y-93678956D01*
X119002523Y-93699423D01*
X119002523Y-94990591D01*
X119000338Y-95076872D01*
X118993847Y-95162024D01*
X118983147Y-95245954D01*
X118968334Y-95328570D01*
X118949507Y-95409781D01*
X118926761Y-95489496D01*
X118900193Y-95567623D01*
X118869901Y-95644070D01*
X118835981Y-95718746D01*
X118798531Y-95791559D01*
X118757646Y-95862418D01*
X118713425Y-95931231D01*
X118665963Y-95997906D01*
X118615358Y-96062353D01*
X118561707Y-96124478D01*
X118505107Y-96184192D01*
X118445654Y-96241402D01*
X118383445Y-96296017D01*
X118318577Y-96347944D01*
X118251148Y-96397094D01*
X118181254Y-96443373D01*
X118108991Y-96486691D01*
X118034458Y-96526956D01*
X117957750Y-96564076D01*
X117878965Y-96597960D01*
X117798199Y-96628516D01*
X117715550Y-96655652D01*
X117631113Y-96679278D01*
X117544988Y-96699301D01*
X117457269Y-96715630D01*
X117368054Y-96728174D01*
X117277440Y-96736840D01*
X117271402Y-96774285D01*
X117263245Y-96811172D01*
X117253017Y-96847438D01*
X117240771Y-96883022D01*
X117226555Y-96917863D01*
X117210421Y-96951897D01*
X117192419Y-96985063D01*
X117172599Y-97017298D01*
X117151012Y-97048542D01*
X117127708Y-97078731D01*
X117102738Y-97107804D01*
X117076151Y-97135699D01*
X117047998Y-97162354D01*
X117018330Y-97187707D01*
X116987197Y-97211695D01*
X116954649Y-97234257D01*
X116954649Y-98514840D01*
X117200711Y-98514840D01*
X117244112Y-98515802D01*
X117286972Y-98518658D01*
X117329245Y-98523364D01*
X117370887Y-98529878D01*
X117411853Y-98538155D01*
X117452097Y-98548152D01*
X117491575Y-98559825D01*
X117530242Y-98573131D01*
X117568052Y-98588026D01*
X117604960Y-98604467D01*
X117640922Y-98622409D01*
X117675892Y-98641809D01*
X117709825Y-98662624D01*
X117742677Y-98684810D01*
X117774401Y-98708324D01*
X117804954Y-98733121D01*
X117834289Y-98759159D01*
X117862363Y-98786393D01*
X117889130Y-98814781D01*
X117914544Y-98844277D01*
X117938561Y-98874840D01*
X117961136Y-98906425D01*
X117982224Y-98938988D01*
X118001779Y-98972486D01*
X118019757Y-99006876D01*
X118036112Y-99042114D01*
X118050800Y-99078156D01*
X118063775Y-99114958D01*
X118074993Y-99152478D01*
X118084407Y-99190670D01*
X118091974Y-99229493D01*
X118097649Y-99268902D01*
X118401920Y-99268902D01*
X118406857Y-99269025D01*
X118411740Y-99269390D01*
X118416563Y-99269990D01*
X118421320Y-99270819D01*
X118426002Y-99271871D01*
X118430605Y-99273140D01*
X118435120Y-99274619D01*
X118439541Y-99276302D01*
X118443861Y-99278183D01*
X118448074Y-99280255D01*
X118452172Y-99282512D01*
X118456149Y-99284947D01*
X118459999Y-99287556D01*
X118463713Y-99290330D01*
X118467286Y-99293265D01*
X118470711Y-99296352D01*
X118473981Y-99299588D01*
X118477089Y-99302964D01*
X118480029Y-99306475D01*
X118482793Y-99310114D01*
X118485375Y-99313875D01*
X118487768Y-99317752D01*
X118489966Y-99321739D01*
X118491960Y-99325829D01*
X118493746Y-99330015D01*
X118495315Y-99334292D01*
X118496662Y-99338654D01*
X118497779Y-99343093D01*
X118498660Y-99347605D01*
X118499297Y-99352181D01*
X118499684Y-99356817D01*
X118499815Y-99361506D01*
X118499815Y-99853631D01*
X118499692Y-99858320D01*
X118499326Y-99862955D01*
X118498723Y-99867532D01*
X118497888Y-99872043D01*
X118496826Y-99876483D01*
X118495542Y-99880844D01*
X118494043Y-99885121D01*
X118492332Y-99889308D01*
X118490417Y-99893398D01*
X118488301Y-99897384D01*
X118485991Y-99901261D01*
X118483491Y-99905023D01*
X118480807Y-99908662D01*
X118477944Y-99912173D01*
X118474908Y-99915549D01*
X118471703Y-99918784D01*
X118468336Y-99921872D01*
X118464812Y-99924806D01*
X118461135Y-99927581D01*
X118457312Y-99930189D01*
X118453347Y-99932625D01*
X118449246Y-99934882D01*
X118445014Y-99936954D01*
X118440657Y-99938835D01*
X118436179Y-99940518D01*
X118431587Y-99941997D01*
X118426885Y-99943265D01*
X118422079Y-99944318D01*
X118417174Y-99945147D01*
X118412176Y-99945747D01*
X118407090Y-99946112D01*
X118401920Y-99946235D01*
X114650129Y-99946235D01*
X114645192Y-99946112D01*
X114640309Y-99945747D01*
X114635486Y-99945147D01*
X114630729Y-99944318D01*
X114626047Y-99943265D01*
X114621444Y-99941997D01*
X114616929Y-99940518D01*
X114612508Y-99938835D01*
X114608188Y-99936954D01*
X114603975Y-99934882D01*
X114599877Y-99932625D01*
X114595899Y-99930189D01*
X114592050Y-99927581D01*
X114588335Y-99924806D01*
X114584762Y-99921872D01*
X114581337Y-99918784D01*
X114578067Y-99915549D01*
X114574959Y-99912173D01*
X114572019Y-99908662D01*
X114569255Y-99905023D01*
X114566673Y-99901261D01*
X114564280Y-99897384D01*
X114562082Y-99893398D01*
X114560088Y-99889308D01*
X114558302Y-99885121D01*
X114556733Y-99880844D01*
X114555386Y-99876483D01*
X114554269Y-99872043D01*
X114553388Y-99867532D01*
X114552751Y-99862955D01*
X114552363Y-99858320D01*
X114552233Y-99853631D01*
X114552233Y-99454111D01*
X112202733Y-99454111D01*
X112202733Y-99581111D01*
X112202225Y-99599850D01*
X112200719Y-99618349D01*
X112198240Y-99636584D01*
X112194811Y-99654533D01*
X112190458Y-99672171D01*
X112185205Y-99689476D01*
X112179077Y-99706425D01*
X112172099Y-99722994D01*
X112164296Y-99739159D01*
X112155691Y-99754899D01*
X112146311Y-99770188D01*
X112136179Y-99785005D01*
X112125320Y-99799326D01*
X112113760Y-99813128D01*
X112101522Y-99826387D01*
X112088631Y-99839080D01*
X112075113Y-99851183D01*
X112060992Y-99862675D01*
X112046292Y-99873531D01*
X112031038Y-99883728D01*
X112015255Y-99893243D01*
X111998968Y-99902052D01*
X111982202Y-99910133D01*
X111964980Y-99917462D01*
X111947328Y-99924016D01*
X111929271Y-99929772D01*
X111910833Y-99934705D01*
X111892039Y-99938794D01*
X111872913Y-99942015D01*
X111853481Y-99944344D01*
X111833767Y-99945759D01*
X111813795Y-99946236D01*
X111793824Y-99945759D01*
X111774110Y-99944344D01*
X111754678Y-99942015D01*
X111735552Y-99938794D01*
X111716758Y-99934705D01*
X111698320Y-99929772D01*
X111680263Y-99924016D01*
X111662611Y-99917462D01*
X111645389Y-99910133D01*
X111628623Y-99902052D01*
X111612336Y-99893243D01*
X111596553Y-99883728D01*
X111581299Y-99873531D01*
X111566599Y-99862675D01*
X111552478Y-99851183D01*
X111538959Y-99839079D01*
X111526069Y-99826386D01*
X111513831Y-99813127D01*
X111502271Y-99799326D01*
X111491412Y-99785005D01*
X111481280Y-99770188D01*
X111471900Y-99754898D01*
X111463295Y-99739159D01*
X111455492Y-99722993D01*
X111448514Y-99706425D01*
X111442386Y-99689476D01*
X111437133Y-99672171D01*
X111432780Y-99654533D01*
X111429351Y-99636584D01*
X111426871Y-99618349D01*
X111425365Y-99599850D01*
X111424858Y-99581111D01*
X111424858Y-99454111D01*
X111009462Y-99454111D01*
X110984306Y-99453504D01*
X110959461Y-99451702D01*
X110957504Y-99451465D01*
X111623295Y-99451465D01*
X111625941Y-99578465D01*
X111626187Y-99587826D01*
X111626918Y-99597054D01*
X111628121Y-99606136D01*
X111629786Y-99615062D01*
X111631900Y-99623821D01*
X111634452Y-99632403D01*
X111637430Y-99640797D01*
X111640824Y-99648992D01*
X111644620Y-99656978D01*
X111648808Y-99664744D01*
X111653375Y-99672280D01*
X111658311Y-99679574D01*
X111663603Y-99686617D01*
X111669241Y-99693396D01*
X111675211Y-99699903D01*
X111681503Y-99706126D01*
X111688106Y-99712054D01*
X111695007Y-99717677D01*
X111702194Y-99722984D01*
X111709657Y-99727964D01*
X111717383Y-99732607D01*
X111725361Y-99736903D01*
X111733580Y-99740840D01*
X111742027Y-99744408D01*
X111750691Y-99747596D01*
X111759561Y-99750393D01*
X111768624Y-99752789D01*
X111777870Y-99754774D01*
X111787286Y-99756336D01*
X111796861Y-99757465D01*
X111806583Y-99758150D01*
X111816441Y-99758381D01*
X111826066Y-99758143D01*
X111835585Y-99757436D01*
X111844985Y-99756273D01*
X111854253Y-99754665D01*
X111863375Y-99752626D01*
X111872339Y-99750166D01*
X111881131Y-99747299D01*
X111889739Y-99744036D01*
X111898149Y-99740389D01*
X111906348Y-99736370D01*
X111914324Y-99731992D01*
X111922063Y-99727267D01*
X111929551Y-99722206D01*
X111936777Y-99716822D01*
X111943726Y-99711127D01*
X111950386Y-99705134D01*
X111956744Y-99698853D01*
X111962787Y-99692298D01*
X111968501Y-99685480D01*
X111973873Y-99678412D01*
X111978891Y-99671105D01*
X111983541Y-99663572D01*
X111987811Y-99655825D01*
X111991686Y-99647876D01*
X111995155Y-99639737D01*
X111998203Y-99631420D01*
X112000819Y-99622938D01*
X112002988Y-99614302D01*
X112004698Y-99605525D01*
X112005935Y-99596618D01*
X112006688Y-99587594D01*
X112006941Y-99578465D01*
X112006941Y-99451465D01*
X114750670Y-99451465D01*
X114750670Y-99758381D01*
X118306670Y-99758381D01*
X118306670Y-99451465D01*
X114750670Y-99451465D01*
X112006941Y-99451465D01*
X111623295Y-99451465D01*
X110957504Y-99451465D01*
X110934959Y-99448735D01*
X110910832Y-99444634D01*
X110887112Y-99439428D01*
X110863831Y-99433147D01*
X110841021Y-99425822D01*
X110818714Y-99417483D01*
X110796941Y-99408159D01*
X110775736Y-99397881D01*
X110755129Y-99386678D01*
X110735153Y-99374581D01*
X110715840Y-99361620D01*
X110697221Y-99347824D01*
X110679329Y-99333224D01*
X110662196Y-99317850D01*
X110645854Y-99301732D01*
X110630334Y-99284900D01*
X110615669Y-99267384D01*
X110614813Y-99266255D01*
X115160774Y-99266255D01*
X117901857Y-99266255D01*
X117896670Y-99236456D01*
X117890060Y-99207108D01*
X117882064Y-99178242D01*
X117872717Y-99149891D01*
X117862054Y-99122086D01*
X117850111Y-99094859D01*
X117836922Y-99068243D01*
X117822524Y-99042269D01*
X117806951Y-99016970D01*
X117790240Y-98992377D01*
X117772425Y-98968522D01*
X117753541Y-98945438D01*
X117733625Y-98923156D01*
X117712711Y-98901708D01*
X117668032Y-98861443D01*
X117619788Y-98824899D01*
X117568261Y-98792331D01*
X117541354Y-98777619D01*
X117513733Y-98763996D01*
X117485433Y-98751495D01*
X117456489Y-98740148D01*
X117426937Y-98729988D01*
X117396812Y-98721045D01*
X117366148Y-98713352D01*
X117334983Y-98706941D01*
X117303350Y-98701844D01*
X117271286Y-98698093D01*
X117238825Y-98695719D01*
X117206003Y-98694756D01*
X115859274Y-98694756D01*
X115841533Y-98694998D01*
X115824010Y-98695706D01*
X115806672Y-98696849D01*
X115789490Y-98698394D01*
X115772432Y-98700311D01*
X115755466Y-98702569D01*
X115738563Y-98705138D01*
X115721691Y-98707985D01*
X115679357Y-98718569D01*
X115668448Y-98720677D01*
X115657570Y-98723033D01*
X115646755Y-98725638D01*
X115636032Y-98728490D01*
X115625433Y-98731591D01*
X115614989Y-98734939D01*
X115604732Y-98738536D01*
X115594691Y-98742381D01*
X115591744Y-98743404D01*
X115588851Y-98744484D01*
X115586005Y-98745619D01*
X115583198Y-98746805D01*
X115577669Y-98749311D01*
X115572201Y-98751972D01*
X115549712Y-98763548D01*
X115540673Y-98768395D01*
X115531480Y-98773056D01*
X115513001Y-98782069D01*
X115503900Y-98786544D01*
X115495017Y-98791081D01*
X115486444Y-98795742D01*
X115482303Y-98798139D01*
X115478274Y-98800590D01*
X115475328Y-98802108D01*
X115472440Y-98803685D01*
X115469606Y-98805316D01*
X115466822Y-98806997D01*
X115464086Y-98808725D01*
X115461391Y-98810496D01*
X115456115Y-98814149D01*
X115450963Y-98817927D01*
X115445904Y-98821797D01*
X115435941Y-98829694D01*
X115420107Y-98841600D01*
X115404521Y-98853507D01*
X115396899Y-98859460D01*
X115389432Y-98865413D01*
X115382151Y-98871366D01*
X115375087Y-98877319D01*
X115338045Y-98914360D01*
X115331219Y-98921306D01*
X115324609Y-98928251D01*
X115318186Y-98935196D01*
X115311917Y-98942142D01*
X115299722Y-98956032D01*
X115287774Y-98969923D01*
X115258670Y-99009610D01*
X115248789Y-99025527D01*
X115243927Y-99033563D01*
X115239157Y-99041691D01*
X115234511Y-99049944D01*
X115230021Y-99058352D01*
X115225716Y-99066945D01*
X115221628Y-99075756D01*
X115210053Y-99098245D01*
X115207391Y-99103713D01*
X115204885Y-99109242D01*
X115203700Y-99112049D01*
X115202565Y-99114896D01*
X115201484Y-99117788D01*
X115200461Y-99120735D01*
X115198537Y-99125230D01*
X115196725Y-99129778D01*
X115193392Y-99139008D01*
X115190369Y-99148361D01*
X115187563Y-99157776D01*
X115182230Y-99176545D01*
X115179517Y-99185775D01*
X115176649Y-99194819D01*
X115172722Y-99206725D01*
X115170836Y-99212678D01*
X115169043Y-99218631D01*
X115167374Y-99224584D01*
X115165859Y-99230537D01*
X115164531Y-99236490D01*
X115163420Y-99242443D01*
X115162954Y-99243931D01*
X115162547Y-99245420D01*
X115162194Y-99246908D01*
X115161891Y-99248396D01*
X115161634Y-99249885D01*
X115161420Y-99251373D01*
X115161245Y-99252861D01*
X115161105Y-99254350D01*
X115160914Y-99257326D01*
X115160816Y-99260303D01*
X115160774Y-99266255D01*
X110614813Y-99266255D01*
X110601890Y-99249214D01*
X110589030Y-99230419D01*
X110577120Y-99211031D01*
X110566193Y-99191079D01*
X110556280Y-99170593D01*
X110547414Y-99149603D01*
X110539626Y-99128140D01*
X110532949Y-99106232D01*
X110527414Y-99083911D01*
X110523053Y-99061206D01*
X110519899Y-99038148D01*
X110517983Y-99014766D01*
X110517337Y-98991090D01*
X110715774Y-98991090D01*
X110716159Y-99005148D01*
X110717299Y-99019032D01*
X110719175Y-99032723D01*
X110721769Y-99046203D01*
X110725060Y-99059452D01*
X110729029Y-99072451D01*
X110733658Y-99085182D01*
X110738926Y-99097626D01*
X110744813Y-99109763D01*
X110751302Y-99121576D01*
X110758372Y-99133044D01*
X110766004Y-99144150D01*
X110774179Y-99154874D01*
X110782876Y-99165197D01*
X110792078Y-99175101D01*
X110801764Y-99184566D01*
X110811915Y-99193574D01*
X110822512Y-99202106D01*
X110833536Y-99210142D01*
X110844966Y-99217665D01*
X110856784Y-99224654D01*
X110868970Y-99231092D01*
X110881504Y-99236959D01*
X110894369Y-99242237D01*
X110907543Y-99246906D01*
X110921008Y-99250948D01*
X110934744Y-99254343D01*
X110948733Y-99257074D01*
X110962953Y-99259120D01*
X110977387Y-99260463D01*
X110992015Y-99261085D01*
X111006817Y-99260965D01*
X114954401Y-99260965D01*
X114955512Y-99251043D01*
X114956839Y-99241121D01*
X114958354Y-99231199D01*
X114960023Y-99221277D01*
X114963702Y-99201434D01*
X114967629Y-99181590D01*
X114967629Y-99176298D01*
X114969733Y-99166495D01*
X114972053Y-99156910D01*
X114974559Y-99147510D01*
X114977221Y-99138265D01*
X114980006Y-99129144D01*
X114982884Y-99120116D01*
X114988796Y-99102216D01*
X114989322Y-99100262D01*
X114989902Y-99098366D01*
X114990529Y-99096524D01*
X114991194Y-99094733D01*
X114991890Y-99092988D01*
X114992610Y-99091286D01*
X114994088Y-99087994D01*
X114996982Y-99081752D01*
X114998274Y-99078739D01*
X114998854Y-99077246D01*
X114999380Y-99075757D01*
X115003390Y-99063438D01*
X115007648Y-99050623D01*
X115009948Y-99044184D01*
X115012402Y-99037807D01*
X115015043Y-99031554D01*
X115016443Y-99028493D01*
X115017901Y-99025487D01*
X115018427Y-99023532D01*
X115019011Y-99021632D01*
X115019650Y-99019778D01*
X115020339Y-99017963D01*
X115021075Y-99016179D01*
X115021854Y-99014418D01*
X115023523Y-99010935D01*
X115031129Y-98996383D01*
X115033233Y-98991308D01*
X115035553Y-98986047D01*
X115038059Y-98980663D01*
X115040721Y-98975216D01*
X115043506Y-98969769D01*
X115046384Y-98964385D01*
X115049325Y-98959124D01*
X115052296Y-98954049D01*
X115070817Y-98924945D01*
X115074667Y-98919984D01*
X115078300Y-98915023D01*
X115081747Y-98910062D01*
X115085038Y-98905101D01*
X115088206Y-98900140D01*
X115091281Y-98895179D01*
X115097275Y-98885257D01*
X115118442Y-98856153D01*
X115147546Y-98821756D01*
X115171359Y-98795299D01*
X115203109Y-98763549D01*
X115229568Y-98739737D01*
X115263963Y-98710632D01*
X115293068Y-98686820D01*
X115297915Y-98682970D01*
X115302576Y-98679337D01*
X115307113Y-98675891D01*
X115311588Y-98672599D01*
X115316063Y-98669431D01*
X115320601Y-98666356D01*
X115325262Y-98663343D01*
X115330109Y-98660361D01*
X115338047Y-98654450D01*
X115342015Y-98651571D01*
X115345984Y-98648786D01*
X115349953Y-98646125D01*
X115353922Y-98643618D01*
X115355906Y-98642433D01*
X115357890Y-98641298D01*
X115359875Y-98640217D01*
X115361859Y-98639195D01*
X115401547Y-98615382D01*
X115403531Y-98613924D01*
X115405515Y-98612525D01*
X115409484Y-98609884D01*
X115413453Y-98607429D01*
X115417422Y-98605130D01*
X115421390Y-98602954D01*
X115425359Y-98600871D01*
X115433297Y-98596861D01*
X115475630Y-98578341D01*
X115479712Y-98577230D01*
X115483981Y-98575902D01*
X115488373Y-98574387D01*
X115492828Y-98572718D01*
X115497282Y-98570925D01*
X115501675Y-98569039D01*
X115505943Y-98567090D01*
X115510026Y-98565111D01*
X115515105Y-98563127D01*
X115520402Y-98561143D01*
X115531523Y-98557174D01*
X115543140Y-98553205D01*
X115555005Y-98549236D01*
X115589400Y-98538652D01*
X115595467Y-98536673D01*
X115601720Y-98534725D01*
X115608097Y-98532839D01*
X115614536Y-98531046D01*
X115620975Y-98529377D01*
X115627352Y-98527863D01*
X115633605Y-98526535D01*
X115639671Y-98525424D01*
X115644513Y-98524432D01*
X115649138Y-98523440D01*
X115657861Y-98521455D01*
X115666088Y-98519471D01*
X115674067Y-98517487D01*
X115732275Y-98509549D01*
X115761379Y-98506904D01*
X115783621Y-98504960D01*
X115806359Y-98503265D01*
X115817759Y-98502588D01*
X115829096Y-98502066D01*
X115840310Y-98501731D01*
X115851338Y-98501612D01*
X116097400Y-98501612D01*
X116097400Y-98199987D01*
X116082156Y-98213873D01*
X116066229Y-98227727D01*
X116049682Y-98241520D01*
X116032578Y-98255219D01*
X116014977Y-98268794D01*
X115996941Y-98282215D01*
X115978534Y-98295449D01*
X115959817Y-98308466D01*
X115950267Y-98315990D01*
X115945632Y-98319535D01*
X115940966Y-98323019D01*
X115936175Y-98326502D01*
X115931168Y-98330047D01*
X115925850Y-98333716D01*
X115920130Y-98337571D01*
X115898539Y-98351100D01*
X115877383Y-98363946D01*
X115856599Y-98376173D01*
X115836124Y-98387842D01*
X115815898Y-98399014D01*
X115795858Y-98409752D01*
X115775942Y-98420119D01*
X115756088Y-98430175D01*
X115748161Y-98434024D01*
X115740295Y-98437657D01*
X115724999Y-98444395D01*
X115710695Y-98450638D01*
X115704070Y-98453651D01*
X115697879Y-98456633D01*
X115689053Y-98460488D01*
X115680351Y-98464156D01*
X115671649Y-98467701D01*
X115662822Y-98471184D01*
X115644301Y-98478212D01*
X115623796Y-98485737D01*
X115594030Y-98496284D01*
X115564265Y-98506118D01*
X115534499Y-98515270D01*
X115504734Y-98523770D01*
X115474968Y-98531651D01*
X115445202Y-98538943D01*
X115415437Y-98545676D01*
X115385671Y-98551883D01*
X115369791Y-98553981D01*
X115353880Y-98556265D01*
X115321841Y-98561143D01*
X115289305Y-98566021D01*
X115272774Y-98568305D01*
X115256025Y-98570403D01*
X115253545Y-98570869D01*
X115251065Y-98571276D01*
X115246104Y-98571933D01*
X115241143Y-98572403D01*
X115236182Y-98572718D01*
X115231221Y-98572909D01*
X115226260Y-98573007D01*
X115216338Y-98573049D01*
X115196040Y-98574992D01*
X115174997Y-98576687D01*
X115164274Y-98577364D01*
X115153458Y-98577886D01*
X115142580Y-98578222D01*
X115131671Y-98578341D01*
X115097275Y-98578341D01*
X115068388Y-98578087D01*
X115039315Y-98577307D01*
X115010118Y-98575969D01*
X114980859Y-98574041D01*
X114951600Y-98571493D01*
X114922403Y-98568295D01*
X114893330Y-98564414D01*
X114864442Y-98559820D01*
X114849673Y-98557717D01*
X114835090Y-98555396D01*
X114820631Y-98552890D01*
X114806234Y-98550228D01*
X114748025Y-98538652D01*
X114734140Y-98535557D01*
X114720286Y-98532245D01*
X114706493Y-98528746D01*
X114692794Y-98525093D01*
X114665798Y-98517445D01*
X114639546Y-98509548D01*
X114636900Y-98509548D01*
X114605641Y-98500257D01*
X114575343Y-98490283D01*
X114545976Y-98479690D01*
X114517507Y-98468538D01*
X114489907Y-98456890D01*
X114463144Y-98444808D01*
X114437186Y-98432354D01*
X114412005Y-98419590D01*
X114405070Y-98416500D01*
X114398197Y-98413223D01*
X114391447Y-98409823D01*
X114384885Y-98406361D01*
X114378570Y-98402898D01*
X114372565Y-98399498D01*
X114361733Y-98393132D01*
X114341890Y-98381970D01*
X114322046Y-98370312D01*
X114302202Y-98358158D01*
X114282358Y-98345507D01*
X114262515Y-98332361D01*
X114242671Y-98318718D01*
X114222827Y-98304580D01*
X114202983Y-98289945D01*
X114181155Y-98272416D01*
X114175078Y-98267646D01*
X114168753Y-98262784D01*
X114162180Y-98257859D01*
X114155358Y-98252903D01*
X114150066Y-98247611D01*
X114147420Y-98244966D01*
X114131546Y-98231737D01*
X114121583Y-98223717D01*
X114116523Y-98219552D01*
X114111371Y-98215201D01*
X114106095Y-98210602D01*
X114100664Y-98205693D01*
X114095047Y-98200411D01*
X114089212Y-98194696D01*
X114083259Y-98189616D01*
X114077306Y-98184319D01*
X114071353Y-98178836D01*
X114065400Y-98173198D01*
X114059447Y-98167437D01*
X114053494Y-98161582D01*
X114041587Y-98149716D01*
X114033789Y-98141776D01*
X114308816Y-98141776D01*
X114311255Y-98144174D01*
X114312769Y-98145590D01*
X114314438Y-98147068D01*
X114315321Y-98147810D01*
X114316231Y-98148546D01*
X114317165Y-98149265D01*
X114318118Y-98149961D01*
X114319086Y-98150627D01*
X114320066Y-98151253D01*
X114321053Y-98151833D01*
X114322045Y-98152359D01*
X114356978Y-98177205D01*
X114374088Y-98188962D01*
X114391168Y-98200315D01*
X114408371Y-98211296D01*
X114425853Y-98221936D01*
X114443769Y-98232266D01*
X114462275Y-98242317D01*
X114467241Y-98244421D01*
X114472238Y-98246741D01*
X114477297Y-98249248D01*
X114482449Y-98251909D01*
X114493156Y-98257573D01*
X114498773Y-98260514D01*
X114504608Y-98263485D01*
X114573400Y-98295235D01*
X114573400Y-96369069D01*
X114766545Y-96369069D01*
X114766545Y-98364028D01*
X114793004Y-98371964D01*
X114805029Y-98374822D01*
X114817271Y-98377463D01*
X114829699Y-98379918D01*
X114842282Y-98382217D01*
X114867790Y-98386476D01*
X114893545Y-98390486D01*
X114909306Y-98393225D01*
X114924882Y-98395529D01*
X114940333Y-98397462D01*
X114955722Y-98399084D01*
X114971111Y-98400459D01*
X114986563Y-98401647D01*
X115017899Y-98403714D01*
X115031128Y-98403714D01*
X115031128Y-96617777D01*
X115229566Y-96617777D01*
X115229566Y-98398423D01*
X115237503Y-98398423D01*
X115266773Y-98394413D01*
X115295050Y-98390155D01*
X115308817Y-98387855D01*
X115322335Y-98385400D01*
X115335606Y-98382760D01*
X115348628Y-98379902D01*
X115364503Y-98376801D01*
X115380378Y-98373453D01*
X115396253Y-98369856D01*
X115412128Y-98366012D01*
X115428003Y-98361919D01*
X115443878Y-98357578D01*
X115459753Y-98352989D01*
X115475628Y-98348152D01*
X115491503Y-98342860D01*
X115491503Y-96726256D01*
X115687295Y-96726256D01*
X115687295Y-98263485D01*
X115702183Y-98256297D01*
X115717102Y-98248643D01*
X115732083Y-98240556D01*
X115747157Y-98232065D01*
X115762355Y-98223203D01*
X115777708Y-98214000D01*
X115809003Y-98194694D01*
X115812977Y-98191826D01*
X115816982Y-98189113D01*
X115825209Y-98183780D01*
X115829493Y-98180973D01*
X115833932Y-98177950D01*
X115838557Y-98174617D01*
X115840949Y-98172806D01*
X115843399Y-98170881D01*
X115862876Y-98157864D01*
X115881639Y-98144629D01*
X115899721Y-98131209D01*
X115917152Y-98117634D01*
X115933962Y-98103934D01*
X115950183Y-98090142D01*
X115965846Y-98076287D01*
X115980982Y-98062402D01*
X115996733Y-98047276D01*
X116012236Y-98031685D01*
X116027491Y-98015660D01*
X116042498Y-97999232D01*
X116057257Y-97982433D01*
X116071767Y-97965291D01*
X116086030Y-97947840D01*
X116100045Y-97930110D01*
X116100045Y-97326860D01*
X116295836Y-97326860D01*
X116295836Y-98514839D01*
X116756211Y-98514839D01*
X116756211Y-97326860D01*
X116754227Y-97326866D01*
X116752243Y-97326902D01*
X116750258Y-97327000D01*
X116749266Y-97327082D01*
X116748274Y-97327191D01*
X116747282Y-97327331D01*
X116746290Y-97327506D01*
X116745298Y-97327720D01*
X116744305Y-97327977D01*
X116743313Y-97328279D01*
X116742321Y-97328633D01*
X116741329Y-97329040D01*
X116740336Y-97329506D01*
X116735872Y-97330934D01*
X116731407Y-97332250D01*
X116722477Y-97334591D01*
X116713547Y-97336622D01*
X116704618Y-97338436D01*
X116686758Y-97341785D01*
X116677829Y-97343506D01*
X116668899Y-97345382D01*
X116666885Y-97345412D01*
X116664817Y-97345501D01*
X116660548Y-97345836D01*
X116656156Y-97346358D01*
X116651701Y-97347035D01*
X116647247Y-97347836D01*
X116642854Y-97348730D01*
X116638586Y-97349686D01*
X116634503Y-97350673D01*
X116621486Y-97352533D01*
X116608252Y-97354146D01*
X116594831Y-97355510D01*
X116581256Y-97356626D01*
X116567556Y-97357494D01*
X116553764Y-97358114D01*
X116539909Y-97358486D01*
X116526024Y-97358610D01*
X116504485Y-97358527D01*
X116492770Y-97358331D01*
X116480714Y-97357949D01*
X116468534Y-97357318D01*
X116456447Y-97356378D01*
X116444670Y-97355065D01*
X116438965Y-97354250D01*
X116433420Y-97353318D01*
X116416671Y-97351205D01*
X116400140Y-97348812D01*
X116383795Y-97346110D01*
X116367605Y-97343066D01*
X116351539Y-97339650D01*
X116335565Y-97335832D01*
X116319654Y-97331579D01*
X116303774Y-97326860D01*
X116295836Y-97326860D01*
X116100045Y-97326860D01*
X116100045Y-97231610D01*
X116083421Y-97220681D01*
X116067261Y-97209658D01*
X116051536Y-97198449D01*
X116036214Y-97186962D01*
X116021264Y-97175102D01*
X116006655Y-97162777D01*
X115999469Y-97156411D01*
X115992357Y-97149894D01*
X115985314Y-97143214D01*
X115978337Y-97136360D01*
X115958028Y-97115188D01*
X115938773Y-97093360D01*
X115920573Y-97070905D01*
X115903427Y-97047849D01*
X115887335Y-97024219D01*
X115872297Y-97000043D01*
X115858313Y-96975347D01*
X115845384Y-96950160D01*
X115833508Y-96924507D01*
X115822687Y-96898416D01*
X115812921Y-96871914D01*
X115804208Y-96845029D01*
X115796549Y-96817787D01*
X115789945Y-96790216D01*
X115784395Y-96762342D01*
X115779899Y-96734193D01*
X115732605Y-96730225D01*
X115687295Y-96726256D01*
X115491503Y-96726256D01*
X115491503Y-96694506D01*
X115490044Y-96694476D01*
X115488640Y-96694387D01*
X115487282Y-96694245D01*
X115485963Y-96694051D01*
X115484675Y-96693812D01*
X115483410Y-96693529D01*
X115482161Y-96693208D01*
X115480920Y-96692852D01*
X115478429Y-96692051D01*
X115475876Y-96691157D01*
X115473199Y-96690201D01*
X115470336Y-96689214D01*
X115398899Y-96670693D01*
X115343336Y-96654819D01*
X115334293Y-96652602D01*
X115332782Y-96652173D01*
X115970399Y-96652173D01*
X115971047Y-96677375D01*
X115972978Y-96702361D01*
X115976172Y-96727098D01*
X115980610Y-96751557D01*
X115986273Y-96775705D01*
X115993142Y-96799513D01*
X116001196Y-96822948D01*
X116010417Y-96845980D01*
X116020785Y-96868578D01*
X116032282Y-96890711D01*
X116044886Y-96912348D01*
X116058580Y-96933458D01*
X116073343Y-96954009D01*
X116089157Y-96973972D01*
X116106001Y-96993315D01*
X116123858Y-97012006D01*
X116130865Y-97018860D01*
X116137996Y-97025535D01*
X116145251Y-97032040D01*
X116152631Y-97038382D01*
X116160134Y-97044569D01*
X116167762Y-97050609D01*
X116183389Y-97062277D01*
X116199512Y-97073450D01*
X116216131Y-97084188D01*
X116233246Y-97094554D01*
X116250857Y-97104610D01*
X116262857Y-97111370D01*
X116275042Y-97117762D01*
X116287413Y-97123790D01*
X116299971Y-97129457D01*
X116312714Y-97134767D01*
X116325643Y-97139725D01*
X116338759Y-97144334D01*
X116352060Y-97148598D01*
X116365548Y-97152520D01*
X116379221Y-97156106D01*
X116393081Y-97159359D01*
X116407127Y-97162281D01*
X116421358Y-97164879D01*
X116435776Y-97167155D01*
X116450380Y-97169112D01*
X116465169Y-97170756D01*
X116472611Y-97172123D01*
X116480052Y-97173257D01*
X116487494Y-97174175D01*
X116494935Y-97174890D01*
X116502377Y-97175420D01*
X116509818Y-97175779D01*
X116524701Y-97176048D01*
X116539584Y-97175821D01*
X116554467Y-97175221D01*
X116584232Y-97173402D01*
X116599053Y-97171728D01*
X116613750Y-97169686D01*
X116628323Y-97167280D01*
X116642771Y-97164514D01*
X116657096Y-97161390D01*
X116671297Y-97157915D01*
X116685373Y-97154090D01*
X116699326Y-97149920D01*
X116713155Y-97145410D01*
X116726859Y-97140562D01*
X116740440Y-97135380D01*
X116753896Y-97129870D01*
X116767229Y-97124034D01*
X116780437Y-97117876D01*
X116793522Y-97111400D01*
X116806482Y-97104610D01*
X116838409Y-97085896D01*
X116868670Y-97065528D01*
X116897209Y-97043585D01*
X116923974Y-97020150D01*
X116948909Y-96995305D01*
X116971960Y-96969130D01*
X116993074Y-96941707D01*
X117012196Y-96913118D01*
X117029271Y-96883444D01*
X117044246Y-96852765D01*
X117057065Y-96821164D01*
X117067676Y-96788722D01*
X117076023Y-96755521D01*
X117082052Y-96721641D01*
X117085710Y-96687165D01*
X117086941Y-96652173D01*
X117086941Y-96548985D01*
X117282732Y-96548985D01*
X117362752Y-96540549D01*
X117441524Y-96528692D01*
X117518964Y-96513493D01*
X117594987Y-96495035D01*
X117669508Y-96473398D01*
X117742442Y-96448665D01*
X117813705Y-96420917D01*
X117883212Y-96390235D01*
X117950878Y-96356700D01*
X118016618Y-96320394D01*
X118080348Y-96281399D01*
X118141982Y-96239794D01*
X118201436Y-96195663D01*
X118258625Y-96149087D01*
X118313465Y-96100146D01*
X118365870Y-96048922D01*
X118415756Y-95995497D01*
X118463038Y-95939952D01*
X118507631Y-95882369D01*
X118549450Y-95822828D01*
X118588411Y-95761411D01*
X118624430Y-95698200D01*
X118657420Y-95633275D01*
X118687297Y-95566719D01*
X118713977Y-95498613D01*
X118737375Y-95429038D01*
X118757405Y-95358075D01*
X118773984Y-95285806D01*
X118787027Y-95212313D01*
X118796447Y-95137676D01*
X118802162Y-95061977D01*
X118804086Y-94985298D01*
X118804086Y-93694131D01*
X118803786Y-93683274D01*
X118802896Y-93672540D01*
X118801430Y-93661943D01*
X118799404Y-93651498D01*
X118796831Y-93641220D01*
X118793726Y-93631124D01*
X118790104Y-93621223D01*
X118785978Y-93611532D01*
X118781365Y-93602066D01*
X118776277Y-93592839D01*
X118770731Y-93583866D01*
X118764739Y-93575162D01*
X118758318Y-93566741D01*
X118751480Y-93558616D01*
X118744242Y-93550804D01*
X118736617Y-93543319D01*
X118728620Y-93536175D01*
X118720265Y-93529386D01*
X118711568Y-93522967D01*
X118702542Y-93516933D01*
X118693202Y-93511298D01*
X118683562Y-93506077D01*
X118673638Y-93501284D01*
X118663443Y-93496934D01*
X118652993Y-93493041D01*
X118642301Y-93489621D01*
X118631383Y-93486686D01*
X118620252Y-93484253D01*
X118608924Y-93482335D01*
X118597412Y-93480947D01*
X118585732Y-93480103D01*
X118573898Y-93479819D01*
X118562493Y-93480096D01*
X118551114Y-93480920D01*
X118539790Y-93482278D01*
X118528547Y-93484160D01*
X118517413Y-93486553D01*
X118506414Y-93489446D01*
X118495578Y-93492828D01*
X118484932Y-93496686D01*
X118474504Y-93501010D01*
X118464319Y-93505786D01*
X118454405Y-93511005D01*
X118444790Y-93516654D01*
X118435501Y-93522721D01*
X118426564Y-93529196D01*
X118418007Y-93536065D01*
X118409857Y-93543319D01*
X118402138Y-93551379D01*
X118394861Y-93559679D01*
X118388033Y-93568213D01*
X118381662Y-93576970D01*
X118375757Y-93585945D01*
X118370325Y-93595129D01*
X118365373Y-93604515D01*
X118360909Y-93614095D01*
X118356942Y-93623860D01*
X118353478Y-93633804D01*
X118350526Y-93643919D01*
X118348093Y-93654196D01*
X118346188Y-93664628D01*
X118344817Y-93675207D01*
X118343989Y-93685926D01*
X118343711Y-93696777D01*
X118343711Y-94987944D01*
X118342364Y-95041962D01*
X118338365Y-95095335D01*
X118331773Y-95148007D01*
X118322648Y-95199921D01*
X118311050Y-95251021D01*
X118297039Y-95301250D01*
X118280676Y-95350554D01*
X118262021Y-95398875D01*
X118241133Y-95446157D01*
X118218073Y-95492345D01*
X118192900Y-95537381D01*
X118165675Y-95581210D01*
X118136459Y-95623776D01*
X118105310Y-95665021D01*
X118072289Y-95704891D01*
X118037456Y-95743329D01*
X118000871Y-95780279D01*
X117962595Y-95815684D01*
X117922687Y-95849489D01*
X117881207Y-95881636D01*
X117838216Y-95912071D01*
X117793774Y-95940736D01*
X117747940Y-95967576D01*
X117700774Y-95992534D01*
X117652338Y-96015554D01*
X117602690Y-96036580D01*
X117551891Y-96055556D01*
X117500001Y-96072426D01*
X117447080Y-96087132D01*
X117393189Y-96099620D01*
X117338386Y-96109833D01*
X117282733Y-96117715D01*
X117282732Y-96117715D01*
X117282732Y-96548985D01*
X117086941Y-96548985D01*
X117086941Y-96128298D01*
X115970399Y-96128298D01*
X115970399Y-96652173D01*
X115332782Y-96652173D01*
X115325063Y-96649982D01*
X115315710Y-96647052D01*
X115306295Y-96643905D01*
X115269253Y-96631006D01*
X115229566Y-96617777D01*
X115031128Y-96617777D01*
X115031128Y-96530464D01*
X115026281Y-96527493D01*
X115021620Y-96524552D01*
X115012607Y-96518889D01*
X115008132Y-96516227D01*
X115005875Y-96514953D01*
X115003595Y-96513721D01*
X115001284Y-96512536D01*
X114998934Y-96511401D01*
X114996537Y-96510320D01*
X114994086Y-96509297D01*
X114922649Y-96469610D01*
X114864440Y-96432569D01*
X114798295Y-96387589D01*
X114791846Y-96383207D01*
X114788249Y-96380799D01*
X114784405Y-96378329D01*
X114780312Y-96375859D01*
X114778172Y-96374644D01*
X114775971Y-96373451D01*
X114773708Y-96372290D01*
X114771382Y-96371167D01*
X114768995Y-96370091D01*
X114766545Y-96369069D01*
X114573400Y-96369069D01*
X114573400Y-96202381D01*
X114554879Y-96183860D01*
X114548807Y-96186728D01*
X114542518Y-96189441D01*
X114529412Y-96194774D01*
X114522658Y-96197580D01*
X114515811Y-96200603D01*
X114512362Y-96202225D01*
X114508902Y-96203936D01*
X114505434Y-96205748D01*
X114501962Y-96207673D01*
X114496996Y-96209776D01*
X114491998Y-96212096D01*
X114486939Y-96214603D01*
X114481787Y-96217264D01*
X114471080Y-96222927D01*
X114465463Y-96225867D01*
X114459629Y-96228838D01*
X114425853Y-96248847D01*
X114408887Y-96259162D01*
X114391829Y-96269848D01*
X114374647Y-96281031D01*
X114357309Y-96292834D01*
X114339785Y-96305381D01*
X114322045Y-96318796D01*
X114308816Y-96329380D01*
X114308816Y-98141776D01*
X114033789Y-98141776D01*
X114026363Y-98134215D01*
X114011444Y-98118473D01*
X113982511Y-98086300D01*
X113954755Y-98053258D01*
X113928147Y-98019410D01*
X113902655Y-97984818D01*
X113878248Y-97949543D01*
X113854896Y-97913649D01*
X113832566Y-97877196D01*
X113800816Y-97818988D01*
X113792920Y-97803155D01*
X113785272Y-97787569D01*
X113778120Y-97772479D01*
X113774807Y-97765198D01*
X113771712Y-97758134D01*
X113763780Y-97740021D01*
X113755878Y-97721381D01*
X113748039Y-97702183D01*
X113740293Y-97682397D01*
X113732670Y-97661990D01*
X113725203Y-97640931D01*
X113717922Y-97619191D01*
X113710858Y-97596738D01*
X113706889Y-97578961D01*
X113702920Y-97561680D01*
X113698952Y-97545392D01*
X113696967Y-97537775D01*
X113694983Y-97530592D01*
X113691056Y-97514799D01*
X113687376Y-97499503D01*
X113685707Y-97492196D01*
X113684193Y-97485199D01*
X113682865Y-97478574D01*
X113681754Y-97472384D01*
X113679010Y-97460353D01*
X113676669Y-97448075D01*
X113674638Y-97435549D01*
X113672824Y-97422774D01*
X113665879Y-97369196D01*
X113664019Y-97352323D01*
X113662406Y-97335420D01*
X113661042Y-97318455D01*
X113659926Y-97301396D01*
X113659058Y-97284214D01*
X113658438Y-97266876D01*
X113658065Y-97249353D01*
X113657978Y-97236902D01*
X113853733Y-97236902D01*
X113853851Y-97252653D01*
X113854187Y-97268156D01*
X113854709Y-97283411D01*
X113855386Y-97298418D01*
X113857081Y-97327687D01*
X113859024Y-97355965D01*
X113861091Y-97377834D01*
X113862280Y-97388846D01*
X113863654Y-97399952D01*
X113865277Y-97411181D01*
X113867210Y-97422565D01*
X113869514Y-97434136D01*
X113872253Y-97445923D01*
X113874279Y-97455928D01*
X113876553Y-97466428D01*
X113877860Y-97472020D01*
X113879323Y-97477921D01*
X113880971Y-97484195D01*
X113882837Y-97490902D01*
X113890774Y-97522321D01*
X113894743Y-97537411D01*
X113898712Y-97551756D01*
X113904675Y-97571243D01*
X113910701Y-97590079D01*
X113916850Y-97608357D01*
X113923186Y-97626170D01*
X113929770Y-97643611D01*
X113936663Y-97660773D01*
X113943929Y-97677749D01*
X113951629Y-97694632D01*
X113975441Y-97742256D01*
X113987678Y-97767391D01*
X113990970Y-97773830D01*
X113994417Y-97780207D01*
X113998050Y-97786460D01*
X113999946Y-97789520D01*
X114001900Y-97792526D01*
X114013057Y-97812127D01*
X114024679Y-97831263D01*
X114036735Y-97849965D01*
X114049194Y-97868264D01*
X114062025Y-97886190D01*
X114075197Y-97903776D01*
X114088680Y-97921051D01*
X114102441Y-97938047D01*
X114103557Y-97939154D01*
X114104921Y-97940446D01*
X114106534Y-97941862D01*
X114107433Y-97942597D01*
X114108394Y-97943340D01*
X114109417Y-97944083D01*
X114110502Y-97944818D01*
X114111650Y-97945538D01*
X114112859Y-97946234D01*
X114114130Y-97946900D01*
X114115464Y-97947526D01*
X114116859Y-97948106D01*
X114118316Y-97948632D01*
X114118316Y-96519882D01*
X114107733Y-96533111D01*
X114080076Y-96568912D01*
X114066480Y-96586968D01*
X114053163Y-96605209D01*
X114040218Y-96623699D01*
X114027738Y-96642499D01*
X114015816Y-96661671D01*
X114010093Y-96671416D01*
X114004545Y-96681277D01*
X114001455Y-96687236D01*
X113998179Y-96693225D01*
X113991316Y-96705421D01*
X113987854Y-96711689D01*
X113984454Y-96718112D01*
X113981177Y-96724722D01*
X113979605Y-96728106D01*
X113978087Y-96731548D01*
X113975110Y-96736638D01*
X113972134Y-96742008D01*
X113969157Y-96747687D01*
X113966181Y-96753707D01*
X113963204Y-96760100D01*
X113960228Y-96766895D01*
X113957251Y-96774124D01*
X113954274Y-96781819D01*
X113946575Y-96796955D01*
X113939309Y-96812618D01*
X113932415Y-96828839D01*
X113925832Y-96845650D01*
X113919496Y-96863080D01*
X113913347Y-96881162D01*
X113907321Y-96899925D01*
X113901358Y-96919402D01*
X113898500Y-96926477D01*
X113895859Y-96933830D01*
X113893405Y-96941494D01*
X113891105Y-96949499D01*
X113888930Y-96957876D01*
X113886847Y-96966655D01*
X113884826Y-96975869D01*
X113882837Y-96985548D01*
X113881875Y-96988060D01*
X113880971Y-96990633D01*
X113879323Y-96995966D01*
X113877860Y-97001547D01*
X113876553Y-97007376D01*
X113875369Y-97013454D01*
X113874279Y-97019779D01*
X113872253Y-97033174D01*
X113868326Y-97053430D01*
X113864647Y-97074184D01*
X113862978Y-97084591D01*
X113861463Y-97094937D01*
X113860135Y-97105159D01*
X113859024Y-97115194D01*
X113857081Y-97145001D01*
X113855386Y-97175056D01*
X113854187Y-97205607D01*
X113853851Y-97221146D01*
X113853733Y-97236902D01*
X113657978Y-97236902D01*
X113657941Y-97231612D01*
X113658065Y-97213867D01*
X113658438Y-97196307D01*
X113659058Y-97178872D01*
X113659926Y-97161498D01*
X113661042Y-97144124D01*
X113662406Y-97126689D01*
X113664019Y-97109129D01*
X113665879Y-97091383D01*
X113669848Y-97064594D01*
X113673816Y-97039789D01*
X113677785Y-97016969D01*
X113681754Y-96996133D01*
X113682865Y-96988092D01*
X113684193Y-96979927D01*
X113685707Y-96971762D01*
X113687376Y-96963721D01*
X113689169Y-96955929D01*
X113691055Y-96948508D01*
X113693004Y-96941583D01*
X113694983Y-96935279D01*
X113698993Y-96917420D01*
X113703251Y-96899560D01*
X113705551Y-96890630D01*
X113708005Y-96881700D01*
X113710646Y-96872771D01*
X113713504Y-96863841D01*
X113727436Y-96821219D01*
X113734479Y-96800729D01*
X113741615Y-96780828D01*
X113748876Y-96761548D01*
X113756292Y-96742918D01*
X113763893Y-96724971D01*
X113771712Y-96707737D01*
X113774807Y-96699805D01*
X113778120Y-96691903D01*
X113781618Y-96684064D01*
X113785272Y-96676318D01*
X113789049Y-96668696D01*
X113792920Y-96661228D01*
X113796853Y-96653947D01*
X113800816Y-96646883D01*
X113804785Y-96639064D01*
X113808754Y-96631463D01*
X113816691Y-96616787D01*
X113824629Y-96602607D01*
X113832566Y-96588675D01*
X113854896Y-96551349D01*
X113878249Y-96514798D01*
X113902655Y-96479054D01*
X113928147Y-96444146D01*
X113941310Y-96427016D01*
X113954756Y-96410107D01*
X113968488Y-96393422D01*
X113982511Y-96376967D01*
X113996829Y-96360744D01*
X114011445Y-96344757D01*
X114026363Y-96329010D01*
X114041587Y-96313508D01*
X114055065Y-96300072D01*
X114068046Y-96287380D01*
X114074506Y-96281236D01*
X114081027Y-96275185D01*
X114087673Y-96269195D01*
X114094504Y-96263237D01*
X114098592Y-96259268D01*
X114102896Y-96255299D01*
X114107387Y-96251331D01*
X114112033Y-96247362D01*
X114116802Y-96243393D01*
X114121665Y-96239424D01*
X114131546Y-96231487D01*
X114147420Y-96218258D01*
X114152712Y-96215612D01*
X114165032Y-96205318D01*
X114177848Y-96194776D01*
X114184287Y-96189645D01*
X114190664Y-96184730D01*
X114196917Y-96180126D01*
X114202983Y-96175924D01*
X114222822Y-96160421D01*
X114242630Y-96145663D01*
X114262375Y-96131648D01*
X114282028Y-96118378D01*
X114301556Y-96105851D01*
X114320930Y-96094069D01*
X114340117Y-96083031D01*
X114359088Y-96072737D01*
X114372896Y-96064882D01*
X114379645Y-96061110D01*
X114386208Y-96057524D01*
X114392522Y-96054185D01*
X114398527Y-96051157D01*
X114404160Y-96048501D01*
X114409359Y-96046279D01*
X114425233Y-96038341D01*
X114424737Y-96037379D01*
X114424241Y-96036475D01*
X114423745Y-96035626D01*
X114423249Y-96034827D01*
X114422753Y-96034074D01*
X114422257Y-96033364D01*
X114421761Y-96032693D01*
X114421265Y-96032057D01*
X114420768Y-96031452D01*
X114420272Y-96030874D01*
X114419776Y-96030319D01*
X114419280Y-96029783D01*
X114418288Y-96028755D01*
X114417296Y-96027758D01*
X114393483Y-95996007D01*
X114379634Y-95978107D01*
X114372786Y-95969079D01*
X114366032Y-95959958D01*
X114359402Y-95950713D01*
X114352927Y-95941313D01*
X114346638Y-95931727D01*
X114340566Y-95921924D01*
X114336716Y-95916963D01*
X114333083Y-95912002D01*
X114329637Y-95907041D01*
X114326345Y-95902080D01*
X114323177Y-95897119D01*
X114320103Y-95892158D01*
X114314108Y-95882237D01*
X114302243Y-95862847D01*
X114290626Y-95844202D01*
X114279505Y-95826054D01*
X114274209Y-95817088D01*
X114269129Y-95808153D01*
X114245316Y-95765820D01*
X114235394Y-95744446D01*
X114225472Y-95723817D01*
X114215551Y-95703684D01*
X114205629Y-95683799D01*
X114189754Y-95646757D01*
X114177889Y-95618521D01*
X114166272Y-95589541D01*
X114160634Y-95574849D01*
X114155151Y-95560065D01*
X114149855Y-95545218D01*
X114144775Y-95530341D01*
X114134191Y-95495945D01*
X114130341Y-95485031D01*
X114126708Y-95474117D01*
X114123261Y-95463203D01*
X114119970Y-95452289D01*
X114113727Y-95430461D01*
X114107733Y-95408632D01*
X114106627Y-95401806D01*
X114105335Y-95395197D01*
X114103919Y-95388773D01*
X114102441Y-95382505D01*
X114099547Y-95370309D01*
X114098255Y-95364320D01*
X114097149Y-95358362D01*
X114081275Y-95281632D01*
X114073337Y-95231361D01*
X114072350Y-95228266D01*
X114071394Y-95224953D01*
X114070499Y-95221455D01*
X114069698Y-95217801D01*
X114069021Y-95214024D01*
X114068739Y-95212098D01*
X114068499Y-95210153D01*
X114068306Y-95208193D01*
X114068164Y-95206220D01*
X114068075Y-95204241D01*
X114068045Y-95202257D01*
X111012108Y-95202257D01*
X110996825Y-95202618D01*
X110981746Y-95203691D01*
X110966891Y-95205457D01*
X110952277Y-95207900D01*
X110937922Y-95211001D01*
X110923846Y-95214744D01*
X110910066Y-95219111D01*
X110896601Y-95224085D01*
X110883469Y-95229647D01*
X110870689Y-95235782D01*
X110858279Y-95242470D01*
X110846257Y-95249696D01*
X110834643Y-95257440D01*
X110823454Y-95265687D01*
X110812709Y-95274418D01*
X110802425Y-95283616D01*
X110792623Y-95293264D01*
X110783319Y-95303343D01*
X110774533Y-95313838D01*
X110766283Y-95324730D01*
X110758587Y-95336001D01*
X110751463Y-95347635D01*
X110744931Y-95359614D01*
X110739008Y-95371921D01*
X110733713Y-95384537D01*
X110729064Y-95397446D01*
X110725080Y-95410631D01*
X110721779Y-95424073D01*
X110719180Y-95437755D01*
X110717300Y-95451660D01*
X110716159Y-95465771D01*
X110715774Y-95480069D01*
X110715774Y-98991090D01*
X110517337Y-98991090D01*
X110517337Y-95480069D01*
X110517983Y-95456393D01*
X110519901Y-95433012D01*
X110523060Y-95409955D01*
X110527429Y-95387253D01*
X110532979Y-95364937D01*
X110539679Y-95343036D01*
X110547497Y-95321583D01*
X110556404Y-95300607D01*
X110566369Y-95280138D01*
X110577362Y-95260208D01*
X110589352Y-95240847D01*
X110602308Y-95222085D01*
X110616201Y-95203952D01*
X110630998Y-95186480D01*
X110646671Y-95169699D01*
X110663188Y-95153639D01*
X110680519Y-95138331D01*
X110698634Y-95123806D01*
X110717501Y-95110093D01*
X110737091Y-95097224D01*
X110757372Y-95085229D01*
X110778315Y-95074139D01*
X110799888Y-95063983D01*
X110822062Y-95054793D01*
X110844805Y-95046599D01*
X110868088Y-95039432D01*
X110891879Y-95033321D01*
X110916149Y-95028299D01*
X110940866Y-95024394D01*
X110966000Y-95021638D01*
X110991521Y-95020062D01*
X111017398Y-95019695D01*
X113880189Y-95019695D01*
X113861585Y-94990591D01*
X114247961Y-94990591D01*
X114248080Y-95005360D01*
X114248416Y-95019943D01*
X114248938Y-95034402D01*
X114249615Y-95048799D01*
X114251310Y-95077655D01*
X114253253Y-95107007D01*
X114254483Y-95125853D01*
X114256147Y-95144669D01*
X114258183Y-95163422D01*
X114260529Y-95182082D01*
X114263123Y-95200619D01*
X114265903Y-95219000D01*
X114271774Y-95255174D01*
X114282128Y-95307507D01*
X114294331Y-95359317D01*
X114308370Y-95410577D01*
X114324236Y-95461259D01*
X114341915Y-95511337D01*
X114361396Y-95560783D01*
X114382668Y-95609570D01*
X114405719Y-95657671D01*
X114430537Y-95705059D01*
X114457111Y-95751706D01*
X114485429Y-95797587D01*
X114515480Y-95842672D01*
X114547251Y-95886936D01*
X114580732Y-95930352D01*
X114615910Y-95972891D01*
X114652774Y-96014527D01*
X114740086Y-96101840D01*
X114763940Y-96123627D01*
X114788042Y-96145165D01*
X114800264Y-96155764D01*
X114812640Y-96166208D01*
X114825203Y-96176466D01*
X114837982Y-96186507D01*
X114863908Y-96206216D01*
X114890113Y-96225615D01*
X114916629Y-96244642D01*
X114943485Y-96263235D01*
X114970713Y-96281333D01*
X114998344Y-96298871D01*
X115026410Y-96315790D01*
X115054941Y-96332027D01*
X115084706Y-96347861D01*
X115114472Y-96363446D01*
X115144238Y-96378536D01*
X115159120Y-96385817D01*
X115174003Y-96392881D01*
X115226832Y-96416699D01*
X115280126Y-96438563D01*
X115333854Y-96458505D01*
X115387985Y-96476556D01*
X115442488Y-96492746D01*
X115497332Y-96507107D01*
X115552486Y-96519669D01*
X115607920Y-96530465D01*
X115628642Y-96534196D01*
X115649178Y-96537492D01*
X115669590Y-96540417D01*
X115689941Y-96543032D01*
X115730703Y-96547580D01*
X115769316Y-96551372D01*
X115769316Y-96128298D01*
X115769316Y-96117715D01*
X115718296Y-96110761D01*
X115667960Y-96101833D01*
X115618357Y-96090974D01*
X115569535Y-96078224D01*
X115521542Y-96063625D01*
X115474427Y-96047219D01*
X115428238Y-96029048D01*
X115383024Y-96009153D01*
X115338833Y-95987576D01*
X115295714Y-95964359D01*
X115253715Y-95939542D01*
X115212885Y-95913169D01*
X115173271Y-95885281D01*
X115134923Y-95855918D01*
X115097889Y-95825124D01*
X115062217Y-95792939D01*
X115027956Y-95759405D01*
X114995154Y-95724564D01*
X114963860Y-95688458D01*
X114934121Y-95651128D01*
X114905988Y-95612616D01*
X114879507Y-95572964D01*
X114854728Y-95532212D01*
X114831699Y-95490404D01*
X114810468Y-95447580D01*
X114791084Y-95403783D01*
X114773595Y-95359053D01*
X114758050Y-95313433D01*
X114744496Y-95266964D01*
X114732984Y-95219688D01*
X114723560Y-95171647D01*
X114716274Y-95122881D01*
X114714414Y-95106014D01*
X114712801Y-95089147D01*
X114711437Y-95072280D01*
X114710321Y-95055413D01*
X114709453Y-95038546D01*
X114708833Y-95021678D01*
X114708460Y-95004811D01*
X114708336Y-94987944D01*
X114708336Y-93696777D01*
X114708037Y-93685920D01*
X114707147Y-93675186D01*
X114705681Y-93664589D01*
X114703655Y-93654145D01*
X114701082Y-93643867D01*
X114697977Y-93633770D01*
X114694354Y-93623869D01*
X114690229Y-93614178D01*
X114685615Y-93604712D01*
X114680528Y-93595486D01*
X114674981Y-93586513D01*
X114668990Y-93577808D01*
X114662568Y-93569387D01*
X114655731Y-93561263D01*
X114648493Y-93553451D01*
X114640868Y-93545965D01*
X114632871Y-93538821D01*
X114624516Y-93532032D01*
X114615818Y-93525613D01*
X114606792Y-93519579D01*
X114597452Y-93513945D01*
X114587813Y-93508723D01*
X114577888Y-93503931D01*
X114567694Y-93499581D01*
X114557243Y-93495688D01*
X114546552Y-93492267D01*
X114535633Y-93489333D01*
X114524503Y-93486899D01*
X114513174Y-93484981D01*
X114501663Y-93483593D01*
X114489983Y-93482750D01*
X114478149Y-93482465D01*
X114466772Y-93482742D01*
X114455473Y-93483566D01*
X114444267Y-93484924D01*
X114433169Y-93486806D01*
X114422196Y-93489199D01*
X114411362Y-93492093D01*
X114400683Y-93495474D01*
X114390175Y-93499332D01*
X114379852Y-93503656D01*
X114369731Y-93508433D01*
X114359828Y-93513651D01*
X114350156Y-93519300D01*
X114340733Y-93525368D01*
X114331574Y-93531842D01*
X114322693Y-93538712D01*
X114314107Y-93545965D01*
X114306388Y-93554025D01*
X114299111Y-93562326D01*
X114292283Y-93570859D01*
X114285912Y-93579617D01*
X114280007Y-93588592D01*
X114274575Y-93597776D01*
X114269623Y-93607162D01*
X114265159Y-93616741D01*
X114261192Y-93626507D01*
X114257728Y-93636451D01*
X114254776Y-93646565D01*
X114252343Y-93656842D01*
X114250438Y-93667274D01*
X114249067Y-93677854D01*
X114248239Y-93688573D01*
X114247961Y-93699423D01*
X114247961Y-94990591D01*
X113861585Y-94990591D01*
X112914460Y-93508924D01*
X112902430Y-93511885D01*
X112890152Y-93514753D01*
X112877626Y-93517435D01*
X112864851Y-93519838D01*
X112851829Y-93521869D01*
X112838558Y-93523435D01*
X112831830Y-93524014D01*
X112825040Y-93524442D01*
X112818187Y-93524708D01*
X112811273Y-93524799D01*
X112794006Y-93524384D01*
X112776948Y-93523152D01*
X112760121Y-93521123D01*
X112743546Y-93518319D01*
X112727246Y-93514758D01*
X112711244Y-93510463D01*
X112695562Y-93505452D01*
X112680221Y-93499746D01*
X112665245Y-93493366D01*
X112650656Y-93486332D01*
X112636476Y-93478665D01*
X112622726Y-93470384D01*
X112609430Y-93461510D01*
X112596610Y-93452063D01*
X112584288Y-93442064D01*
X112572486Y-93431533D01*
X112561227Y-93420491D01*
X112550533Y-93408957D01*
X112540426Y-93396952D01*
X112530928Y-93384497D01*
X112522062Y-93371612D01*
X112513850Y-93358317D01*
X112506315Y-93344632D01*
X112499478Y-93330578D01*
X112493362Y-93316175D01*
X112487989Y-93301444D01*
X112483382Y-93286405D01*
X112479562Y-93271078D01*
X112476552Y-93255483D01*
X112474375Y-93239642D01*
X112473052Y-93223573D01*
X112472606Y-93207299D01*
X112472678Y-93204652D01*
X112660462Y-93204652D01*
X112660647Y-93211317D01*
X112661194Y-93217911D01*
X112662097Y-93224424D01*
X112663345Y-93230847D01*
X112664931Y-93237172D01*
X112666845Y-93243388D01*
X112669079Y-93249488D01*
X112671624Y-93255461D01*
X112674471Y-93261298D01*
X112677612Y-93266990D01*
X112681038Y-93272529D01*
X112684740Y-93277904D01*
X112688709Y-93283106D01*
X112692937Y-93288127D01*
X112697415Y-93292957D01*
X112702134Y-93297587D01*
X112707086Y-93302008D01*
X112712261Y-93306210D01*
X112717652Y-93310185D01*
X112723249Y-93313922D01*
X112729043Y-93317414D01*
X112735027Y-93320650D01*
X112741191Y-93323622D01*
X112747526Y-93326319D01*
X112754025Y-93328734D01*
X112760677Y-93330857D01*
X112767474Y-93332679D01*
X112774408Y-93334190D01*
X112781471Y-93335381D01*
X112788652Y-93336243D01*
X112795943Y-93336767D01*
X112803337Y-93336944D01*
X112810730Y-93336775D01*
X112818022Y-93336272D01*
X112825203Y-93335444D01*
X112832265Y-93334298D01*
X112839200Y-93332842D01*
X112845997Y-93331084D01*
X112852649Y-93329031D01*
X112859147Y-93326692D01*
X112865483Y-93324073D01*
X112871647Y-93321183D01*
X112877630Y-93318029D01*
X112883425Y-93314620D01*
X112889022Y-93310963D01*
X112894413Y-93307065D01*
X112899588Y-93302935D01*
X112904540Y-93298580D01*
X112909259Y-93294008D01*
X112913737Y-93289226D01*
X112917965Y-93284243D01*
X112921934Y-93279067D01*
X112925636Y-93273704D01*
X112929062Y-93268163D01*
X112932203Y-93262451D01*
X112935050Y-93256577D01*
X112937595Y-93250548D01*
X112939829Y-93244371D01*
X112941743Y-93238055D01*
X112943328Y-93231607D01*
X112944577Y-93225035D01*
X112945479Y-93218347D01*
X112946027Y-93211550D01*
X112946212Y-93204652D01*
X112946027Y-93197755D01*
X112945479Y-93190958D01*
X112944577Y-93184270D01*
X112943328Y-93177698D01*
X112941743Y-93171250D01*
X112939829Y-93164934D01*
X112937595Y-93158757D01*
X112935050Y-93152728D01*
X112932203Y-93146854D01*
X112929062Y-93141142D01*
X112925636Y-93135601D01*
X112921934Y-93130238D01*
X112917965Y-93125062D01*
X112913737Y-93120079D01*
X112909259Y-93115297D01*
X112904540Y-93110725D01*
X112899588Y-93106370D01*
X112894413Y-93102240D01*
X112889022Y-93098343D01*
X112883425Y-93094685D01*
X112877630Y-93091276D01*
X112871647Y-93088122D01*
X112865483Y-93085232D01*
X112859147Y-93082614D01*
X112852649Y-93080274D01*
X112845997Y-93078221D01*
X112839199Y-93076463D01*
X112832265Y-93075007D01*
X112825203Y-93073861D01*
X112818022Y-93073033D01*
X112810730Y-93072530D01*
X112803337Y-93072361D01*
X112795943Y-93072530D01*
X112788652Y-93073033D01*
X112781471Y-93073861D01*
X112774408Y-93075007D01*
X112767474Y-93076463D01*
X112760677Y-93078221D01*
X112754025Y-93080274D01*
X112747526Y-93082614D01*
X112741191Y-93085232D01*
X112735027Y-93088122D01*
X112729043Y-93091276D01*
X112723249Y-93094685D01*
X112717652Y-93098343D01*
X112712261Y-93102240D01*
X112707086Y-93106370D01*
X112702134Y-93110725D01*
X112697415Y-93115297D01*
X112692937Y-93120079D01*
X112688709Y-93125062D01*
X112684740Y-93130238D01*
X112681038Y-93135601D01*
X112677612Y-93141142D01*
X112674471Y-93146854D01*
X112671624Y-93152728D01*
X112669079Y-93158757D01*
X112666845Y-93164934D01*
X112664931Y-93171250D01*
X112663345Y-93177698D01*
X112662097Y-93184270D01*
X112661194Y-93190958D01*
X112660647Y-93197755D01*
X112660462Y-93204652D01*
X112472678Y-93204652D01*
X112473045Y-93191024D01*
X112474346Y-93174956D01*
X112476489Y-93159114D01*
X112479453Y-93143520D01*
X112483218Y-93128193D01*
X112487762Y-93113153D01*
X112493065Y-93098422D01*
X112499106Y-93084020D01*
X112505864Y-93069966D01*
X112513318Y-93056281D01*
X112521447Y-93042986D01*
X112530231Y-93030100D01*
X112539648Y-93017645D01*
X112549678Y-93005641D01*
X112560301Y-92994107D01*
X112571494Y-92983065D01*
X112583238Y-92972534D01*
X112595511Y-92962535D01*
X112608294Y-92953088D01*
X112621563Y-92944214D01*
X112635300Y-92935933D01*
X112649484Y-92928266D01*
X112664092Y-92921232D01*
X112679105Y-92914852D01*
X112694502Y-92909146D01*
X112710262Y-92904135D01*
X112726363Y-92899840D01*
X112742786Y-92896279D01*
X112759509Y-92893475D01*
X112776512Y-92891446D01*
X112793774Y-92890214D01*
X112811273Y-92889799D01*
X112828539Y-92890214D01*
G37*
G36*
X120203733Y-89227965D02*
G01*
X120153880Y-89232549D01*
X120101578Y-89238342D01*
X120046858Y-89245313D01*
X119989750Y-89253431D01*
X119930286Y-89262666D01*
X119868497Y-89272985D01*
X119738065Y-89296757D01*
X119672699Y-89308663D01*
X119611519Y-89320569D01*
X119554494Y-89332475D01*
X119501593Y-89344382D01*
X119452784Y-89356288D01*
X119408037Y-89368194D01*
X119367322Y-89380100D01*
X119330606Y-89392007D01*
X119304344Y-89401618D01*
X119279141Y-89411597D01*
X119255000Y-89421941D01*
X119231925Y-89432645D01*
X119209919Y-89443706D01*
X119188987Y-89455119D01*
X119169132Y-89466881D01*
X119150359Y-89478988D01*
X119132671Y-89491437D01*
X119116072Y-89504222D01*
X119100566Y-89517341D01*
X119086156Y-89530789D01*
X119072848Y-89544563D01*
X119060644Y-89558658D01*
X119049548Y-89573071D01*
X119039565Y-89587798D01*
X119030449Y-89602836D01*
X119021949Y-89618184D01*
X119014061Y-89633842D01*
X119006782Y-89649810D01*
X119000107Y-89666088D01*
X118994033Y-89682676D01*
X118988556Y-89699574D01*
X118983672Y-89716783D01*
X118979377Y-89734301D01*
X118975667Y-89752129D01*
X118972539Y-89770268D01*
X118969988Y-89788716D01*
X118968011Y-89807475D01*
X118966603Y-89826543D01*
X118965762Y-89845922D01*
X118965482Y-89865611D01*
X118965482Y-93545965D01*
X118952538Y-93519686D01*
X118937587Y-93494485D01*
X118920729Y-93470446D01*
X118902065Y-93447655D01*
X118881695Y-93426198D01*
X118859721Y-93406159D01*
X118836243Y-93387624D01*
X118811362Y-93370678D01*
X118785179Y-93355406D01*
X118757794Y-93341894D01*
X118729309Y-93330227D01*
X118699824Y-93320490D01*
X118669439Y-93312768D01*
X118638256Y-93307147D01*
X118606376Y-93303712D01*
X118573898Y-93302548D01*
X118553070Y-93303041D01*
X118532289Y-93304512D01*
X118511600Y-93306943D01*
X118491051Y-93310320D01*
X118470688Y-93314627D01*
X118450558Y-93319849D01*
X118430706Y-93325970D01*
X118411180Y-93332975D01*
X118392026Y-93340848D01*
X118373291Y-93349573D01*
X118355021Y-93359136D01*
X118337262Y-93369521D01*
X118320062Y-93380711D01*
X118303466Y-93392692D01*
X118287521Y-93405449D01*
X118272274Y-93418965D01*
X118257797Y-93433161D01*
X118244141Y-93447950D01*
X118231323Y-93463305D01*
X118219357Y-93479199D01*
X118208259Y-93495604D01*
X118198045Y-93512494D01*
X118188730Y-93529841D01*
X118180330Y-93547618D01*
X118172860Y-93565799D01*
X118166336Y-93584355D01*
X118160773Y-93603260D01*
X118156187Y-93622487D01*
X118152593Y-93642009D01*
X118150006Y-93661797D01*
X118148443Y-93681827D01*
X118147919Y-93702069D01*
X118147919Y-94993236D01*
X118147425Y-95023401D01*
X118145950Y-95053361D01*
X118143506Y-95083097D01*
X118140105Y-95112588D01*
X118135759Y-95141815D01*
X118130478Y-95170760D01*
X118124275Y-95199402D01*
X118117161Y-95227723D01*
X118109148Y-95255702D01*
X118100248Y-95283322D01*
X118090471Y-95310561D01*
X118079830Y-95337401D01*
X118068337Y-95363822D01*
X118056002Y-95389806D01*
X118042838Y-95415332D01*
X118028856Y-95440382D01*
X117714003Y-95440382D01*
X117733345Y-95417163D01*
X117751664Y-95393170D01*
X117768929Y-95368432D01*
X117785109Y-95342982D01*
X117800173Y-95316849D01*
X117814089Y-95290065D01*
X117826828Y-95262661D01*
X117838357Y-95234668D01*
X117848646Y-95206117D01*
X117857663Y-95177038D01*
X117865378Y-95147464D01*
X117871761Y-95117424D01*
X117876778Y-95086951D01*
X117880401Y-95056074D01*
X117882597Y-95024825D01*
X117883336Y-94993236D01*
X117883336Y-91730923D01*
X117882352Y-91694437D01*
X117879431Y-91658429D01*
X117874622Y-91622945D01*
X117867973Y-91588028D01*
X117859531Y-91553723D01*
X117849344Y-91520076D01*
X117837461Y-91487130D01*
X117823929Y-91454930D01*
X117808796Y-91423521D01*
X117792111Y-91392947D01*
X117773921Y-91363252D01*
X117754274Y-91334482D01*
X117733219Y-91306682D01*
X117710802Y-91279894D01*
X117687073Y-91254165D01*
X117662078Y-91229538D01*
X117635867Y-91206058D01*
X117608486Y-91183771D01*
X117579985Y-91162719D01*
X117550411Y-91142949D01*
X117519811Y-91124504D01*
X117488234Y-91107429D01*
X117455728Y-91091769D01*
X117422341Y-91077568D01*
X117388120Y-91064871D01*
X117353114Y-91053722D01*
X117317371Y-91044166D01*
X117280939Y-91036248D01*
X117243865Y-91030011D01*
X117206197Y-91025501D01*
X117167984Y-91022763D01*
X117129273Y-91021840D01*
X116941420Y-91021840D01*
X116941420Y-89817986D01*
X116941140Y-89797771D01*
X116940298Y-89777807D01*
X116938891Y-89758100D01*
X116936913Y-89738652D01*
X116934363Y-89719468D01*
X116931234Y-89700551D01*
X116927525Y-89681906D01*
X116923230Y-89663535D01*
X116918346Y-89645444D01*
X116912869Y-89627636D01*
X116906795Y-89610114D01*
X116900120Y-89592883D01*
X116892841Y-89575947D01*
X116884953Y-89559309D01*
X116876453Y-89542973D01*
X116867336Y-89526944D01*
X116857322Y-89511318D01*
X116846134Y-89496191D01*
X116833775Y-89481569D01*
X116820249Y-89467454D01*
X116805561Y-89453851D01*
X116789713Y-89440763D01*
X116772711Y-89428195D01*
X116754558Y-89416150D01*
X116735257Y-89404632D01*
X116714814Y-89393645D01*
X116693230Y-89383193D01*
X116670511Y-89373279D01*
X116646661Y-89363908D01*
X116621682Y-89355084D01*
X116595580Y-89346810D01*
X116568358Y-89339090D01*
X116523342Y-89327556D01*
X116475629Y-89316766D01*
X116425250Y-89306720D01*
X116372235Y-89297418D01*
X116316616Y-89288860D01*
X116258423Y-89281047D01*
X116197688Y-89273978D01*
X116134441Y-89267652D01*
X116010913Y-89254754D01*
X115898300Y-89243840D01*
X115796601Y-89234910D01*
X115705816Y-89227965D01*
X115705816Y-88870777D01*
X120203733Y-88870777D01*
X120203733Y-89227965D01*
G37*
G36*
X119006731Y-94744847D02*
G01*
X119011371Y-94755689D01*
X119016384Y-94766407D01*
X119021706Y-94776939D01*
X119027277Y-94787222D01*
X119033034Y-94797196D01*
X119038914Y-94806797D01*
X119044857Y-94815964D01*
X119054840Y-94830165D01*
X119065931Y-94843994D01*
X119078123Y-94857450D01*
X119091407Y-94870535D01*
X119105777Y-94883247D01*
X119121225Y-94895588D01*
X119137742Y-94907556D01*
X119155321Y-94919152D01*
X119173954Y-94930376D01*
X119193634Y-94941228D01*
X119214352Y-94951708D01*
X119236102Y-94961816D01*
X119258874Y-94971552D01*
X119282662Y-94980916D01*
X119307458Y-94989907D01*
X119333253Y-94998527D01*
X119348354Y-95002930D01*
X119364884Y-95007209D01*
X119382849Y-95011363D01*
X119402252Y-95015394D01*
X119445386Y-95023084D01*
X119494319Y-95030277D01*
X119549080Y-95036974D01*
X119609702Y-95043175D01*
X119676214Y-95048880D01*
X119748649Y-95054089D01*
X120012901Y-95070295D01*
X120203733Y-95080548D01*
X120203733Y-95437735D01*
X118941670Y-95437735D01*
X118955680Y-95383795D01*
X118967922Y-95329173D01*
X118978366Y-95273931D01*
X118986980Y-95218131D01*
X118993734Y-95161835D01*
X118998597Y-95105104D01*
X119001537Y-95048002D01*
X119002524Y-94990589D01*
X119002524Y-94733943D01*
X119006731Y-94744847D01*
G37*
G36*
X118972003Y-93552310D02*
G01*
X118975683Y-93561426D01*
X118979163Y-93570666D01*
X118982432Y-93580030D01*
X118985485Y-93589518D01*
X118988313Y-93599129D01*
X118990909Y-93608865D01*
X118993264Y-93618725D01*
X118995371Y-93628709D01*
X118997222Y-93638817D01*
X118998810Y-93649049D01*
X119000127Y-93659405D01*
X119001164Y-93669885D01*
X119001915Y-93680489D01*
X119002371Y-93691217D01*
X119002524Y-93702069D01*
X119002524Y-94733943D01*
X118998214Y-94722440D01*
X118994209Y-94710751D01*
X118990507Y-94698876D01*
X118987104Y-94686815D01*
X118983995Y-94674567D01*
X118981176Y-94662134D01*
X118978645Y-94649515D01*
X118976396Y-94636709D01*
X118974427Y-94623718D01*
X118972733Y-94610540D01*
X118971310Y-94597177D01*
X118970154Y-94583627D01*
X118969262Y-94569892D01*
X118968629Y-94555970D01*
X118968128Y-94527568D01*
X118968128Y-93543319D01*
X118972003Y-93552310D01*
G37*
G36*
X114324318Y-93403958D02*
G01*
X114221834Y-93492717D01*
X114133736Y-93567090D01*
X114062753Y-93625340D01*
X114065543Y-93610987D01*
X114068949Y-93596716D01*
X114072968Y-93582546D01*
X114077595Y-93568496D01*
X114082826Y-93554585D01*
X114088659Y-93540833D01*
X114095088Y-93527260D01*
X114102110Y-93513884D01*
X114109721Y-93500725D01*
X114117918Y-93487803D01*
X114126696Y-93475136D01*
X114136051Y-93462745D01*
X114145980Y-93450648D01*
X114156479Y-93438865D01*
X114167543Y-93427416D01*
X114179170Y-93416319D01*
X114192779Y-93404228D01*
X114206806Y-93392765D01*
X114221237Y-93381937D01*
X114236055Y-93371753D01*
X114251246Y-93362220D01*
X114266792Y-93353346D01*
X114282680Y-93345139D01*
X114298894Y-93337605D01*
X114315417Y-93330754D01*
X114332235Y-93324593D01*
X114349333Y-93319130D01*
X114366693Y-93314372D01*
X114384302Y-93310327D01*
X114402143Y-93307003D01*
X114420202Y-93304407D01*
X114438461Y-93302548D01*
X114324318Y-93403958D01*
G37*
G36*
X114058247Y-93637029D02*
G01*
X114056634Y-93646258D01*
X114055270Y-93655612D01*
X114054154Y-93665027D01*
X114053286Y-93674443D01*
X114052665Y-93683796D01*
X114052293Y-93693026D01*
X114052169Y-93702069D01*
X114052169Y-94292089D01*
X113787586Y-94527568D01*
X113515065Y-94101589D01*
X113956920Y-93710007D01*
X113958790Y-93708141D01*
X113960475Y-93706493D01*
X113962036Y-93705030D01*
X113962789Y-93704359D01*
X113963535Y-93703723D01*
X113964280Y-93703117D01*
X113965033Y-93702539D01*
X113965802Y-93701984D01*
X113966594Y-93701449D01*
X113967417Y-93700929D01*
X113968278Y-93700420D01*
X113969186Y-93699920D01*
X113970149Y-93699423D01*
X113976019Y-93694586D01*
X113993300Y-93680571D01*
X114006064Y-93670355D01*
X114021495Y-93658123D01*
X114039530Y-93643969D01*
X114060107Y-93627986D01*
X114058247Y-93637029D01*
G37*
G36*
X114145978Y-89617517D02*
G01*
X114181361Y-89619341D01*
X114216558Y-89622344D01*
X114251600Y-89626493D01*
X114286517Y-89631759D01*
X114321342Y-89638110D01*
X114356105Y-89645515D01*
X114390836Y-89653944D01*
X114459739Y-89672808D01*
X114527448Y-89695590D01*
X114593824Y-89722178D01*
X114658727Y-89752460D01*
X114722018Y-89786323D01*
X114783556Y-89823654D01*
X114843204Y-89864343D01*
X114900821Y-89908275D01*
X114956267Y-89955338D01*
X115009403Y-90005421D01*
X115060090Y-90058411D01*
X115108188Y-90114195D01*
X115153557Y-90172661D01*
X115196058Y-90233697D01*
X115235552Y-90297189D01*
X115271899Y-90363027D01*
X115294003Y-90407078D01*
X115314666Y-90451885D01*
X115333872Y-90497397D01*
X115351604Y-90543564D01*
X115367849Y-90590336D01*
X115382590Y-90637662D01*
X115395811Y-90685491D01*
X115407498Y-90733775D01*
X115417634Y-90782461D01*
X115426205Y-90831500D01*
X115433194Y-90880841D01*
X115438586Y-90930434D01*
X115442366Y-90980229D01*
X115444519Y-91030175D01*
X115445028Y-91080222D01*
X115443878Y-91130319D01*
X115441232Y-91188527D01*
X115410236Y-91213601D01*
X115380791Y-91240167D01*
X115352958Y-91268168D01*
X115326800Y-91297544D01*
X115302377Y-91328238D01*
X115279753Y-91360191D01*
X115258990Y-91393346D01*
X115240149Y-91427644D01*
X115223292Y-91463028D01*
X115208481Y-91499438D01*
X115195779Y-91536818D01*
X115185248Y-91575108D01*
X115176948Y-91614251D01*
X115170944Y-91654189D01*
X115167295Y-91694862D01*
X115166065Y-91736214D01*
X115166065Y-91937298D01*
X115163584Y-91938755D01*
X115161099Y-91940150D01*
X115158606Y-91941484D01*
X115156102Y-91942755D01*
X115153582Y-91943964D01*
X115151043Y-91945111D01*
X115148480Y-91946196D01*
X115145891Y-91947220D01*
X115143270Y-91948181D01*
X115140614Y-91949080D01*
X115137920Y-91949917D01*
X115135183Y-91950692D01*
X115132400Y-91951406D01*
X115129566Y-91952057D01*
X115126678Y-91952646D01*
X115123732Y-91953173D01*
X115117193Y-91953544D01*
X115110492Y-91953659D01*
X115103652Y-91953510D01*
X115096695Y-91953090D01*
X115089645Y-91952392D01*
X115082525Y-91951406D01*
X115075359Y-91950126D01*
X115068170Y-91948543D01*
X115060980Y-91946650D01*
X115053814Y-91944440D01*
X115046695Y-91941904D01*
X115039645Y-91939034D01*
X115032688Y-91935824D01*
X115025847Y-91932265D01*
X115019146Y-91928349D01*
X115012608Y-91924069D01*
X115006313Y-91919451D01*
X115000329Y-91914535D01*
X114994655Y-91909331D01*
X114989291Y-91903853D01*
X114984237Y-91898111D01*
X114979494Y-91892117D01*
X114975060Y-91885883D01*
X114970936Y-91879420D01*
X114967122Y-91872741D01*
X114963619Y-91865855D01*
X114960425Y-91858776D01*
X114957541Y-91851515D01*
X114954968Y-91844083D01*
X114952704Y-91836493D01*
X114950751Y-91828755D01*
X114949108Y-91820881D01*
X114947805Y-91812916D01*
X114946875Y-91804908D01*
X114946317Y-91796877D01*
X114946131Y-91788842D01*
X114946317Y-91780822D01*
X114946875Y-91772838D01*
X114947805Y-91764907D01*
X114949108Y-91757051D01*
X114950782Y-91749287D01*
X114952828Y-91741636D01*
X114955247Y-91734116D01*
X114958038Y-91726748D01*
X114961200Y-91719550D01*
X114964735Y-91712542D01*
X114968642Y-91705743D01*
X114972920Y-91699173D01*
X114992264Y-91666532D01*
X115010592Y-91633136D01*
X115027882Y-91599034D01*
X115044110Y-91564277D01*
X115059252Y-91528915D01*
X115073286Y-91492999D01*
X115086189Y-91456580D01*
X115097936Y-91419707D01*
X115108505Y-91382431D01*
X115117873Y-91344802D01*
X115126016Y-91306871D01*
X115132910Y-91268688D01*
X115138534Y-91230303D01*
X115142863Y-91191767D01*
X115145875Y-91153131D01*
X115147545Y-91114444D01*
X115148384Y-91075696D01*
X115147933Y-91036878D01*
X115146202Y-90998044D01*
X115143205Y-90959249D01*
X115138951Y-90920547D01*
X115133453Y-90881993D01*
X115126723Y-90843640D01*
X115118772Y-90805543D01*
X115109612Y-90767756D01*
X115099254Y-90730333D01*
X115087710Y-90693329D01*
X115074991Y-90656797D01*
X115061111Y-90620793D01*
X115046078Y-90585370D01*
X115029907Y-90550583D01*
X115012608Y-90516485D01*
X114984476Y-90465714D01*
X114953748Y-90416652D01*
X114920555Y-90369396D01*
X114885029Y-90324042D01*
X114847301Y-90280689D01*
X114807504Y-90239433D01*
X114765769Y-90200370D01*
X114722227Y-90163597D01*
X114677012Y-90129213D01*
X114630254Y-90097312D01*
X114582085Y-90067993D01*
X114532637Y-90041352D01*
X114482042Y-90017486D01*
X114430431Y-89996491D01*
X114377937Y-89978466D01*
X114324691Y-89963506D01*
X114270768Y-89952184D01*
X114216263Y-89943993D01*
X114161340Y-89938903D01*
X114106162Y-89936883D01*
X114050890Y-89937901D01*
X113995688Y-89941926D01*
X113940718Y-89948928D01*
X113886144Y-89958876D01*
X113832128Y-89971738D01*
X113778833Y-89987484D01*
X113726421Y-90006082D01*
X113675056Y-90027502D01*
X113624900Y-90051713D01*
X113576116Y-90078683D01*
X113528867Y-90108381D01*
X113483316Y-90140777D01*
X113477242Y-90145522D01*
X113470939Y-90149841D01*
X113464428Y-90153741D01*
X113457726Y-90157231D01*
X113450853Y-90160317D01*
X113443830Y-90163008D01*
X113436675Y-90165312D01*
X113429407Y-90167235D01*
X113422046Y-90168787D01*
X113414612Y-90169974D01*
X113407124Y-90170805D01*
X113399600Y-90171287D01*
X113392061Y-90171428D01*
X113384526Y-90171235D01*
X113377014Y-90170717D01*
X113369545Y-90169881D01*
X113362167Y-90168208D01*
X113354921Y-90166171D01*
X113347814Y-90163777D01*
X113340854Y-90161034D01*
X113334050Y-90157951D01*
X113327408Y-90154533D01*
X113320937Y-90150791D01*
X113314644Y-90146730D01*
X113308537Y-90142360D01*
X113302624Y-90137687D01*
X113296912Y-90132720D01*
X113291410Y-90127465D01*
X113286125Y-90121932D01*
X113281064Y-90116128D01*
X113276237Y-90110059D01*
X113271649Y-90103735D01*
X113267370Y-90097165D01*
X113263463Y-90090367D01*
X113259929Y-90083359D01*
X113256766Y-90076161D01*
X113253976Y-90068793D01*
X113251557Y-90061273D01*
X113249511Y-90053622D01*
X113247836Y-90045858D01*
X113246534Y-90038001D01*
X113245604Y-90030071D01*
X113245046Y-90022086D01*
X113244860Y-90014067D01*
X113245046Y-90006032D01*
X113245604Y-89998000D01*
X113246534Y-89989992D01*
X113247837Y-89982027D01*
X113249480Y-89974154D01*
X113251433Y-89966416D01*
X113253697Y-89958825D01*
X113256270Y-89951393D01*
X113259154Y-89944132D01*
X113262347Y-89937053D01*
X113265851Y-89930168D01*
X113269665Y-89923488D01*
X113273789Y-89917025D01*
X113278222Y-89910791D01*
X113282966Y-89904797D01*
X113288020Y-89899056D01*
X113293384Y-89893577D01*
X113299058Y-89888374D01*
X113305042Y-89883458D01*
X113311337Y-89878840D01*
X113355570Y-89847063D01*
X113400907Y-89817231D01*
X113447276Y-89789368D01*
X113494602Y-89763498D01*
X113542811Y-89739643D01*
X113591831Y-89717826D01*
X113641587Y-89698072D01*
X113692006Y-89680402D01*
X113743014Y-89664841D01*
X113794537Y-89651412D01*
X113846502Y-89640137D01*
X113898835Y-89631041D01*
X113951463Y-89624146D01*
X114004312Y-89619476D01*
X114057309Y-89617053D01*
X114110378Y-89616902D01*
X114145978Y-89617517D01*
G37*
G36*
X114221169Y-88696514D02*
G01*
X114333187Y-88705440D01*
X114443654Y-88720143D01*
X114552440Y-88740481D01*
X114659411Y-88766310D01*
X114764437Y-88797489D01*
X114867385Y-88833875D01*
X114968125Y-88875325D01*
X115066523Y-88921698D01*
X115162449Y-88972850D01*
X115255770Y-89028640D01*
X115346355Y-89088924D01*
X115434072Y-89153561D01*
X115518789Y-89222408D01*
X115600374Y-89295323D01*
X115678696Y-89372163D01*
X115753623Y-89452785D01*
X115825023Y-89537048D01*
X115892764Y-89624809D01*
X115956715Y-89715925D01*
X116016744Y-89810254D01*
X116072719Y-89907653D01*
X116124507Y-90007981D01*
X116171979Y-90111095D01*
X116215001Y-90216851D01*
X116253441Y-90325109D01*
X116287169Y-90435724D01*
X116316053Y-90548556D01*
X116339960Y-90663462D01*
X116358758Y-90780298D01*
X116372317Y-90898923D01*
X116380504Y-91019194D01*
X115901608Y-91019194D01*
X115894059Y-90924838D01*
X115882393Y-90831844D01*
X115866708Y-90740321D01*
X115847105Y-90650374D01*
X115823682Y-90562112D01*
X115796539Y-90475640D01*
X115765775Y-90391067D01*
X115731489Y-90308499D01*
X115693781Y-90228043D01*
X115652750Y-90149806D01*
X115608496Y-90073896D01*
X115561117Y-90000419D01*
X115510713Y-89929483D01*
X115457384Y-89861195D01*
X115401228Y-89795661D01*
X115342345Y-89732989D01*
X115280834Y-89673285D01*
X115216795Y-89616658D01*
X115150327Y-89563213D01*
X115081529Y-89513059D01*
X115010500Y-89466301D01*
X114937341Y-89423048D01*
X114862149Y-89383406D01*
X114785025Y-89347482D01*
X114706068Y-89315384D01*
X114625376Y-89287218D01*
X114543051Y-89263091D01*
X114459190Y-89243111D01*
X114373892Y-89227385D01*
X114287259Y-89216019D01*
X114199388Y-89209122D01*
X114110379Y-89206798D01*
X114022345Y-89209114D01*
X113934942Y-89216018D01*
X113848307Y-89227448D01*
X113762576Y-89243344D01*
X113677882Y-89263643D01*
X113594364Y-89288282D01*
X113512155Y-89317200D01*
X113431392Y-89350335D01*
X113352210Y-89387625D01*
X113274745Y-89429007D01*
X113199133Y-89474420D01*
X113125509Y-89523802D01*
X113054008Y-89577091D01*
X112984768Y-89634225D01*
X112917922Y-89695141D01*
X112853608Y-89759778D01*
X112844992Y-89768458D01*
X112836028Y-89776634D01*
X112826737Y-89784299D01*
X112817145Y-89791445D01*
X112807273Y-89798063D01*
X112797146Y-89804147D01*
X112786786Y-89809688D01*
X112776217Y-89814679D01*
X112765462Y-89819111D01*
X112754544Y-89822978D01*
X112743487Y-89826271D01*
X112732313Y-89828983D01*
X112721046Y-89831105D01*
X112709710Y-89832631D01*
X112698327Y-89833552D01*
X112686920Y-89833861D01*
X112675078Y-89833552D01*
X112663372Y-89832631D01*
X112651812Y-89831105D01*
X112640412Y-89828983D01*
X112629182Y-89826271D01*
X112618134Y-89822978D01*
X112607280Y-89819111D01*
X112596631Y-89814679D01*
X112586200Y-89809688D01*
X112575997Y-89804147D01*
X112566034Y-89798063D01*
X112556324Y-89791445D01*
X112546877Y-89784299D01*
X112537705Y-89776634D01*
X112528820Y-89768458D01*
X112520233Y-89759778D01*
X112455889Y-89695141D01*
X112388959Y-89634225D01*
X112319588Y-89577091D01*
X112247919Y-89523802D01*
X112174094Y-89474420D01*
X112098259Y-89429007D01*
X112020555Y-89387625D01*
X111941126Y-89350335D01*
X111860116Y-89317200D01*
X111777668Y-89288282D01*
X111693926Y-89263643D01*
X111609033Y-89243344D01*
X111523132Y-89227448D01*
X111436366Y-89216018D01*
X111348880Y-89209114D01*
X111260816Y-89206798D01*
X111168135Y-89209305D01*
X111076697Y-89216746D01*
X110986613Y-89229001D01*
X110897996Y-89245949D01*
X110810956Y-89267470D01*
X110725605Y-89293444D01*
X110642054Y-89323752D01*
X110560414Y-89358272D01*
X110480798Y-89396886D01*
X110403317Y-89439472D01*
X110328081Y-89485910D01*
X110255203Y-89536081D01*
X110184794Y-89589864D01*
X110116965Y-89647138D01*
X110051827Y-89707785D01*
X109989493Y-89771684D01*
X109930074Y-89838714D01*
X109873680Y-89908756D01*
X109820424Y-89981688D01*
X109770416Y-90057392D01*
X109723769Y-90135748D01*
X109680594Y-90216633D01*
X109641001Y-90299930D01*
X109605103Y-90385517D01*
X109573011Y-90473275D01*
X109544837Y-90563083D01*
X109520691Y-90654821D01*
X109500686Y-90748368D01*
X109484932Y-90843606D01*
X109473542Y-90940414D01*
X109466626Y-91038671D01*
X109464295Y-91138257D01*
X109465608Y-91181087D01*
X109469497Y-91225196D01*
X109484702Y-91316964D01*
X109509310Y-91412996D01*
X109542720Y-91512725D01*
X109584330Y-91615586D01*
X109633541Y-91721012D01*
X109689751Y-91828438D01*
X109752361Y-91937299D01*
X109820768Y-92047027D01*
X109894373Y-92157058D01*
X109972574Y-92266825D01*
X110054771Y-92375763D01*
X110140363Y-92483305D01*
X110228750Y-92588887D01*
X110319330Y-92691941D01*
X110411504Y-92791903D01*
X110503716Y-92888397D01*
X110595317Y-92981193D01*
X110773735Y-93154299D01*
X110940867Y-93308429D01*
X111090821Y-93440793D01*
X111217708Y-93548600D01*
X111315635Y-93629061D01*
X111401045Y-93696777D01*
X111402037Y-93697303D01*
X111403025Y-93697883D01*
X111404004Y-93698510D01*
X111404973Y-93699175D01*
X111405926Y-93699872D01*
X111406859Y-93700591D01*
X111407769Y-93701326D01*
X111408652Y-93702069D01*
X111410321Y-93703547D01*
X111411835Y-93704963D01*
X111414275Y-93707361D01*
X112684274Y-94845070D01*
X113372191Y-94231236D01*
X113644712Y-94657216D01*
X113237253Y-95019695D01*
X112131295Y-95019695D01*
X111107358Y-94104237D01*
X111009379Y-94026598D01*
X110906905Y-93942107D01*
X110775967Y-93830393D01*
X110621961Y-93693874D01*
X110537993Y-93617069D01*
X110450282Y-93534969D01*
X110359500Y-93447877D01*
X110266324Y-93356096D01*
X110171426Y-93259928D01*
X110075483Y-93159674D01*
X109878234Y-92943791D01*
X109780350Y-92831136D01*
X109684147Y-92715505D01*
X109590519Y-92597021D01*
X109500355Y-92475809D01*
X109414548Y-92351992D01*
X109333988Y-92225695D01*
X109259567Y-92097041D01*
X109192177Y-91966155D01*
X109132710Y-91833161D01*
X109082055Y-91698182D01*
X109060311Y-91629987D01*
X109041105Y-91561343D01*
X109024548Y-91492264D01*
X109010752Y-91422767D01*
X108999827Y-91352867D01*
X108991886Y-91282580D01*
X108987040Y-91211920D01*
X108985399Y-91140904D01*
X108988127Y-91015162D01*
X108996709Y-90891048D01*
X109011002Y-90768717D01*
X109030859Y-90648323D01*
X109056137Y-90530023D01*
X109086690Y-90413971D01*
X109122373Y-90300321D01*
X109163042Y-90189230D01*
X109208552Y-90080851D01*
X109258758Y-89975341D01*
X109313515Y-89872854D01*
X109372678Y-89773544D01*
X109436103Y-89677568D01*
X109503644Y-89585080D01*
X109575156Y-89496236D01*
X109650496Y-89411189D01*
X109729517Y-89330096D01*
X109812076Y-89253111D01*
X109898026Y-89180389D01*
X109987225Y-89112086D01*
X110079525Y-89048356D01*
X110174784Y-88989354D01*
X110272855Y-88935236D01*
X110373594Y-88886156D01*
X110476856Y-88842270D01*
X110582496Y-88803733D01*
X110690370Y-88770698D01*
X110800333Y-88743323D01*
X110912239Y-88721761D01*
X111025943Y-88706167D01*
X111141302Y-88696698D01*
X111258170Y-88693507D01*
X111356071Y-88695881D01*
X111453254Y-88702948D01*
X111549623Y-88714627D01*
X111645082Y-88730838D01*
X111739533Y-88751497D01*
X111832879Y-88776525D01*
X111925024Y-88805839D01*
X112015871Y-88839358D01*
X112105322Y-88877001D01*
X112193281Y-88918687D01*
X112279651Y-88964333D01*
X112364335Y-89013859D01*
X112447236Y-89067183D01*
X112528258Y-89124225D01*
X112607303Y-89184901D01*
X112684274Y-89249132D01*
X112760809Y-89184901D01*
X112839526Y-89124225D01*
X112920312Y-89067183D01*
X113003056Y-89013859D01*
X113087644Y-88964333D01*
X113173965Y-88918687D01*
X113261906Y-88877001D01*
X113351355Y-88839358D01*
X113442199Y-88805839D01*
X113534326Y-88776525D01*
X113627623Y-88751497D01*
X113721978Y-88730838D01*
X113817279Y-88714627D01*
X113913414Y-88702948D01*
X114010269Y-88695881D01*
X114107733Y-88693507D01*
X114221169Y-88696514D01*
G37*
G36*
X115171357Y-93289319D02*
G01*
X115134662Y-93326655D01*
X115098059Y-93363278D01*
X115025506Y-93434509D01*
X114885607Y-93569777D01*
X114879618Y-93555268D01*
X114873067Y-93541021D01*
X114865970Y-93527048D01*
X114858338Y-93513362D01*
X114850184Y-93499976D01*
X114841523Y-93486904D01*
X114832366Y-93474159D01*
X114822728Y-93461753D01*
X114812620Y-93449699D01*
X114802056Y-93438012D01*
X114791050Y-93426703D01*
X114779614Y-93415786D01*
X114767761Y-93405275D01*
X114755505Y-93395181D01*
X114742858Y-93385519D01*
X114729834Y-93376300D01*
X114716446Y-93367540D01*
X114702706Y-93359249D01*
X114688628Y-93351442D01*
X114674225Y-93344132D01*
X114659510Y-93337331D01*
X114644496Y-93331053D01*
X114629197Y-93325311D01*
X114613624Y-93320118D01*
X114597792Y-93315487D01*
X114581713Y-93311430D01*
X114565401Y-93307962D01*
X114548869Y-93305095D01*
X114532129Y-93302843D01*
X114515194Y-93301218D01*
X114498079Y-93300233D01*
X114480795Y-93299902D01*
X114470460Y-93299943D01*
X114465075Y-93300042D01*
X114459628Y-93300233D01*
X114454182Y-93300548D01*
X114448797Y-93301018D01*
X114443536Y-93301675D01*
X114440972Y-93302082D01*
X114438462Y-93302548D01*
X114560087Y-93190059D01*
X114623846Y-93129954D01*
X114689155Y-93067399D01*
X114755704Y-93002489D01*
X114823183Y-92935315D01*
X114891282Y-92865970D01*
X114959691Y-92794548D01*
X115013228Y-92736505D01*
X115066517Y-92677470D01*
X115119309Y-92617443D01*
X115145442Y-92587057D01*
X115171357Y-92556423D01*
X115171357Y-93289319D01*
G37*
G36*
X111252000Y-89662000D02*
G01*
X111267182Y-89662336D01*
X111297858Y-89663535D01*
X111328533Y-89665230D01*
X111358712Y-89667173D01*
X111399386Y-89671767D01*
X111440030Y-89677633D01*
X111480611Y-89684800D01*
X111521100Y-89693301D01*
X111561464Y-89703166D01*
X111601674Y-89714426D01*
X111641697Y-89727113D01*
X111681503Y-89741257D01*
X111755055Y-89770748D01*
X111826781Y-89804550D01*
X111896531Y-89842506D01*
X111964153Y-89884462D01*
X112029496Y-89930263D01*
X112092409Y-89979754D01*
X112152740Y-90032779D01*
X112210339Y-90089184D01*
X112265055Y-90148813D01*
X112316736Y-90211512D01*
X112365231Y-90277126D01*
X112410389Y-90345499D01*
X112452059Y-90416476D01*
X112490090Y-90489903D01*
X112524330Y-90565625D01*
X112554628Y-90643486D01*
X112557419Y-90650987D01*
X112559837Y-90658596D01*
X112561884Y-90666298D01*
X112563558Y-90674078D01*
X112564860Y-90681920D01*
X112565791Y-90689808D01*
X112566349Y-90697728D01*
X112566535Y-90705663D01*
X112566349Y-90713598D01*
X112565791Y-90721517D01*
X112564860Y-90729406D01*
X112563558Y-90737247D01*
X112561884Y-90745027D01*
X112559837Y-90752730D01*
X112557419Y-90760339D01*
X112554628Y-90767840D01*
X112551468Y-90775186D01*
X112547952Y-90782335D01*
X112544094Y-90789275D01*
X112539911Y-90795993D01*
X112535418Y-90802479D01*
X112530630Y-90808721D01*
X112525563Y-90814707D01*
X112520233Y-90820426D01*
X112514654Y-90825865D01*
X112508843Y-90831014D01*
X112502815Y-90835861D01*
X112496586Y-90840394D01*
X112490170Y-90844601D01*
X112483584Y-90848471D01*
X112476843Y-90851992D01*
X112469962Y-90855152D01*
X112462957Y-90857913D01*
X112455844Y-90860243D01*
X112448638Y-90862146D01*
X112441354Y-90863627D01*
X112434008Y-90864690D01*
X112426616Y-90865338D01*
X112419192Y-90865575D01*
X112411753Y-90865405D01*
X112404315Y-90864832D01*
X112396891Y-90863860D01*
X112389499Y-90862492D01*
X112382153Y-90860733D01*
X112374869Y-90858587D01*
X112367663Y-90856057D01*
X112360550Y-90853147D01*
X112353545Y-90849861D01*
X112346724Y-90846205D01*
X112340151Y-90842192D01*
X112333826Y-90837838D01*
X112327748Y-90833159D01*
X112321919Y-90828170D01*
X112316338Y-90822886D01*
X112311005Y-90817323D01*
X112305920Y-90811496D01*
X112301083Y-90805422D01*
X112296494Y-90799115D01*
X112292154Y-90792590D01*
X112288061Y-90785865D01*
X112284216Y-90778953D01*
X112280619Y-90771871D01*
X112277271Y-90764633D01*
X112274170Y-90757257D01*
X112250661Y-90696417D01*
X112223884Y-90637031D01*
X112193983Y-90579250D01*
X112161102Y-90523224D01*
X112125384Y-90469106D01*
X112086972Y-90417045D01*
X112046010Y-90367193D01*
X112002642Y-90319702D01*
X111957009Y-90274722D01*
X111909257Y-90232405D01*
X111859528Y-90192902D01*
X111807966Y-90156363D01*
X111754714Y-90122941D01*
X111699916Y-90092786D01*
X111643714Y-90066049D01*
X111586253Y-90042882D01*
X111524591Y-90023093D01*
X111461796Y-90007359D01*
X111398102Y-89995640D01*
X111333742Y-89987898D01*
X111268947Y-89984093D01*
X111203951Y-89984188D01*
X111138986Y-89988142D01*
X111074285Y-89995918D01*
X111010079Y-90007477D01*
X110946603Y-90022779D01*
X110884087Y-90041787D01*
X110822765Y-90064462D01*
X110762870Y-90090764D01*
X110704633Y-90120655D01*
X110648288Y-90154096D01*
X110594066Y-90191048D01*
X110587992Y-90195357D01*
X110581690Y-90199347D01*
X110575178Y-90203013D01*
X110568476Y-90206344D01*
X110561604Y-90209335D01*
X110554580Y-90211977D01*
X110547425Y-90214263D01*
X110540157Y-90216184D01*
X110532797Y-90217733D01*
X110525362Y-90218902D01*
X110517874Y-90219683D01*
X110510350Y-90220070D01*
X110502811Y-90220053D01*
X110495276Y-90219625D01*
X110487765Y-90218779D01*
X110480295Y-90217507D01*
X110473383Y-90215834D01*
X110466544Y-90213796D01*
X110459791Y-90211402D01*
X110453134Y-90208660D01*
X110446586Y-90205576D01*
X110440158Y-90202159D01*
X110433862Y-90198416D01*
X110427709Y-90194356D01*
X110421712Y-90189985D01*
X110415881Y-90185312D01*
X110410228Y-90180345D01*
X110404765Y-90175091D01*
X110399504Y-90169557D01*
X110394456Y-90163753D01*
X110389632Y-90157685D01*
X110385045Y-90151361D01*
X110380767Y-90144791D01*
X110376860Y-90137992D01*
X110373325Y-90130984D01*
X110370163Y-90123786D01*
X110367372Y-90116418D01*
X110364954Y-90108898D01*
X110362907Y-90101247D01*
X110361233Y-90093483D01*
X110359931Y-90085626D01*
X110359000Y-90077696D01*
X110358442Y-90069711D01*
X110358256Y-90061692D01*
X110358442Y-90053657D01*
X110359000Y-90045626D01*
X110359931Y-90037618D01*
X110361233Y-90029652D01*
X110362905Y-90021779D01*
X110364938Y-90014041D01*
X110367320Y-90006450D01*
X110370038Y-89999019D01*
X110373083Y-89991757D01*
X110376441Y-89984678D01*
X110380102Y-89977793D01*
X110384053Y-89971113D01*
X110388283Y-89964651D01*
X110392781Y-89958416D01*
X110397535Y-89952423D01*
X110402533Y-89946681D01*
X110407763Y-89941202D01*
X110413214Y-89935999D01*
X110418875Y-89931083D01*
X110424733Y-89926465D01*
X110469957Y-89894687D01*
X110516283Y-89864851D01*
X110563631Y-89836976D01*
X110611925Y-89811082D01*
X110661088Y-89787187D01*
X110711041Y-89765312D01*
X110761707Y-89745475D01*
X110813009Y-89727697D01*
X110864869Y-89711995D01*
X110917209Y-89698391D01*
X110969953Y-89686903D01*
X111023022Y-89677550D01*
X111076339Y-89670352D01*
X111129826Y-89665328D01*
X111183407Y-89662498D01*
X111237003Y-89661882D01*
X111252000Y-89662000D01*
G37*
G36*
X112835087Y-95371590D02*
G01*
X112826998Y-95378784D01*
X112818618Y-95385485D01*
X112809966Y-95391699D01*
X112801063Y-95397428D01*
X112791927Y-95402676D01*
X112782578Y-95407448D01*
X112773036Y-95411747D01*
X112763319Y-95415576D01*
X112753446Y-95418941D01*
X112743439Y-95421845D01*
X112733315Y-95424291D01*
X112723094Y-95426284D01*
X112712795Y-95427827D01*
X112702439Y-95428924D01*
X112692043Y-95429580D01*
X112681629Y-95429798D01*
X112671214Y-95429550D01*
X112660818Y-95428811D01*
X112650462Y-95427583D01*
X112640163Y-95425870D01*
X112629942Y-95423677D01*
X112619818Y-95421007D01*
X112609811Y-95417865D01*
X112599938Y-95414253D01*
X112590221Y-95410177D01*
X112580679Y-95405639D01*
X112571330Y-95400644D01*
X112562194Y-95395195D01*
X112553291Y-95389297D01*
X112544640Y-95382953D01*
X112536260Y-95376167D01*
X112528170Y-95368944D01*
X112335024Y-95196964D01*
X113028233Y-95196964D01*
X112835087Y-95371590D01*
G37*
D11*
X154543238Y-90808857D02*
X154638476Y-90761238D01*
X154638476Y-90761238D02*
X154733714Y-90666000D01*
X154733714Y-90666000D02*
X154876571Y-90523142D01*
X154876571Y-90523142D02*
X154971809Y-90475523D01*
X154971809Y-90475523D02*
X155067047Y-90475523D01*
X155019428Y-90713619D02*
X155114666Y-90666000D01*
X155114666Y-90666000D02*
X155209904Y-90570761D01*
X155209904Y-90570761D02*
X155257523Y-90380285D01*
X155257523Y-90380285D02*
X155257523Y-90046952D01*
X155257523Y-90046952D02*
X155209904Y-89856476D01*
X155209904Y-89856476D02*
X155114666Y-89761238D01*
X155114666Y-89761238D02*
X155019428Y-89713619D01*
X155019428Y-89713619D02*
X154828952Y-89713619D01*
X154828952Y-89713619D02*
X154733714Y-89761238D01*
X154733714Y-89761238D02*
X154638476Y-89856476D01*
X154638476Y-89856476D02*
X154590857Y-90046952D01*
X154590857Y-90046952D02*
X154590857Y-90380285D01*
X154590857Y-90380285D02*
X154638476Y-90570761D01*
X154638476Y-90570761D02*
X154733714Y-90666000D01*
X154733714Y-90666000D02*
X154828952Y-90713619D01*
X154828952Y-90713619D02*
X155019428Y-90713619D01*
X153590857Y-90713619D02*
X153924190Y-90237428D01*
X154162285Y-90713619D02*
X154162285Y-89713619D01*
X154162285Y-89713619D02*
X153781333Y-89713619D01*
X153781333Y-89713619D02*
X153686095Y-89761238D01*
X153686095Y-89761238D02*
X153638476Y-89808857D01*
X153638476Y-89808857D02*
X153590857Y-89904095D01*
X153590857Y-89904095D02*
X153590857Y-90046952D01*
X153590857Y-90046952D02*
X153638476Y-90142190D01*
X153638476Y-90142190D02*
X153686095Y-90189809D01*
X153686095Y-90189809D02*
X153781333Y-90237428D01*
X153781333Y-90237428D02*
X154162285Y-90237428D01*
X153162285Y-90713619D02*
X153162285Y-89713619D01*
X153162285Y-89713619D02*
X152781333Y-89713619D01*
X152781333Y-89713619D02*
X152686095Y-89761238D01*
X152686095Y-89761238D02*
X152638476Y-89808857D01*
X152638476Y-89808857D02*
X152590857Y-89904095D01*
X152590857Y-89904095D02*
X152590857Y-90046952D01*
X152590857Y-90046952D02*
X152638476Y-90142190D01*
X152638476Y-90142190D02*
X152686095Y-90189809D01*
X152686095Y-90189809D02*
X152781333Y-90237428D01*
X152781333Y-90237428D02*
X153162285Y-90237428D01*
X150924190Y-90713619D02*
X151400380Y-90713619D01*
X151400380Y-90713619D02*
X151400380Y-89713619D01*
X150447999Y-90713619D02*
X150543237Y-90666000D01*
X150543237Y-90666000D02*
X150590856Y-90618380D01*
X150590856Y-90618380D02*
X150638475Y-90523142D01*
X150638475Y-90523142D02*
X150638475Y-90237428D01*
X150638475Y-90237428D02*
X150590856Y-90142190D01*
X150590856Y-90142190D02*
X150543237Y-90094571D01*
X150543237Y-90094571D02*
X150447999Y-90046952D01*
X150447999Y-90046952D02*
X150305142Y-90046952D01*
X150305142Y-90046952D02*
X150209904Y-90094571D01*
X150209904Y-90094571D02*
X150162285Y-90142190D01*
X150162285Y-90142190D02*
X150114666Y-90237428D01*
X150114666Y-90237428D02*
X150114666Y-90523142D01*
X150114666Y-90523142D02*
X150162285Y-90618380D01*
X150162285Y-90618380D02*
X150209904Y-90666000D01*
X150209904Y-90666000D02*
X150305142Y-90713619D01*
X150305142Y-90713619D02*
X150447999Y-90713619D01*
X149781332Y-90046952D02*
X149590856Y-90713619D01*
X149590856Y-90713619D02*
X149400380Y-90237428D01*
X149400380Y-90237428D02*
X149209904Y-90713619D01*
X149209904Y-90713619D02*
X149019428Y-90046952D01*
X147876570Y-90713619D02*
X147876570Y-89713619D01*
X147876570Y-89713619D02*
X147495618Y-89713619D01*
X147495618Y-89713619D02*
X147400380Y-89761238D01*
X147400380Y-89761238D02*
X147352761Y-89808857D01*
X147352761Y-89808857D02*
X147305142Y-89904095D01*
X147305142Y-89904095D02*
X147305142Y-90046952D01*
X147305142Y-90046952D02*
X147352761Y-90142190D01*
X147352761Y-90142190D02*
X147400380Y-90189809D01*
X147400380Y-90189809D02*
X147495618Y-90237428D01*
X147495618Y-90237428D02*
X147876570Y-90237428D01*
X146447999Y-90713619D02*
X146447999Y-90189809D01*
X146447999Y-90189809D02*
X146495618Y-90094571D01*
X146495618Y-90094571D02*
X146590856Y-90046952D01*
X146590856Y-90046952D02*
X146781332Y-90046952D01*
X146781332Y-90046952D02*
X146876570Y-90094571D01*
X146447999Y-90666000D02*
X146543237Y-90713619D01*
X146543237Y-90713619D02*
X146781332Y-90713619D01*
X146781332Y-90713619D02*
X146876570Y-90666000D01*
X146876570Y-90666000D02*
X146924189Y-90570761D01*
X146924189Y-90570761D02*
X146924189Y-90475523D01*
X146924189Y-90475523D02*
X146876570Y-90380285D01*
X146876570Y-90380285D02*
X146781332Y-90332666D01*
X146781332Y-90332666D02*
X146543237Y-90332666D01*
X146543237Y-90332666D02*
X146447999Y-90285047D01*
X146019427Y-90666000D02*
X145924189Y-90713619D01*
X145924189Y-90713619D02*
X145733713Y-90713619D01*
X145733713Y-90713619D02*
X145638475Y-90666000D01*
X145638475Y-90666000D02*
X145590856Y-90570761D01*
X145590856Y-90570761D02*
X145590856Y-90523142D01*
X145590856Y-90523142D02*
X145638475Y-90427904D01*
X145638475Y-90427904D02*
X145733713Y-90380285D01*
X145733713Y-90380285D02*
X145876570Y-90380285D01*
X145876570Y-90380285D02*
X145971808Y-90332666D01*
X145971808Y-90332666D02*
X146019427Y-90237428D01*
X146019427Y-90237428D02*
X146019427Y-90189809D01*
X146019427Y-90189809D02*
X145971808Y-90094571D01*
X145971808Y-90094571D02*
X145876570Y-90046952D01*
X145876570Y-90046952D02*
X145733713Y-90046952D01*
X145733713Y-90046952D02*
X145638475Y-90094571D01*
X145209903Y-90666000D02*
X145114665Y-90713619D01*
X145114665Y-90713619D02*
X144924189Y-90713619D01*
X144924189Y-90713619D02*
X144828951Y-90666000D01*
X144828951Y-90666000D02*
X144781332Y-90570761D01*
X144781332Y-90570761D02*
X144781332Y-90523142D01*
X144781332Y-90523142D02*
X144828951Y-90427904D01*
X144828951Y-90427904D02*
X144924189Y-90380285D01*
X144924189Y-90380285D02*
X145067046Y-90380285D01*
X145067046Y-90380285D02*
X145162284Y-90332666D01*
X145162284Y-90332666D02*
X145209903Y-90237428D01*
X145209903Y-90237428D02*
X145209903Y-90189809D01*
X145209903Y-90189809D02*
X145162284Y-90094571D01*
X145162284Y-90094571D02*
X145067046Y-90046952D01*
X145067046Y-90046952D02*
X144924189Y-90046952D01*
X144924189Y-90046952D02*
X144828951Y-90094571D01*
X143257522Y-90189809D02*
X143590855Y-90189809D01*
X143590855Y-90713619D02*
X143590855Y-89713619D01*
X143590855Y-89713619D02*
X143114665Y-89713619D01*
X142733712Y-90713619D02*
X142733712Y-90046952D01*
X142733712Y-89713619D02*
X142781331Y-89761238D01*
X142781331Y-89761238D02*
X142733712Y-89808857D01*
X142733712Y-89808857D02*
X142686093Y-89761238D01*
X142686093Y-89761238D02*
X142733712Y-89713619D01*
X142733712Y-89713619D02*
X142733712Y-89808857D01*
X142114665Y-90713619D02*
X142209903Y-90666000D01*
X142209903Y-90666000D02*
X142257522Y-90570761D01*
X142257522Y-90570761D02*
X142257522Y-89713619D01*
X141876569Y-90046952D02*
X141495617Y-90046952D01*
X141733712Y-89713619D02*
X141733712Y-90570761D01*
X141733712Y-90570761D02*
X141686093Y-90666000D01*
X141686093Y-90666000D02*
X141590855Y-90713619D01*
X141590855Y-90713619D02*
X141495617Y-90713619D01*
X140781331Y-90666000D02*
X140876569Y-90713619D01*
X140876569Y-90713619D02*
X141067045Y-90713619D01*
X141067045Y-90713619D02*
X141162283Y-90666000D01*
X141162283Y-90666000D02*
X141209902Y-90570761D01*
X141209902Y-90570761D02*
X141209902Y-90189809D01*
X141209902Y-90189809D02*
X141162283Y-90094571D01*
X141162283Y-90094571D02*
X141067045Y-90046952D01*
X141067045Y-90046952D02*
X140876569Y-90046952D01*
X140876569Y-90046952D02*
X140781331Y-90094571D01*
X140781331Y-90094571D02*
X140733712Y-90189809D01*
X140733712Y-90189809D02*
X140733712Y-90285047D01*
X140733712Y-90285047D02*
X141209902Y-90380285D01*
X140305140Y-90713619D02*
X140305140Y-90046952D01*
X140305140Y-90237428D02*
X140257521Y-90142190D01*
X140257521Y-90142190D02*
X140209902Y-90094571D01*
X140209902Y-90094571D02*
X140114664Y-90046952D01*
X140114664Y-90046952D02*
X140019426Y-90046952D01*
X138924187Y-90713619D02*
X138924187Y-89713619D01*
X138924187Y-89713619D02*
X138686092Y-89713619D01*
X138686092Y-89713619D02*
X138543235Y-89761238D01*
X138543235Y-89761238D02*
X138447997Y-89856476D01*
X138447997Y-89856476D02*
X138400378Y-89951714D01*
X138400378Y-89951714D02*
X138352759Y-90142190D01*
X138352759Y-90142190D02*
X138352759Y-90285047D01*
X138352759Y-90285047D02*
X138400378Y-90475523D01*
X138400378Y-90475523D02*
X138447997Y-90570761D01*
X138447997Y-90570761D02*
X138543235Y-90666000D01*
X138543235Y-90666000D02*
X138686092Y-90713619D01*
X138686092Y-90713619D02*
X138924187Y-90713619D01*
X137495616Y-90713619D02*
X137495616Y-90189809D01*
X137495616Y-90189809D02*
X137543235Y-90094571D01*
X137543235Y-90094571D02*
X137638473Y-90046952D01*
X137638473Y-90046952D02*
X137828949Y-90046952D01*
X137828949Y-90046952D02*
X137924187Y-90094571D01*
X137495616Y-90666000D02*
X137590854Y-90713619D01*
X137590854Y-90713619D02*
X137828949Y-90713619D01*
X137828949Y-90713619D02*
X137924187Y-90666000D01*
X137924187Y-90666000D02*
X137971806Y-90570761D01*
X137971806Y-90570761D02*
X137971806Y-90475523D01*
X137971806Y-90475523D02*
X137924187Y-90380285D01*
X137924187Y-90380285D02*
X137828949Y-90332666D01*
X137828949Y-90332666D02*
X137590854Y-90332666D01*
X137590854Y-90332666D02*
X137495616Y-90285047D01*
X136590854Y-90046952D02*
X136590854Y-90713619D01*
X137019425Y-90046952D02*
X137019425Y-90570761D01*
X137019425Y-90570761D02*
X136971806Y-90666000D01*
X136971806Y-90666000D02*
X136876568Y-90713619D01*
X136876568Y-90713619D02*
X136733711Y-90713619D01*
X136733711Y-90713619D02*
X136638473Y-90666000D01*
X136638473Y-90666000D02*
X136590854Y-90618380D01*
X135686092Y-90046952D02*
X135686092Y-90856476D01*
X135686092Y-90856476D02*
X135733711Y-90951714D01*
X135733711Y-90951714D02*
X135781330Y-90999333D01*
X135781330Y-90999333D02*
X135876568Y-91046952D01*
X135876568Y-91046952D02*
X136019425Y-91046952D01*
X136019425Y-91046952D02*
X136114663Y-90999333D01*
X135686092Y-90666000D02*
X135781330Y-90713619D01*
X135781330Y-90713619D02*
X135971806Y-90713619D01*
X135971806Y-90713619D02*
X136067044Y-90666000D01*
X136067044Y-90666000D02*
X136114663Y-90618380D01*
X136114663Y-90618380D02*
X136162282Y-90523142D01*
X136162282Y-90523142D02*
X136162282Y-90237428D01*
X136162282Y-90237428D02*
X136114663Y-90142190D01*
X136114663Y-90142190D02*
X136067044Y-90094571D01*
X136067044Y-90094571D02*
X135971806Y-90046952D01*
X135971806Y-90046952D02*
X135781330Y-90046952D01*
X135781330Y-90046952D02*
X135686092Y-90094571D01*
X135209901Y-90713619D02*
X135209901Y-89713619D01*
X134781330Y-90713619D02*
X134781330Y-90189809D01*
X134781330Y-90189809D02*
X134828949Y-90094571D01*
X134828949Y-90094571D02*
X134924187Y-90046952D01*
X134924187Y-90046952D02*
X135067044Y-90046952D01*
X135067044Y-90046952D02*
X135162282Y-90094571D01*
X135162282Y-90094571D02*
X135209901Y-90142190D01*
X134447996Y-90046952D02*
X134067044Y-90046952D01*
X134305139Y-89713619D02*
X134305139Y-90570761D01*
X134305139Y-90570761D02*
X134257520Y-90666000D01*
X134257520Y-90666000D02*
X134162282Y-90713619D01*
X134162282Y-90713619D02*
X134067044Y-90713619D01*
X133352758Y-90666000D02*
X133447996Y-90713619D01*
X133447996Y-90713619D02*
X133638472Y-90713619D01*
X133638472Y-90713619D02*
X133733710Y-90666000D01*
X133733710Y-90666000D02*
X133781329Y-90570761D01*
X133781329Y-90570761D02*
X133781329Y-90189809D01*
X133781329Y-90189809D02*
X133733710Y-90094571D01*
X133733710Y-90094571D02*
X133638472Y-90046952D01*
X133638472Y-90046952D02*
X133447996Y-90046952D01*
X133447996Y-90046952D02*
X133352758Y-90094571D01*
X133352758Y-90094571D02*
X133305139Y-90189809D01*
X133305139Y-90189809D02*
X133305139Y-90285047D01*
X133305139Y-90285047D02*
X133781329Y-90380285D01*
X132876567Y-90713619D02*
X132876567Y-90046952D01*
X132876567Y-90237428D02*
X132828948Y-90142190D01*
X132828948Y-90142190D02*
X132781329Y-90094571D01*
X132781329Y-90094571D02*
X132686091Y-90046952D01*
X132686091Y-90046952D02*
X132590853Y-90046952D01*
X131162281Y-90189809D02*
X131019424Y-90237428D01*
X131019424Y-90237428D02*
X130971805Y-90285047D01*
X130971805Y-90285047D02*
X130924186Y-90380285D01*
X130924186Y-90380285D02*
X130924186Y-90523142D01*
X130924186Y-90523142D02*
X130971805Y-90618380D01*
X130971805Y-90618380D02*
X131019424Y-90666000D01*
X131019424Y-90666000D02*
X131114662Y-90713619D01*
X131114662Y-90713619D02*
X131495614Y-90713619D01*
X131495614Y-90713619D02*
X131495614Y-89713619D01*
X131495614Y-89713619D02*
X131162281Y-89713619D01*
X131162281Y-89713619D02*
X131067043Y-89761238D01*
X131067043Y-89761238D02*
X131019424Y-89808857D01*
X131019424Y-89808857D02*
X130971805Y-89904095D01*
X130971805Y-89904095D02*
X130971805Y-89999333D01*
X130971805Y-89999333D02*
X131019424Y-90094571D01*
X131019424Y-90094571D02*
X131067043Y-90142190D01*
X131067043Y-90142190D02*
X131162281Y-90189809D01*
X131162281Y-90189809D02*
X131495614Y-90189809D01*
X130352757Y-90713619D02*
X130447995Y-90666000D01*
X130447995Y-90666000D02*
X130495614Y-90618380D01*
X130495614Y-90618380D02*
X130543233Y-90523142D01*
X130543233Y-90523142D02*
X130543233Y-90237428D01*
X130543233Y-90237428D02*
X130495614Y-90142190D01*
X130495614Y-90142190D02*
X130447995Y-90094571D01*
X130447995Y-90094571D02*
X130352757Y-90046952D01*
X130352757Y-90046952D02*
X130209900Y-90046952D01*
X130209900Y-90046952D02*
X130114662Y-90094571D01*
X130114662Y-90094571D02*
X130067043Y-90142190D01*
X130067043Y-90142190D02*
X130019424Y-90237428D01*
X130019424Y-90237428D02*
X130019424Y-90523142D01*
X130019424Y-90523142D02*
X130067043Y-90618380D01*
X130067043Y-90618380D02*
X130114662Y-90666000D01*
X130114662Y-90666000D02*
X130209900Y-90713619D01*
X130209900Y-90713619D02*
X130352757Y-90713619D01*
X129162281Y-90713619D02*
X129162281Y-90189809D01*
X129162281Y-90189809D02*
X129209900Y-90094571D01*
X129209900Y-90094571D02*
X129305138Y-90046952D01*
X129305138Y-90046952D02*
X129495614Y-90046952D01*
X129495614Y-90046952D02*
X129590852Y-90094571D01*
X129162281Y-90666000D02*
X129257519Y-90713619D01*
X129257519Y-90713619D02*
X129495614Y-90713619D01*
X129495614Y-90713619D02*
X129590852Y-90666000D01*
X129590852Y-90666000D02*
X129638471Y-90570761D01*
X129638471Y-90570761D02*
X129638471Y-90475523D01*
X129638471Y-90475523D02*
X129590852Y-90380285D01*
X129590852Y-90380285D02*
X129495614Y-90332666D01*
X129495614Y-90332666D02*
X129257519Y-90332666D01*
X129257519Y-90332666D02*
X129162281Y-90285047D01*
X128686090Y-90713619D02*
X128686090Y-90046952D01*
X128686090Y-90237428D02*
X128638471Y-90142190D01*
X128638471Y-90142190D02*
X128590852Y-90094571D01*
X128590852Y-90094571D02*
X128495614Y-90046952D01*
X128495614Y-90046952D02*
X128400376Y-90046952D01*
X127638471Y-90713619D02*
X127638471Y-89713619D01*
X127638471Y-90666000D02*
X127733709Y-90713619D01*
X127733709Y-90713619D02*
X127924185Y-90713619D01*
X127924185Y-90713619D02*
X128019423Y-90666000D01*
X128019423Y-90666000D02*
X128067042Y-90618380D01*
X128067042Y-90618380D02*
X128114661Y-90523142D01*
X128114661Y-90523142D02*
X128114661Y-90237428D01*
X128114661Y-90237428D02*
X128067042Y-90142190D01*
X128067042Y-90142190D02*
X128019423Y-90094571D01*
X128019423Y-90094571D02*
X127924185Y-90046952D01*
X127924185Y-90046952D02*
X127733709Y-90046952D01*
X127733709Y-90046952D02*
X127638471Y-90094571D01*
X126543232Y-89713619D02*
X126209899Y-90713619D01*
X126209899Y-90713619D02*
X125876566Y-89713619D01*
X125352756Y-89713619D02*
X125257518Y-89713619D01*
X125257518Y-89713619D02*
X125162280Y-89761238D01*
X125162280Y-89761238D02*
X125114661Y-89808857D01*
X125114661Y-89808857D02*
X125067042Y-89904095D01*
X125067042Y-89904095D02*
X125019423Y-90094571D01*
X125019423Y-90094571D02*
X125019423Y-90332666D01*
X125019423Y-90332666D02*
X125067042Y-90523142D01*
X125067042Y-90523142D02*
X125114661Y-90618380D01*
X125114661Y-90618380D02*
X125162280Y-90666000D01*
X125162280Y-90666000D02*
X125257518Y-90713619D01*
X125257518Y-90713619D02*
X125352756Y-90713619D01*
X125352756Y-90713619D02*
X125447994Y-90666000D01*
X125447994Y-90666000D02*
X125495613Y-90618380D01*
X125495613Y-90618380D02*
X125543232Y-90523142D01*
X125543232Y-90523142D02*
X125590851Y-90332666D01*
X125590851Y-90332666D02*
X125590851Y-90094571D01*
X125590851Y-90094571D02*
X125543232Y-89904095D01*
X125543232Y-89904095D02*
X125495613Y-89808857D01*
X125495613Y-89808857D02*
X125447994Y-89761238D01*
X125447994Y-89761238D02*
X125352756Y-89713619D01*
X124067042Y-90713619D02*
X124638470Y-90713619D01*
X124352756Y-90713619D02*
X124352756Y-89713619D01*
X124352756Y-89713619D02*
X124447994Y-89856476D01*
X124447994Y-89856476D02*
X124543232Y-89951714D01*
X124543232Y-89951714D02*
X124638470Y-89999333D01*
X155209904Y-92333619D02*
X155209904Y-91666952D01*
X155209904Y-91333619D02*
X155257523Y-91381238D01*
X155257523Y-91381238D02*
X155209904Y-91428857D01*
X155209904Y-91428857D02*
X155162285Y-91381238D01*
X155162285Y-91381238D02*
X155209904Y-91333619D01*
X155209904Y-91333619D02*
X155209904Y-91428857D01*
X154590857Y-92333619D02*
X154686095Y-92286000D01*
X154686095Y-92286000D02*
X154733714Y-92190761D01*
X154733714Y-92190761D02*
X154733714Y-91333619D01*
X154067047Y-92333619D02*
X154162285Y-92286000D01*
X154162285Y-92286000D02*
X154209904Y-92238380D01*
X154209904Y-92238380D02*
X154257523Y-92143142D01*
X154257523Y-92143142D02*
X154257523Y-91857428D01*
X154257523Y-91857428D02*
X154209904Y-91762190D01*
X154209904Y-91762190D02*
X154162285Y-91714571D01*
X154162285Y-91714571D02*
X154067047Y-91666952D01*
X154067047Y-91666952D02*
X153924190Y-91666952D01*
X153924190Y-91666952D02*
X153828952Y-91714571D01*
X153828952Y-91714571D02*
X153781333Y-91762190D01*
X153781333Y-91762190D02*
X153733714Y-91857428D01*
X153733714Y-91857428D02*
X153733714Y-92143142D01*
X153733714Y-92143142D02*
X153781333Y-92238380D01*
X153781333Y-92238380D02*
X153828952Y-92286000D01*
X153828952Y-92286000D02*
X153924190Y-92333619D01*
X153924190Y-92333619D02*
X154067047Y-92333619D01*
X153400380Y-91666952D02*
X153162285Y-92333619D01*
X153162285Y-92333619D02*
X152924190Y-91666952D01*
X152162285Y-92286000D02*
X152257523Y-92333619D01*
X152257523Y-92333619D02*
X152447999Y-92333619D01*
X152447999Y-92333619D02*
X152543237Y-92286000D01*
X152543237Y-92286000D02*
X152590856Y-92190761D01*
X152590856Y-92190761D02*
X152590856Y-91809809D01*
X152590856Y-91809809D02*
X152543237Y-91714571D01*
X152543237Y-91714571D02*
X152447999Y-91666952D01*
X152447999Y-91666952D02*
X152257523Y-91666952D01*
X152257523Y-91666952D02*
X152162285Y-91714571D01*
X152162285Y-91714571D02*
X152114666Y-91809809D01*
X152114666Y-91809809D02*
X152114666Y-91905047D01*
X152114666Y-91905047D02*
X152590856Y-92000285D01*
X151686094Y-92333619D02*
X151686094Y-91333619D01*
X151257523Y-92333619D02*
X151257523Y-91809809D01*
X151257523Y-91809809D02*
X151305142Y-91714571D01*
X151305142Y-91714571D02*
X151400380Y-91666952D01*
X151400380Y-91666952D02*
X151543237Y-91666952D01*
X151543237Y-91666952D02*
X151638475Y-91714571D01*
X151638475Y-91714571D02*
X151686094Y-91762190D01*
X150352761Y-92333619D02*
X150352761Y-91809809D01*
X150352761Y-91809809D02*
X150400380Y-91714571D01*
X150400380Y-91714571D02*
X150495618Y-91666952D01*
X150495618Y-91666952D02*
X150686094Y-91666952D01*
X150686094Y-91666952D02*
X150781332Y-91714571D01*
X150352761Y-92286000D02*
X150447999Y-92333619D01*
X150447999Y-92333619D02*
X150686094Y-92333619D01*
X150686094Y-92333619D02*
X150781332Y-92286000D01*
X150781332Y-92286000D02*
X150828951Y-92190761D01*
X150828951Y-92190761D02*
X150828951Y-92095523D01*
X150828951Y-92095523D02*
X150781332Y-92000285D01*
X150781332Y-92000285D02*
X150686094Y-91952666D01*
X150686094Y-91952666D02*
X150447999Y-91952666D01*
X150447999Y-91952666D02*
X150352761Y-91905047D01*
X149876570Y-92333619D02*
X149876570Y-91666952D01*
X149876570Y-91762190D02*
X149828951Y-91714571D01*
X149828951Y-91714571D02*
X149733713Y-91666952D01*
X149733713Y-91666952D02*
X149590856Y-91666952D01*
X149590856Y-91666952D02*
X149495618Y-91714571D01*
X149495618Y-91714571D02*
X149447999Y-91809809D01*
X149447999Y-91809809D02*
X149447999Y-92333619D01*
X149447999Y-91809809D02*
X149400380Y-91714571D01*
X149400380Y-91714571D02*
X149305142Y-91666952D01*
X149305142Y-91666952D02*
X149162285Y-91666952D01*
X149162285Y-91666952D02*
X149067046Y-91714571D01*
X149067046Y-91714571D02*
X149019427Y-91809809D01*
X149019427Y-91809809D02*
X149019427Y-92333619D01*
X148543237Y-92333619D02*
X148543237Y-91666952D01*
X148543237Y-91857428D02*
X148495618Y-91762190D01*
X148495618Y-91762190D02*
X148447999Y-91714571D01*
X148447999Y-91714571D02*
X148352761Y-91666952D01*
X148352761Y-91666952D02*
X148257523Y-91666952D01*
X147495618Y-92333619D02*
X147495618Y-91809809D01*
X147495618Y-91809809D02*
X147543237Y-91714571D01*
X147543237Y-91714571D02*
X147638475Y-91666952D01*
X147638475Y-91666952D02*
X147828951Y-91666952D01*
X147828951Y-91666952D02*
X147924189Y-91714571D01*
X147495618Y-92286000D02*
X147590856Y-92333619D01*
X147590856Y-92333619D02*
X147828951Y-92333619D01*
X147828951Y-92333619D02*
X147924189Y-92286000D01*
X147924189Y-92286000D02*
X147971808Y-92190761D01*
X147971808Y-92190761D02*
X147971808Y-92095523D01*
X147971808Y-92095523D02*
X147924189Y-92000285D01*
X147924189Y-92000285D02*
X147828951Y-91952666D01*
X147828951Y-91952666D02*
X147590856Y-91952666D01*
X147590856Y-91952666D02*
X147495618Y-91905047D01*
X146590856Y-92333619D02*
X146590856Y-91333619D01*
X146590856Y-92286000D02*
X146686094Y-92333619D01*
X146686094Y-92333619D02*
X146876570Y-92333619D01*
X146876570Y-92333619D02*
X146971808Y-92286000D01*
X146971808Y-92286000D02*
X147019427Y-92238380D01*
X147019427Y-92238380D02*
X147067046Y-92143142D01*
X147067046Y-92143142D02*
X147067046Y-91857428D01*
X147067046Y-91857428D02*
X147019427Y-91762190D01*
X147019427Y-91762190D02*
X146971808Y-91714571D01*
X146971808Y-91714571D02*
X146876570Y-91666952D01*
X146876570Y-91666952D02*
X146686094Y-91666952D01*
X146686094Y-91666952D02*
X146590856Y-91714571D01*
X146114665Y-92333619D02*
X146114665Y-91666952D01*
X146114665Y-91333619D02*
X146162284Y-91381238D01*
X146162284Y-91381238D02*
X146114665Y-91428857D01*
X146114665Y-91428857D02*
X146067046Y-91381238D01*
X146067046Y-91381238D02*
X146114665Y-91333619D01*
X146114665Y-91333619D02*
X146114665Y-91428857D01*
X145495618Y-92333619D02*
X145590856Y-92286000D01*
X145590856Y-92286000D02*
X145638475Y-92238380D01*
X145638475Y-92238380D02*
X145686094Y-92143142D01*
X145686094Y-92143142D02*
X145686094Y-91857428D01*
X145686094Y-91857428D02*
X145638475Y-91762190D01*
X145638475Y-91762190D02*
X145590856Y-91714571D01*
X145590856Y-91714571D02*
X145495618Y-91666952D01*
X145495618Y-91666952D02*
X145352761Y-91666952D01*
X145352761Y-91666952D02*
X145257523Y-91714571D01*
X145257523Y-91714571D02*
X145209904Y-91762190D01*
X145209904Y-91762190D02*
X145162285Y-91857428D01*
X145162285Y-91857428D02*
X145162285Y-92143142D01*
X145162285Y-92143142D02*
X145209904Y-92238380D01*
X145209904Y-92238380D02*
X145257523Y-92286000D01*
X145257523Y-92286000D02*
X145352761Y-92333619D01*
X145352761Y-92333619D02*
X145495618Y-92333619D01*
X144733713Y-92238380D02*
X144686094Y-92286000D01*
X144686094Y-92286000D02*
X144733713Y-92333619D01*
X144733713Y-92333619D02*
X144781332Y-92286000D01*
X144781332Y-92286000D02*
X144733713Y-92238380D01*
X144733713Y-92238380D02*
X144733713Y-92333619D01*
X143828952Y-92286000D02*
X143924190Y-92333619D01*
X143924190Y-92333619D02*
X144114666Y-92333619D01*
X144114666Y-92333619D02*
X144209904Y-92286000D01*
X144209904Y-92286000D02*
X144257523Y-92238380D01*
X144257523Y-92238380D02*
X144305142Y-92143142D01*
X144305142Y-92143142D02*
X144305142Y-91857428D01*
X144305142Y-91857428D02*
X144257523Y-91762190D01*
X144257523Y-91762190D02*
X144209904Y-91714571D01*
X144209904Y-91714571D02*
X144114666Y-91666952D01*
X144114666Y-91666952D02*
X143924190Y-91666952D01*
X143924190Y-91666952D02*
X143828952Y-91714571D01*
X143257523Y-92333619D02*
X143352761Y-92286000D01*
X143352761Y-92286000D02*
X143400380Y-92238380D01*
X143400380Y-92238380D02*
X143447999Y-92143142D01*
X143447999Y-92143142D02*
X143447999Y-91857428D01*
X143447999Y-91857428D02*
X143400380Y-91762190D01*
X143400380Y-91762190D02*
X143352761Y-91714571D01*
X143352761Y-91714571D02*
X143257523Y-91666952D01*
X143257523Y-91666952D02*
X143114666Y-91666952D01*
X143114666Y-91666952D02*
X143019428Y-91714571D01*
X143019428Y-91714571D02*
X142971809Y-91762190D01*
X142971809Y-91762190D02*
X142924190Y-91857428D01*
X142924190Y-91857428D02*
X142924190Y-92143142D01*
X142924190Y-92143142D02*
X142971809Y-92238380D01*
X142971809Y-92238380D02*
X143019428Y-92286000D01*
X143019428Y-92286000D02*
X143114666Y-92333619D01*
X143114666Y-92333619D02*
X143257523Y-92333619D01*
X142495618Y-92333619D02*
X142495618Y-91666952D01*
X142495618Y-91762190D02*
X142447999Y-91714571D01*
X142447999Y-91714571D02*
X142352761Y-91666952D01*
X142352761Y-91666952D02*
X142209904Y-91666952D01*
X142209904Y-91666952D02*
X142114666Y-91714571D01*
X142114666Y-91714571D02*
X142067047Y-91809809D01*
X142067047Y-91809809D02*
X142067047Y-92333619D01*
X142067047Y-91809809D02*
X142019428Y-91714571D01*
X142019428Y-91714571D02*
X141924190Y-91666952D01*
X141924190Y-91666952D02*
X141781333Y-91666952D01*
X141781333Y-91666952D02*
X141686094Y-91714571D01*
X141686094Y-91714571D02*
X141638475Y-91809809D01*
X141638475Y-91809809D02*
X141638475Y-92333619D01*
%TO.C,J1*%
X110061333Y-93204619D02*
X110061333Y-93918904D01*
X110061333Y-93918904D02*
X110108952Y-94061761D01*
X110108952Y-94061761D02*
X110204190Y-94157000D01*
X110204190Y-94157000D02*
X110347047Y-94204619D01*
X110347047Y-94204619D02*
X110442285Y-94204619D01*
X109061333Y-94204619D02*
X109632761Y-94204619D01*
X109347047Y-94204619D02*
X109347047Y-93204619D01*
X109347047Y-93204619D02*
X109442285Y-93347476D01*
X109442285Y-93347476D02*
X109537523Y-93442714D01*
X109537523Y-93442714D02*
X109632761Y-93490333D01*
%TO.C,J2*%
X154003333Y-93188619D02*
X154003333Y-93902904D01*
X154003333Y-93902904D02*
X154050952Y-94045761D01*
X154050952Y-94045761D02*
X154146190Y-94141000D01*
X154146190Y-94141000D02*
X154289047Y-94188619D01*
X154289047Y-94188619D02*
X154384285Y-94188619D01*
X153574761Y-93283857D02*
X153527142Y-93236238D01*
X153527142Y-93236238D02*
X153431904Y-93188619D01*
X153431904Y-93188619D02*
X153193809Y-93188619D01*
X153193809Y-93188619D02*
X153098571Y-93236238D01*
X153098571Y-93236238D02*
X153050952Y-93283857D01*
X153050952Y-93283857D02*
X153003333Y-93379095D01*
X153003333Y-93379095D02*
X153003333Y-93474333D01*
X153003333Y-93474333D02*
X153050952Y-93617190D01*
X153050952Y-93617190D02*
X153622380Y-94188619D01*
X153622380Y-94188619D02*
X153003333Y-94188619D01*
D12*
%TO.C,J1*%
X110423000Y-96835000D02*
X110423000Y-94960000D01*
X110336276Y-96835000D02*
X110423000Y-96835000D01*
X110122493Y-94960000D02*
X110423000Y-94960000D01*
X109033000Y-98205000D02*
X109728000Y-98205000D01*
X109033000Y-97520000D02*
X109033000Y-98205000D01*
X109033000Y-96835000D02*
X109119724Y-96835000D01*
X109033000Y-96835000D02*
X109033000Y-94960000D01*
X109033000Y-94960000D02*
X109333507Y-94960000D01*
%TO.C,J2*%
X152975000Y-94960000D02*
X153275507Y-94960000D01*
X152975000Y-96835000D02*
X152975000Y-94960000D01*
X152975000Y-96835000D02*
X153061724Y-96835000D01*
X152975000Y-97520000D02*
X152975000Y-98205000D01*
X152975000Y-98205000D02*
X153670000Y-98205000D01*
X154064493Y-94960000D02*
X154365000Y-94960000D01*
X154278276Y-96835000D02*
X154365000Y-96835000D01*
X154365000Y-96835000D02*
X154365000Y-94960000D01*
%TD*%
M02*
