%TF.GenerationSoftware,KiCad,Pcbnew,7.0.2*%
%TF.CreationDate,2023-08-02T20:43:25-05:00*%
%TF.ProjectId,Session6,53657373-696f-46e3-962e-6b696361645f,rev?*%
%TF.SameCoordinates,Original*%
%TF.FileFunction,Drillmap*%
%TF.FilePolarity,Positive*%
%FSLAX45Y45*%
G04 Gerber Fmt 4.5, Leading zero omitted, Abs format (unit mm)*
G04 Created by KiCad (PCBNEW 7.0.2) date 2023-08-02 20:43:25*
%MOMM*%
%LPD*%
G01*
G04 APERTURE LIST*
%ADD10C,0.100000*%
%ADD11C,0.200000*%
G04 APERTURE END LIST*
D10*
X9652000Y-6858000D02*
X14033500Y-6858000D01*
X14033500Y-8826500D01*
X9652000Y-8826500D01*
X9652000Y-6858000D01*
D11*
X9894619Y-9144024D02*
X9894619Y-8944024D01*
X9894619Y-8944024D02*
X9942238Y-8944024D01*
X9942238Y-8944024D02*
X9970810Y-8953548D01*
X9970810Y-8953548D02*
X9989857Y-8972595D01*
X9989857Y-8972595D02*
X9999381Y-8991643D01*
X9999381Y-8991643D02*
X10008905Y-9029738D01*
X10008905Y-9029738D02*
X10008905Y-9058310D01*
X10008905Y-9058310D02*
X9999381Y-9096405D01*
X9999381Y-9096405D02*
X9989857Y-9115452D01*
X9989857Y-9115452D02*
X9970810Y-9134500D01*
X9970810Y-9134500D02*
X9942238Y-9144024D01*
X9942238Y-9144024D02*
X9894619Y-9144024D01*
X10094619Y-9144024D02*
X10094619Y-9010690D01*
X10094619Y-9048786D02*
X10104143Y-9029738D01*
X10104143Y-9029738D02*
X10113667Y-9020214D01*
X10113667Y-9020214D02*
X10132714Y-9010690D01*
X10132714Y-9010690D02*
X10151762Y-9010690D01*
X10218429Y-9144024D02*
X10218429Y-9010690D01*
X10218429Y-8944024D02*
X10208905Y-8953548D01*
X10208905Y-8953548D02*
X10218429Y-8963071D01*
X10218429Y-8963071D02*
X10227952Y-8953548D01*
X10227952Y-8953548D02*
X10218429Y-8944024D01*
X10218429Y-8944024D02*
X10218429Y-8963071D01*
X10342238Y-9144024D02*
X10323190Y-9134500D01*
X10323190Y-9134500D02*
X10313667Y-9115452D01*
X10313667Y-9115452D02*
X10313667Y-8944024D01*
X10447000Y-9144024D02*
X10427952Y-9134500D01*
X10427952Y-9134500D02*
X10418429Y-9115452D01*
X10418429Y-9115452D02*
X10418429Y-8944024D01*
X10675571Y-9144024D02*
X10675571Y-8944024D01*
X10675571Y-8944024D02*
X10742238Y-9086881D01*
X10742238Y-9086881D02*
X10808905Y-8944024D01*
X10808905Y-8944024D02*
X10808905Y-9144024D01*
X10989857Y-9144024D02*
X10989857Y-9039262D01*
X10989857Y-9039262D02*
X10980333Y-9020214D01*
X10980333Y-9020214D02*
X10961286Y-9010690D01*
X10961286Y-9010690D02*
X10923190Y-9010690D01*
X10923190Y-9010690D02*
X10904143Y-9020214D01*
X10989857Y-9134500D02*
X10970810Y-9144024D01*
X10970810Y-9144024D02*
X10923190Y-9144024D01*
X10923190Y-9144024D02*
X10904143Y-9134500D01*
X10904143Y-9134500D02*
X10894619Y-9115452D01*
X10894619Y-9115452D02*
X10894619Y-9096405D01*
X10894619Y-9096405D02*
X10904143Y-9077357D01*
X10904143Y-9077357D02*
X10923190Y-9067833D01*
X10923190Y-9067833D02*
X10970810Y-9067833D01*
X10970810Y-9067833D02*
X10989857Y-9058310D01*
X11085095Y-9010690D02*
X11085095Y-9210690D01*
X11085095Y-9020214D02*
X11104143Y-9010690D01*
X11104143Y-9010690D02*
X11142238Y-9010690D01*
X11142238Y-9010690D02*
X11161286Y-9020214D01*
X11161286Y-9020214D02*
X11170810Y-9029738D01*
X11170810Y-9029738D02*
X11180333Y-9048786D01*
X11180333Y-9048786D02*
X11180333Y-9105929D01*
X11180333Y-9105929D02*
X11170810Y-9124976D01*
X11170810Y-9124976D02*
X11161286Y-9134500D01*
X11161286Y-9134500D02*
X11142238Y-9144024D01*
X11142238Y-9144024D02*
X11104143Y-9144024D01*
X11104143Y-9144024D02*
X11085095Y-9134500D01*
X11266048Y-9124976D02*
X11275571Y-9134500D01*
X11275571Y-9134500D02*
X11266048Y-9144024D01*
X11266048Y-9144024D02*
X11256524Y-9134500D01*
X11256524Y-9134500D02*
X11266048Y-9124976D01*
X11266048Y-9124976D02*
X11266048Y-9144024D01*
X11266048Y-9020214D02*
X11275571Y-9029738D01*
X11275571Y-9029738D02*
X11266048Y-9039262D01*
X11266048Y-9039262D02*
X11256524Y-9029738D01*
X11256524Y-9029738D02*
X11266048Y-9020214D01*
X11266048Y-9020214D02*
X11266048Y-9039262D01*
M02*
