%TF.GenerationSoftware,KiCad,Pcbnew,7.0.2*%
%TF.CreationDate,2023-08-02T20:43:25-05:00*%
%TF.ProjectId,Session6,53657373-696f-46e3-962e-6b696361645f,rev?*%
%TF.SameCoordinates,Original*%
%TF.FileFunction,Drillmap*%
%TF.FilePolarity,Positive*%
%FSLAX45Y45*%
G04 Gerber Fmt 4.5, Leading zero omitted, Abs format (unit mm)*
G04 Created by KiCad (PCBNEW 7.0.2) date 2023-08-02 20:43:25*
%MOMM*%
%LPD*%
G01*
G04 APERTURE LIST*
%ADD10C,0.100000*%
%ADD11C,0.200000*%
%ADD12C,0.080000*%
G04 APERTURE END LIST*
D10*
X9652000Y-6858000D02*
X14033500Y-6858000D01*
X14033500Y-8826500D01*
X9652000Y-8826500D01*
X9652000Y-6858000D01*
D11*
D12*
X10818500Y-7580000D02*
X10898500Y-7660000D01*
X10898500Y-7580000D02*
X10818500Y-7660000D01*
X10818500Y-8342000D02*
X10898500Y-8422000D01*
X10898500Y-8342000D02*
X10818500Y-8422000D01*
X11390000Y-7834000D02*
X11470000Y-7914000D01*
X11470000Y-7834000D02*
X11390000Y-7914000D01*
X12152000Y-7834000D02*
X12232000Y-7914000D01*
X12232000Y-7834000D02*
X12152000Y-7914000D01*
X12757750Y-7580000D02*
X12837750Y-7660000D01*
X12837750Y-7580000D02*
X12757750Y-7660000D01*
X12757750Y-8342000D02*
X12837750Y-8422000D01*
X12837750Y-8342000D02*
X12757750Y-8422000D01*
D10*
X9956000Y-7366000D02*
G75*
G03*
X9956000Y-7366000I-50000J0D01*
G01*
X9956000Y-7620000D02*
G75*
G03*
X9956000Y-7620000I-50000J0D01*
G01*
X9956000Y-7874000D02*
G75*
G03*
X9956000Y-7874000I-50000J0D01*
G01*
X9956000Y-8128000D02*
G75*
G03*
X9956000Y-8128000I-50000J0D01*
G01*
X13766000Y-7366000D02*
G75*
G03*
X13766000Y-7366000I-50000J0D01*
G01*
X13766000Y-7620000D02*
G75*
G03*
X13766000Y-7620000I-50000J0D01*
G01*
X13766000Y-7874000D02*
G75*
G03*
X13766000Y-7874000I-50000J0D01*
G01*
X13766000Y-8128000D02*
G75*
G03*
X13766000Y-8128000I-50000J0D01*
G01*
D11*
X9894619Y-9144024D02*
X9894619Y-8944024D01*
X9894619Y-8944024D02*
X9942238Y-8944024D01*
X9942238Y-8944024D02*
X9970810Y-8953548D01*
X9970810Y-8953548D02*
X9989857Y-8972595D01*
X9989857Y-8972595D02*
X9999381Y-8991643D01*
X9999381Y-8991643D02*
X10008905Y-9029738D01*
X10008905Y-9029738D02*
X10008905Y-9058310D01*
X10008905Y-9058310D02*
X9999381Y-9096405D01*
X9999381Y-9096405D02*
X9989857Y-9115452D01*
X9989857Y-9115452D02*
X9970810Y-9134500D01*
X9970810Y-9134500D02*
X9942238Y-9144024D01*
X9942238Y-9144024D02*
X9894619Y-9144024D01*
X10094619Y-9144024D02*
X10094619Y-9010690D01*
X10094619Y-9048786D02*
X10104143Y-9029738D01*
X10104143Y-9029738D02*
X10113667Y-9020214D01*
X10113667Y-9020214D02*
X10132714Y-9010690D01*
X10132714Y-9010690D02*
X10151762Y-9010690D01*
X10218429Y-9144024D02*
X10218429Y-9010690D01*
X10218429Y-8944024D02*
X10208905Y-8953548D01*
X10208905Y-8953548D02*
X10218429Y-8963071D01*
X10218429Y-8963071D02*
X10227952Y-8953548D01*
X10227952Y-8953548D02*
X10218429Y-8944024D01*
X10218429Y-8944024D02*
X10218429Y-8963071D01*
X10342238Y-9144024D02*
X10323190Y-9134500D01*
X10323190Y-9134500D02*
X10313667Y-9115452D01*
X10313667Y-9115452D02*
X10313667Y-8944024D01*
X10447000Y-9144024D02*
X10427952Y-9134500D01*
X10427952Y-9134500D02*
X10418429Y-9115452D01*
X10418429Y-9115452D02*
X10418429Y-8944024D01*
X10675571Y-9144024D02*
X10675571Y-8944024D01*
X10675571Y-8944024D02*
X10742238Y-9086881D01*
X10742238Y-9086881D02*
X10808905Y-8944024D01*
X10808905Y-8944024D02*
X10808905Y-9144024D01*
X10989857Y-9144024D02*
X10989857Y-9039262D01*
X10989857Y-9039262D02*
X10980333Y-9020214D01*
X10980333Y-9020214D02*
X10961286Y-9010690D01*
X10961286Y-9010690D02*
X10923190Y-9010690D01*
X10923190Y-9010690D02*
X10904143Y-9020214D01*
X10989857Y-9134500D02*
X10970810Y-9144024D01*
X10970810Y-9144024D02*
X10923190Y-9144024D01*
X10923190Y-9144024D02*
X10904143Y-9134500D01*
X10904143Y-9134500D02*
X10894619Y-9115452D01*
X10894619Y-9115452D02*
X10894619Y-9096405D01*
X10894619Y-9096405D02*
X10904143Y-9077357D01*
X10904143Y-9077357D02*
X10923190Y-9067833D01*
X10923190Y-9067833D02*
X10970810Y-9067833D01*
X10970810Y-9067833D02*
X10989857Y-9058310D01*
X11085095Y-9010690D02*
X11085095Y-9210690D01*
X11085095Y-9020214D02*
X11104143Y-9010690D01*
X11104143Y-9010690D02*
X11142238Y-9010690D01*
X11142238Y-9010690D02*
X11161286Y-9020214D01*
X11161286Y-9020214D02*
X11170810Y-9029738D01*
X11170810Y-9029738D02*
X11180333Y-9048786D01*
X11180333Y-9048786D02*
X11180333Y-9105929D01*
X11180333Y-9105929D02*
X11170810Y-9124976D01*
X11170810Y-9124976D02*
X11161286Y-9134500D01*
X11161286Y-9134500D02*
X11142238Y-9144024D01*
X11142238Y-9144024D02*
X11104143Y-9144024D01*
X11104143Y-9144024D02*
X11085095Y-9134500D01*
X11266048Y-9124976D02*
X11275571Y-9134500D01*
X11275571Y-9134500D02*
X11266048Y-9144024D01*
X11266048Y-9144024D02*
X11256524Y-9134500D01*
X11256524Y-9134500D02*
X11266048Y-9124976D01*
X11266048Y-9124976D02*
X11266048Y-9144024D01*
X11266048Y-9020214D02*
X11275571Y-9029738D01*
X11275571Y-9029738D02*
X11266048Y-9039262D01*
X11266048Y-9039262D02*
X11256524Y-9029738D01*
X11256524Y-9029738D02*
X11266048Y-9020214D01*
X11266048Y-9020214D02*
X11266048Y-9039262D01*
D12*
X9567000Y-9431500D02*
X9647000Y-9511500D01*
X9647000Y-9431500D02*
X9567000Y-9511500D01*
D11*
X9932714Y-9364024D02*
X9951762Y-9364024D01*
X9951762Y-9364024D02*
X9970810Y-9373548D01*
X9970810Y-9373548D02*
X9980333Y-9383071D01*
X9980333Y-9383071D02*
X9989857Y-9402119D01*
X9989857Y-9402119D02*
X9999381Y-9440214D01*
X9999381Y-9440214D02*
X9999381Y-9487833D01*
X9999381Y-9487833D02*
X9989857Y-9525929D01*
X9989857Y-9525929D02*
X9980333Y-9544976D01*
X9980333Y-9544976D02*
X9970810Y-9554500D01*
X9970810Y-9554500D02*
X9951762Y-9564024D01*
X9951762Y-9564024D02*
X9932714Y-9564024D01*
X9932714Y-9564024D02*
X9913667Y-9554500D01*
X9913667Y-9554500D02*
X9904143Y-9544976D01*
X9904143Y-9544976D02*
X9894619Y-9525929D01*
X9894619Y-9525929D02*
X9885095Y-9487833D01*
X9885095Y-9487833D02*
X9885095Y-9440214D01*
X9885095Y-9440214D02*
X9894619Y-9402119D01*
X9894619Y-9402119D02*
X9904143Y-9383071D01*
X9904143Y-9383071D02*
X9913667Y-9373548D01*
X9913667Y-9373548D02*
X9932714Y-9364024D01*
X10085095Y-9544976D02*
X10094619Y-9554500D01*
X10094619Y-9554500D02*
X10085095Y-9564024D01*
X10085095Y-9564024D02*
X10075571Y-9554500D01*
X10075571Y-9554500D02*
X10085095Y-9544976D01*
X10085095Y-9544976D02*
X10085095Y-9564024D01*
X10208905Y-9449738D02*
X10189857Y-9440214D01*
X10189857Y-9440214D02*
X10180333Y-9430690D01*
X10180333Y-9430690D02*
X10170810Y-9411643D01*
X10170810Y-9411643D02*
X10170810Y-9402119D01*
X10170810Y-9402119D02*
X10180333Y-9383071D01*
X10180333Y-9383071D02*
X10189857Y-9373548D01*
X10189857Y-9373548D02*
X10208905Y-9364024D01*
X10208905Y-9364024D02*
X10247000Y-9364024D01*
X10247000Y-9364024D02*
X10266048Y-9373548D01*
X10266048Y-9373548D02*
X10275571Y-9383071D01*
X10275571Y-9383071D02*
X10285095Y-9402119D01*
X10285095Y-9402119D02*
X10285095Y-9411643D01*
X10285095Y-9411643D02*
X10275571Y-9430690D01*
X10275571Y-9430690D02*
X10266048Y-9440214D01*
X10266048Y-9440214D02*
X10247000Y-9449738D01*
X10247000Y-9449738D02*
X10208905Y-9449738D01*
X10208905Y-9449738D02*
X10189857Y-9459262D01*
X10189857Y-9459262D02*
X10180333Y-9468786D01*
X10180333Y-9468786D02*
X10170810Y-9487833D01*
X10170810Y-9487833D02*
X10170810Y-9525929D01*
X10170810Y-9525929D02*
X10180333Y-9544976D01*
X10180333Y-9544976D02*
X10189857Y-9554500D01*
X10189857Y-9554500D02*
X10208905Y-9564024D01*
X10208905Y-9564024D02*
X10247000Y-9564024D01*
X10247000Y-9564024D02*
X10266048Y-9554500D01*
X10266048Y-9554500D02*
X10275571Y-9544976D01*
X10275571Y-9544976D02*
X10285095Y-9525929D01*
X10285095Y-9525929D02*
X10285095Y-9487833D01*
X10285095Y-9487833D02*
X10275571Y-9468786D01*
X10275571Y-9468786D02*
X10266048Y-9459262D01*
X10266048Y-9459262D02*
X10247000Y-9449738D01*
X10408905Y-9364024D02*
X10427952Y-9364024D01*
X10427952Y-9364024D02*
X10447000Y-9373548D01*
X10447000Y-9373548D02*
X10456524Y-9383071D01*
X10456524Y-9383071D02*
X10466048Y-9402119D01*
X10466048Y-9402119D02*
X10475571Y-9440214D01*
X10475571Y-9440214D02*
X10475571Y-9487833D01*
X10475571Y-9487833D02*
X10466048Y-9525929D01*
X10466048Y-9525929D02*
X10456524Y-9544976D01*
X10456524Y-9544976D02*
X10447000Y-9554500D01*
X10447000Y-9554500D02*
X10427952Y-9564024D01*
X10427952Y-9564024D02*
X10408905Y-9564024D01*
X10408905Y-9564024D02*
X10389857Y-9554500D01*
X10389857Y-9554500D02*
X10380333Y-9544976D01*
X10380333Y-9544976D02*
X10370810Y-9525929D01*
X10370810Y-9525929D02*
X10361286Y-9487833D01*
X10361286Y-9487833D02*
X10361286Y-9440214D01*
X10361286Y-9440214D02*
X10370810Y-9402119D01*
X10370810Y-9402119D02*
X10380333Y-9383071D01*
X10380333Y-9383071D02*
X10389857Y-9373548D01*
X10389857Y-9373548D02*
X10408905Y-9364024D01*
X10599381Y-9364024D02*
X10618429Y-9364024D01*
X10618429Y-9364024D02*
X10637476Y-9373548D01*
X10637476Y-9373548D02*
X10647000Y-9383071D01*
X10647000Y-9383071D02*
X10656524Y-9402119D01*
X10656524Y-9402119D02*
X10666048Y-9440214D01*
X10666048Y-9440214D02*
X10666048Y-9487833D01*
X10666048Y-9487833D02*
X10656524Y-9525929D01*
X10656524Y-9525929D02*
X10647000Y-9544976D01*
X10647000Y-9544976D02*
X10637476Y-9554500D01*
X10637476Y-9554500D02*
X10618429Y-9564024D01*
X10618429Y-9564024D02*
X10599381Y-9564024D01*
X10599381Y-9564024D02*
X10580333Y-9554500D01*
X10580333Y-9554500D02*
X10570810Y-9544976D01*
X10570810Y-9544976D02*
X10561286Y-9525929D01*
X10561286Y-9525929D02*
X10551762Y-9487833D01*
X10551762Y-9487833D02*
X10551762Y-9440214D01*
X10551762Y-9440214D02*
X10561286Y-9402119D01*
X10561286Y-9402119D02*
X10570810Y-9383071D01*
X10570810Y-9383071D02*
X10580333Y-9373548D01*
X10580333Y-9373548D02*
X10599381Y-9364024D01*
X10751762Y-9564024D02*
X10751762Y-9430690D01*
X10751762Y-9449738D02*
X10761286Y-9440214D01*
X10761286Y-9440214D02*
X10780333Y-9430690D01*
X10780333Y-9430690D02*
X10808905Y-9430690D01*
X10808905Y-9430690D02*
X10827952Y-9440214D01*
X10827952Y-9440214D02*
X10837476Y-9459262D01*
X10837476Y-9459262D02*
X10837476Y-9564024D01*
X10837476Y-9459262D02*
X10847000Y-9440214D01*
X10847000Y-9440214D02*
X10866048Y-9430690D01*
X10866048Y-9430690D02*
X10894619Y-9430690D01*
X10894619Y-9430690D02*
X10913667Y-9440214D01*
X10913667Y-9440214D02*
X10923191Y-9459262D01*
X10923191Y-9459262D02*
X10923191Y-9564024D01*
X11018429Y-9564024D02*
X11018429Y-9430690D01*
X11018429Y-9449738D02*
X11027952Y-9440214D01*
X11027952Y-9440214D02*
X11047000Y-9430690D01*
X11047000Y-9430690D02*
X11075572Y-9430690D01*
X11075572Y-9430690D02*
X11094619Y-9440214D01*
X11094619Y-9440214D02*
X11104143Y-9459262D01*
X11104143Y-9459262D02*
X11104143Y-9564024D01*
X11104143Y-9459262D02*
X11113667Y-9440214D01*
X11113667Y-9440214D02*
X11132714Y-9430690D01*
X11132714Y-9430690D02*
X11161286Y-9430690D01*
X11161286Y-9430690D02*
X11180333Y-9440214D01*
X11180333Y-9440214D02*
X11189857Y-9459262D01*
X11189857Y-9459262D02*
X11189857Y-9564024D01*
X11580333Y-9354500D02*
X11408905Y-9611643D01*
X11837476Y-9364024D02*
X11856524Y-9364024D01*
X11856524Y-9364024D02*
X11875572Y-9373548D01*
X11875572Y-9373548D02*
X11885095Y-9383071D01*
X11885095Y-9383071D02*
X11894619Y-9402119D01*
X11894619Y-9402119D02*
X11904143Y-9440214D01*
X11904143Y-9440214D02*
X11904143Y-9487833D01*
X11904143Y-9487833D02*
X11894619Y-9525929D01*
X11894619Y-9525929D02*
X11885095Y-9544976D01*
X11885095Y-9544976D02*
X11875572Y-9554500D01*
X11875572Y-9554500D02*
X11856524Y-9564024D01*
X11856524Y-9564024D02*
X11837476Y-9564024D01*
X11837476Y-9564024D02*
X11818429Y-9554500D01*
X11818429Y-9554500D02*
X11808905Y-9544976D01*
X11808905Y-9544976D02*
X11799381Y-9525929D01*
X11799381Y-9525929D02*
X11789857Y-9487833D01*
X11789857Y-9487833D02*
X11789857Y-9440214D01*
X11789857Y-9440214D02*
X11799381Y-9402119D01*
X11799381Y-9402119D02*
X11808905Y-9383071D01*
X11808905Y-9383071D02*
X11818429Y-9373548D01*
X11818429Y-9373548D02*
X11837476Y-9364024D01*
X11989857Y-9544976D02*
X11999381Y-9554500D01*
X11999381Y-9554500D02*
X11989857Y-9564024D01*
X11989857Y-9564024D02*
X11980333Y-9554500D01*
X11980333Y-9554500D02*
X11989857Y-9544976D01*
X11989857Y-9544976D02*
X11989857Y-9564024D01*
X12123191Y-9364024D02*
X12142238Y-9364024D01*
X12142238Y-9364024D02*
X12161286Y-9373548D01*
X12161286Y-9373548D02*
X12170810Y-9383071D01*
X12170810Y-9383071D02*
X12180333Y-9402119D01*
X12180333Y-9402119D02*
X12189857Y-9440214D01*
X12189857Y-9440214D02*
X12189857Y-9487833D01*
X12189857Y-9487833D02*
X12180333Y-9525929D01*
X12180333Y-9525929D02*
X12170810Y-9544976D01*
X12170810Y-9544976D02*
X12161286Y-9554500D01*
X12161286Y-9554500D02*
X12142238Y-9564024D01*
X12142238Y-9564024D02*
X12123191Y-9564024D01*
X12123191Y-9564024D02*
X12104143Y-9554500D01*
X12104143Y-9554500D02*
X12094619Y-9544976D01*
X12094619Y-9544976D02*
X12085095Y-9525929D01*
X12085095Y-9525929D02*
X12075572Y-9487833D01*
X12075572Y-9487833D02*
X12075572Y-9440214D01*
X12075572Y-9440214D02*
X12085095Y-9402119D01*
X12085095Y-9402119D02*
X12094619Y-9383071D01*
X12094619Y-9383071D02*
X12104143Y-9373548D01*
X12104143Y-9373548D02*
X12123191Y-9364024D01*
X12256524Y-9364024D02*
X12380333Y-9364024D01*
X12380333Y-9364024D02*
X12313667Y-9440214D01*
X12313667Y-9440214D02*
X12342238Y-9440214D01*
X12342238Y-9440214D02*
X12361286Y-9449738D01*
X12361286Y-9449738D02*
X12370810Y-9459262D01*
X12370810Y-9459262D02*
X12380333Y-9478310D01*
X12380333Y-9478310D02*
X12380333Y-9525929D01*
X12380333Y-9525929D02*
X12370810Y-9544976D01*
X12370810Y-9544976D02*
X12361286Y-9554500D01*
X12361286Y-9554500D02*
X12342238Y-9564024D01*
X12342238Y-9564024D02*
X12285095Y-9564024D01*
X12285095Y-9564024D02*
X12266048Y-9554500D01*
X12266048Y-9554500D02*
X12256524Y-9544976D01*
X12570810Y-9564024D02*
X12456524Y-9564024D01*
X12513667Y-9564024D02*
X12513667Y-9364024D01*
X12513667Y-9364024D02*
X12494619Y-9392595D01*
X12494619Y-9392595D02*
X12475572Y-9411643D01*
X12475572Y-9411643D02*
X12456524Y-9421167D01*
X12751762Y-9364024D02*
X12656524Y-9364024D01*
X12656524Y-9364024D02*
X12647000Y-9459262D01*
X12647000Y-9459262D02*
X12656524Y-9449738D01*
X12656524Y-9449738D02*
X12675572Y-9440214D01*
X12675572Y-9440214D02*
X12723191Y-9440214D01*
X12723191Y-9440214D02*
X12742238Y-9449738D01*
X12742238Y-9449738D02*
X12751762Y-9459262D01*
X12751762Y-9459262D02*
X12761286Y-9478310D01*
X12761286Y-9478310D02*
X12761286Y-9525929D01*
X12761286Y-9525929D02*
X12751762Y-9544976D01*
X12751762Y-9544976D02*
X12742238Y-9554500D01*
X12742238Y-9554500D02*
X12723191Y-9564024D01*
X12723191Y-9564024D02*
X12675572Y-9564024D01*
X12675572Y-9564024D02*
X12656524Y-9554500D01*
X12656524Y-9554500D02*
X12647000Y-9544976D01*
X12837476Y-9364024D02*
X12837476Y-9402119D01*
X12913667Y-9364024D02*
X12913667Y-9402119D01*
X13208905Y-9640214D02*
X13199381Y-9630690D01*
X13199381Y-9630690D02*
X13180334Y-9602119D01*
X13180334Y-9602119D02*
X13170810Y-9583071D01*
X13170810Y-9583071D02*
X13161286Y-9554500D01*
X13161286Y-9554500D02*
X13151762Y-9506881D01*
X13151762Y-9506881D02*
X13151762Y-9468786D01*
X13151762Y-9468786D02*
X13161286Y-9421167D01*
X13161286Y-9421167D02*
X13170810Y-9392595D01*
X13170810Y-9392595D02*
X13180334Y-9373548D01*
X13180334Y-9373548D02*
X13199381Y-9344976D01*
X13199381Y-9344976D02*
X13208905Y-9335452D01*
X13370810Y-9364024D02*
X13332714Y-9364024D01*
X13332714Y-9364024D02*
X13313667Y-9373548D01*
X13313667Y-9373548D02*
X13304143Y-9383071D01*
X13304143Y-9383071D02*
X13285095Y-9411643D01*
X13285095Y-9411643D02*
X13275572Y-9449738D01*
X13275572Y-9449738D02*
X13275572Y-9525929D01*
X13275572Y-9525929D02*
X13285095Y-9544976D01*
X13285095Y-9544976D02*
X13294619Y-9554500D01*
X13294619Y-9554500D02*
X13313667Y-9564024D01*
X13313667Y-9564024D02*
X13351762Y-9564024D01*
X13351762Y-9564024D02*
X13370810Y-9554500D01*
X13370810Y-9554500D02*
X13380334Y-9544976D01*
X13380334Y-9544976D02*
X13389857Y-9525929D01*
X13389857Y-9525929D02*
X13389857Y-9478310D01*
X13389857Y-9478310D02*
X13380334Y-9459262D01*
X13380334Y-9459262D02*
X13370810Y-9449738D01*
X13370810Y-9449738D02*
X13351762Y-9440214D01*
X13351762Y-9440214D02*
X13313667Y-9440214D01*
X13313667Y-9440214D02*
X13294619Y-9449738D01*
X13294619Y-9449738D02*
X13285095Y-9459262D01*
X13285095Y-9459262D02*
X13275572Y-9478310D01*
X13627953Y-9564024D02*
X13627953Y-9364024D01*
X13713667Y-9564024D02*
X13713667Y-9459262D01*
X13713667Y-9459262D02*
X13704143Y-9440214D01*
X13704143Y-9440214D02*
X13685096Y-9430690D01*
X13685096Y-9430690D02*
X13656524Y-9430690D01*
X13656524Y-9430690D02*
X13637476Y-9440214D01*
X13637476Y-9440214D02*
X13627953Y-9449738D01*
X13837476Y-9564024D02*
X13818429Y-9554500D01*
X13818429Y-9554500D02*
X13808905Y-9544976D01*
X13808905Y-9544976D02*
X13799381Y-9525929D01*
X13799381Y-9525929D02*
X13799381Y-9468786D01*
X13799381Y-9468786D02*
X13808905Y-9449738D01*
X13808905Y-9449738D02*
X13818429Y-9440214D01*
X13818429Y-9440214D02*
X13837476Y-9430690D01*
X13837476Y-9430690D02*
X13866048Y-9430690D01*
X13866048Y-9430690D02*
X13885096Y-9440214D01*
X13885096Y-9440214D02*
X13894619Y-9449738D01*
X13894619Y-9449738D02*
X13904143Y-9468786D01*
X13904143Y-9468786D02*
X13904143Y-9525929D01*
X13904143Y-9525929D02*
X13894619Y-9544976D01*
X13894619Y-9544976D02*
X13885096Y-9554500D01*
X13885096Y-9554500D02*
X13866048Y-9564024D01*
X13866048Y-9564024D02*
X13837476Y-9564024D01*
X14018429Y-9564024D02*
X13999381Y-9554500D01*
X13999381Y-9554500D02*
X13989857Y-9535452D01*
X13989857Y-9535452D02*
X13989857Y-9364024D01*
X14170810Y-9554500D02*
X14151762Y-9564024D01*
X14151762Y-9564024D02*
X14113667Y-9564024D01*
X14113667Y-9564024D02*
X14094619Y-9554500D01*
X14094619Y-9554500D02*
X14085096Y-9535452D01*
X14085096Y-9535452D02*
X14085096Y-9459262D01*
X14085096Y-9459262D02*
X14094619Y-9440214D01*
X14094619Y-9440214D02*
X14113667Y-9430690D01*
X14113667Y-9430690D02*
X14151762Y-9430690D01*
X14151762Y-9430690D02*
X14170810Y-9440214D01*
X14170810Y-9440214D02*
X14180334Y-9459262D01*
X14180334Y-9459262D02*
X14180334Y-9478310D01*
X14180334Y-9478310D02*
X14085096Y-9497357D01*
X14256524Y-9554500D02*
X14275572Y-9564024D01*
X14275572Y-9564024D02*
X14313667Y-9564024D01*
X14313667Y-9564024D02*
X14332715Y-9554500D01*
X14332715Y-9554500D02*
X14342238Y-9535452D01*
X14342238Y-9535452D02*
X14342238Y-9525929D01*
X14342238Y-9525929D02*
X14332715Y-9506881D01*
X14332715Y-9506881D02*
X14313667Y-9497357D01*
X14313667Y-9497357D02*
X14285096Y-9497357D01*
X14285096Y-9497357D02*
X14266048Y-9487833D01*
X14266048Y-9487833D02*
X14256524Y-9468786D01*
X14256524Y-9468786D02*
X14256524Y-9459262D01*
X14256524Y-9459262D02*
X14266048Y-9440214D01*
X14266048Y-9440214D02*
X14285096Y-9430690D01*
X14285096Y-9430690D02*
X14313667Y-9430690D01*
X14313667Y-9430690D02*
X14332715Y-9440214D01*
X14408905Y-9640214D02*
X14418429Y-9630690D01*
X14418429Y-9630690D02*
X14437477Y-9602119D01*
X14437477Y-9602119D02*
X14447000Y-9583071D01*
X14447000Y-9583071D02*
X14456524Y-9554500D01*
X14456524Y-9554500D02*
X14466048Y-9506881D01*
X14466048Y-9506881D02*
X14466048Y-9468786D01*
X14466048Y-9468786D02*
X14456524Y-9421167D01*
X14456524Y-9421167D02*
X14447000Y-9392595D01*
X14447000Y-9392595D02*
X14437477Y-9373548D01*
X14437477Y-9373548D02*
X14418429Y-9344976D01*
X14418429Y-9344976D02*
X14408905Y-9335452D01*
D10*
X9647000Y-9735500D02*
G75*
G03*
X9647000Y-9735500I-50000J0D01*
G01*
D11*
X9999381Y-9828024D02*
X9885095Y-9828024D01*
X9942238Y-9828024D02*
X9942238Y-9628024D01*
X9942238Y-9628024D02*
X9923190Y-9656595D01*
X9923190Y-9656595D02*
X9904143Y-9675643D01*
X9904143Y-9675643D02*
X9885095Y-9685167D01*
X10085095Y-9808976D02*
X10094619Y-9818500D01*
X10094619Y-9818500D02*
X10085095Y-9828024D01*
X10085095Y-9828024D02*
X10075571Y-9818500D01*
X10075571Y-9818500D02*
X10085095Y-9808976D01*
X10085095Y-9808976D02*
X10085095Y-9828024D01*
X10218429Y-9628024D02*
X10237476Y-9628024D01*
X10237476Y-9628024D02*
X10256524Y-9637548D01*
X10256524Y-9637548D02*
X10266048Y-9647071D01*
X10266048Y-9647071D02*
X10275571Y-9666119D01*
X10275571Y-9666119D02*
X10285095Y-9704214D01*
X10285095Y-9704214D02*
X10285095Y-9751833D01*
X10285095Y-9751833D02*
X10275571Y-9789929D01*
X10275571Y-9789929D02*
X10266048Y-9808976D01*
X10266048Y-9808976D02*
X10256524Y-9818500D01*
X10256524Y-9818500D02*
X10237476Y-9828024D01*
X10237476Y-9828024D02*
X10218429Y-9828024D01*
X10218429Y-9828024D02*
X10199381Y-9818500D01*
X10199381Y-9818500D02*
X10189857Y-9808976D01*
X10189857Y-9808976D02*
X10180333Y-9789929D01*
X10180333Y-9789929D02*
X10170810Y-9751833D01*
X10170810Y-9751833D02*
X10170810Y-9704214D01*
X10170810Y-9704214D02*
X10180333Y-9666119D01*
X10180333Y-9666119D02*
X10189857Y-9647071D01*
X10189857Y-9647071D02*
X10199381Y-9637548D01*
X10199381Y-9637548D02*
X10218429Y-9628024D01*
X10408905Y-9628024D02*
X10427952Y-9628024D01*
X10427952Y-9628024D02*
X10447000Y-9637548D01*
X10447000Y-9637548D02*
X10456524Y-9647071D01*
X10456524Y-9647071D02*
X10466048Y-9666119D01*
X10466048Y-9666119D02*
X10475571Y-9704214D01*
X10475571Y-9704214D02*
X10475571Y-9751833D01*
X10475571Y-9751833D02*
X10466048Y-9789929D01*
X10466048Y-9789929D02*
X10456524Y-9808976D01*
X10456524Y-9808976D02*
X10447000Y-9818500D01*
X10447000Y-9818500D02*
X10427952Y-9828024D01*
X10427952Y-9828024D02*
X10408905Y-9828024D01*
X10408905Y-9828024D02*
X10389857Y-9818500D01*
X10389857Y-9818500D02*
X10380333Y-9808976D01*
X10380333Y-9808976D02*
X10370810Y-9789929D01*
X10370810Y-9789929D02*
X10361286Y-9751833D01*
X10361286Y-9751833D02*
X10361286Y-9704214D01*
X10361286Y-9704214D02*
X10370810Y-9666119D01*
X10370810Y-9666119D02*
X10380333Y-9647071D01*
X10380333Y-9647071D02*
X10389857Y-9637548D01*
X10389857Y-9637548D02*
X10408905Y-9628024D01*
X10599381Y-9628024D02*
X10618429Y-9628024D01*
X10618429Y-9628024D02*
X10637476Y-9637548D01*
X10637476Y-9637548D02*
X10647000Y-9647071D01*
X10647000Y-9647071D02*
X10656524Y-9666119D01*
X10656524Y-9666119D02*
X10666048Y-9704214D01*
X10666048Y-9704214D02*
X10666048Y-9751833D01*
X10666048Y-9751833D02*
X10656524Y-9789929D01*
X10656524Y-9789929D02*
X10647000Y-9808976D01*
X10647000Y-9808976D02*
X10637476Y-9818500D01*
X10637476Y-9818500D02*
X10618429Y-9828024D01*
X10618429Y-9828024D02*
X10599381Y-9828024D01*
X10599381Y-9828024D02*
X10580333Y-9818500D01*
X10580333Y-9818500D02*
X10570810Y-9808976D01*
X10570810Y-9808976D02*
X10561286Y-9789929D01*
X10561286Y-9789929D02*
X10551762Y-9751833D01*
X10551762Y-9751833D02*
X10551762Y-9704214D01*
X10551762Y-9704214D02*
X10561286Y-9666119D01*
X10561286Y-9666119D02*
X10570810Y-9647071D01*
X10570810Y-9647071D02*
X10580333Y-9637548D01*
X10580333Y-9637548D02*
X10599381Y-9628024D01*
X10751762Y-9828024D02*
X10751762Y-9694690D01*
X10751762Y-9713738D02*
X10761286Y-9704214D01*
X10761286Y-9704214D02*
X10780333Y-9694690D01*
X10780333Y-9694690D02*
X10808905Y-9694690D01*
X10808905Y-9694690D02*
X10827952Y-9704214D01*
X10827952Y-9704214D02*
X10837476Y-9723262D01*
X10837476Y-9723262D02*
X10837476Y-9828024D01*
X10837476Y-9723262D02*
X10847000Y-9704214D01*
X10847000Y-9704214D02*
X10866048Y-9694690D01*
X10866048Y-9694690D02*
X10894619Y-9694690D01*
X10894619Y-9694690D02*
X10913667Y-9704214D01*
X10913667Y-9704214D02*
X10923191Y-9723262D01*
X10923191Y-9723262D02*
X10923191Y-9828024D01*
X11018429Y-9828024D02*
X11018429Y-9694690D01*
X11018429Y-9713738D02*
X11027952Y-9704214D01*
X11027952Y-9704214D02*
X11047000Y-9694690D01*
X11047000Y-9694690D02*
X11075572Y-9694690D01*
X11075572Y-9694690D02*
X11094619Y-9704214D01*
X11094619Y-9704214D02*
X11104143Y-9723262D01*
X11104143Y-9723262D02*
X11104143Y-9828024D01*
X11104143Y-9723262D02*
X11113667Y-9704214D01*
X11113667Y-9704214D02*
X11132714Y-9694690D01*
X11132714Y-9694690D02*
X11161286Y-9694690D01*
X11161286Y-9694690D02*
X11180333Y-9704214D01*
X11180333Y-9704214D02*
X11189857Y-9723262D01*
X11189857Y-9723262D02*
X11189857Y-9828024D01*
X11580333Y-9618500D02*
X11408905Y-9875643D01*
X11837476Y-9628024D02*
X11856524Y-9628024D01*
X11856524Y-9628024D02*
X11875572Y-9637548D01*
X11875572Y-9637548D02*
X11885095Y-9647071D01*
X11885095Y-9647071D02*
X11894619Y-9666119D01*
X11894619Y-9666119D02*
X11904143Y-9704214D01*
X11904143Y-9704214D02*
X11904143Y-9751833D01*
X11904143Y-9751833D02*
X11894619Y-9789929D01*
X11894619Y-9789929D02*
X11885095Y-9808976D01*
X11885095Y-9808976D02*
X11875572Y-9818500D01*
X11875572Y-9818500D02*
X11856524Y-9828024D01*
X11856524Y-9828024D02*
X11837476Y-9828024D01*
X11837476Y-9828024D02*
X11818429Y-9818500D01*
X11818429Y-9818500D02*
X11808905Y-9808976D01*
X11808905Y-9808976D02*
X11799381Y-9789929D01*
X11799381Y-9789929D02*
X11789857Y-9751833D01*
X11789857Y-9751833D02*
X11789857Y-9704214D01*
X11789857Y-9704214D02*
X11799381Y-9666119D01*
X11799381Y-9666119D02*
X11808905Y-9647071D01*
X11808905Y-9647071D02*
X11818429Y-9637548D01*
X11818429Y-9637548D02*
X11837476Y-9628024D01*
X11989857Y-9808976D02*
X11999381Y-9818500D01*
X11999381Y-9818500D02*
X11989857Y-9828024D01*
X11989857Y-9828024D02*
X11980333Y-9818500D01*
X11980333Y-9818500D02*
X11989857Y-9808976D01*
X11989857Y-9808976D02*
X11989857Y-9828024D01*
X12123191Y-9628024D02*
X12142238Y-9628024D01*
X12142238Y-9628024D02*
X12161286Y-9637548D01*
X12161286Y-9637548D02*
X12170810Y-9647071D01*
X12170810Y-9647071D02*
X12180333Y-9666119D01*
X12180333Y-9666119D02*
X12189857Y-9704214D01*
X12189857Y-9704214D02*
X12189857Y-9751833D01*
X12189857Y-9751833D02*
X12180333Y-9789929D01*
X12180333Y-9789929D02*
X12170810Y-9808976D01*
X12170810Y-9808976D02*
X12161286Y-9818500D01*
X12161286Y-9818500D02*
X12142238Y-9828024D01*
X12142238Y-9828024D02*
X12123191Y-9828024D01*
X12123191Y-9828024D02*
X12104143Y-9818500D01*
X12104143Y-9818500D02*
X12094619Y-9808976D01*
X12094619Y-9808976D02*
X12085095Y-9789929D01*
X12085095Y-9789929D02*
X12075572Y-9751833D01*
X12075572Y-9751833D02*
X12075572Y-9704214D01*
X12075572Y-9704214D02*
X12085095Y-9666119D01*
X12085095Y-9666119D02*
X12094619Y-9647071D01*
X12094619Y-9647071D02*
X12104143Y-9637548D01*
X12104143Y-9637548D02*
X12123191Y-9628024D01*
X12256524Y-9628024D02*
X12380333Y-9628024D01*
X12380333Y-9628024D02*
X12313667Y-9704214D01*
X12313667Y-9704214D02*
X12342238Y-9704214D01*
X12342238Y-9704214D02*
X12361286Y-9713738D01*
X12361286Y-9713738D02*
X12370810Y-9723262D01*
X12370810Y-9723262D02*
X12380333Y-9742310D01*
X12380333Y-9742310D02*
X12380333Y-9789929D01*
X12380333Y-9789929D02*
X12370810Y-9808976D01*
X12370810Y-9808976D02*
X12361286Y-9818500D01*
X12361286Y-9818500D02*
X12342238Y-9828024D01*
X12342238Y-9828024D02*
X12285095Y-9828024D01*
X12285095Y-9828024D02*
X12266048Y-9818500D01*
X12266048Y-9818500D02*
X12256524Y-9808976D01*
X12475572Y-9828024D02*
X12513667Y-9828024D01*
X12513667Y-9828024D02*
X12532714Y-9818500D01*
X12532714Y-9818500D02*
X12542238Y-9808976D01*
X12542238Y-9808976D02*
X12561286Y-9780405D01*
X12561286Y-9780405D02*
X12570810Y-9742310D01*
X12570810Y-9742310D02*
X12570810Y-9666119D01*
X12570810Y-9666119D02*
X12561286Y-9647071D01*
X12561286Y-9647071D02*
X12551762Y-9637548D01*
X12551762Y-9637548D02*
X12532714Y-9628024D01*
X12532714Y-9628024D02*
X12494619Y-9628024D01*
X12494619Y-9628024D02*
X12475572Y-9637548D01*
X12475572Y-9637548D02*
X12466048Y-9647071D01*
X12466048Y-9647071D02*
X12456524Y-9666119D01*
X12456524Y-9666119D02*
X12456524Y-9713738D01*
X12456524Y-9713738D02*
X12466048Y-9732786D01*
X12466048Y-9732786D02*
X12475572Y-9742310D01*
X12475572Y-9742310D02*
X12494619Y-9751833D01*
X12494619Y-9751833D02*
X12532714Y-9751833D01*
X12532714Y-9751833D02*
X12551762Y-9742310D01*
X12551762Y-9742310D02*
X12561286Y-9732786D01*
X12561286Y-9732786D02*
X12570810Y-9713738D01*
X12742238Y-9694690D02*
X12742238Y-9828024D01*
X12694619Y-9618500D02*
X12647000Y-9761357D01*
X12647000Y-9761357D02*
X12770810Y-9761357D01*
X12837476Y-9628024D02*
X12837476Y-9666119D01*
X12913667Y-9628024D02*
X12913667Y-9666119D01*
X13208905Y-9904214D02*
X13199381Y-9894690D01*
X13199381Y-9894690D02*
X13180334Y-9866119D01*
X13180334Y-9866119D02*
X13170810Y-9847071D01*
X13170810Y-9847071D02*
X13161286Y-9818500D01*
X13161286Y-9818500D02*
X13151762Y-9770881D01*
X13151762Y-9770881D02*
X13151762Y-9732786D01*
X13151762Y-9732786D02*
X13161286Y-9685167D01*
X13161286Y-9685167D02*
X13170810Y-9656595D01*
X13170810Y-9656595D02*
X13180334Y-9637548D01*
X13180334Y-9637548D02*
X13199381Y-9608976D01*
X13199381Y-9608976D02*
X13208905Y-9599452D01*
X13313667Y-9713738D02*
X13294619Y-9704214D01*
X13294619Y-9704214D02*
X13285095Y-9694690D01*
X13285095Y-9694690D02*
X13275572Y-9675643D01*
X13275572Y-9675643D02*
X13275572Y-9666119D01*
X13275572Y-9666119D02*
X13285095Y-9647071D01*
X13285095Y-9647071D02*
X13294619Y-9637548D01*
X13294619Y-9637548D02*
X13313667Y-9628024D01*
X13313667Y-9628024D02*
X13351762Y-9628024D01*
X13351762Y-9628024D02*
X13370810Y-9637548D01*
X13370810Y-9637548D02*
X13380334Y-9647071D01*
X13380334Y-9647071D02*
X13389857Y-9666119D01*
X13389857Y-9666119D02*
X13389857Y-9675643D01*
X13389857Y-9675643D02*
X13380334Y-9694690D01*
X13380334Y-9694690D02*
X13370810Y-9704214D01*
X13370810Y-9704214D02*
X13351762Y-9713738D01*
X13351762Y-9713738D02*
X13313667Y-9713738D01*
X13313667Y-9713738D02*
X13294619Y-9723262D01*
X13294619Y-9723262D02*
X13285095Y-9732786D01*
X13285095Y-9732786D02*
X13275572Y-9751833D01*
X13275572Y-9751833D02*
X13275572Y-9789929D01*
X13275572Y-9789929D02*
X13285095Y-9808976D01*
X13285095Y-9808976D02*
X13294619Y-9818500D01*
X13294619Y-9818500D02*
X13313667Y-9828024D01*
X13313667Y-9828024D02*
X13351762Y-9828024D01*
X13351762Y-9828024D02*
X13370810Y-9818500D01*
X13370810Y-9818500D02*
X13380334Y-9808976D01*
X13380334Y-9808976D02*
X13389857Y-9789929D01*
X13389857Y-9789929D02*
X13389857Y-9751833D01*
X13389857Y-9751833D02*
X13380334Y-9732786D01*
X13380334Y-9732786D02*
X13370810Y-9723262D01*
X13370810Y-9723262D02*
X13351762Y-9713738D01*
X13627953Y-9828024D02*
X13627953Y-9628024D01*
X13713667Y-9828024D02*
X13713667Y-9723262D01*
X13713667Y-9723262D02*
X13704143Y-9704214D01*
X13704143Y-9704214D02*
X13685096Y-9694690D01*
X13685096Y-9694690D02*
X13656524Y-9694690D01*
X13656524Y-9694690D02*
X13637476Y-9704214D01*
X13637476Y-9704214D02*
X13627953Y-9713738D01*
X13837476Y-9828024D02*
X13818429Y-9818500D01*
X13818429Y-9818500D02*
X13808905Y-9808976D01*
X13808905Y-9808976D02*
X13799381Y-9789929D01*
X13799381Y-9789929D02*
X13799381Y-9732786D01*
X13799381Y-9732786D02*
X13808905Y-9713738D01*
X13808905Y-9713738D02*
X13818429Y-9704214D01*
X13818429Y-9704214D02*
X13837476Y-9694690D01*
X13837476Y-9694690D02*
X13866048Y-9694690D01*
X13866048Y-9694690D02*
X13885096Y-9704214D01*
X13885096Y-9704214D02*
X13894619Y-9713738D01*
X13894619Y-9713738D02*
X13904143Y-9732786D01*
X13904143Y-9732786D02*
X13904143Y-9789929D01*
X13904143Y-9789929D02*
X13894619Y-9808976D01*
X13894619Y-9808976D02*
X13885096Y-9818500D01*
X13885096Y-9818500D02*
X13866048Y-9828024D01*
X13866048Y-9828024D02*
X13837476Y-9828024D01*
X14018429Y-9828024D02*
X13999381Y-9818500D01*
X13999381Y-9818500D02*
X13989857Y-9799452D01*
X13989857Y-9799452D02*
X13989857Y-9628024D01*
X14170810Y-9818500D02*
X14151762Y-9828024D01*
X14151762Y-9828024D02*
X14113667Y-9828024D01*
X14113667Y-9828024D02*
X14094619Y-9818500D01*
X14094619Y-9818500D02*
X14085096Y-9799452D01*
X14085096Y-9799452D02*
X14085096Y-9723262D01*
X14085096Y-9723262D02*
X14094619Y-9704214D01*
X14094619Y-9704214D02*
X14113667Y-9694690D01*
X14113667Y-9694690D02*
X14151762Y-9694690D01*
X14151762Y-9694690D02*
X14170810Y-9704214D01*
X14170810Y-9704214D02*
X14180334Y-9723262D01*
X14180334Y-9723262D02*
X14180334Y-9742310D01*
X14180334Y-9742310D02*
X14085096Y-9761357D01*
X14256524Y-9818500D02*
X14275572Y-9828024D01*
X14275572Y-9828024D02*
X14313667Y-9828024D01*
X14313667Y-9828024D02*
X14332715Y-9818500D01*
X14332715Y-9818500D02*
X14342238Y-9799452D01*
X14342238Y-9799452D02*
X14342238Y-9789929D01*
X14342238Y-9789929D02*
X14332715Y-9770881D01*
X14332715Y-9770881D02*
X14313667Y-9761357D01*
X14313667Y-9761357D02*
X14285096Y-9761357D01*
X14285096Y-9761357D02*
X14266048Y-9751833D01*
X14266048Y-9751833D02*
X14256524Y-9732786D01*
X14256524Y-9732786D02*
X14256524Y-9723262D01*
X14256524Y-9723262D02*
X14266048Y-9704214D01*
X14266048Y-9704214D02*
X14285096Y-9694690D01*
X14285096Y-9694690D02*
X14313667Y-9694690D01*
X14313667Y-9694690D02*
X14332715Y-9704214D01*
X14408905Y-9904214D02*
X14418429Y-9894690D01*
X14418429Y-9894690D02*
X14437477Y-9866119D01*
X14437477Y-9866119D02*
X14447000Y-9847071D01*
X14447000Y-9847071D02*
X14456524Y-9818500D01*
X14456524Y-9818500D02*
X14466048Y-9770881D01*
X14466048Y-9770881D02*
X14466048Y-9732786D01*
X14466048Y-9732786D02*
X14456524Y-9685167D01*
X14456524Y-9685167D02*
X14447000Y-9656595D01*
X14447000Y-9656595D02*
X14437477Y-9637548D01*
X14437477Y-9637548D02*
X14418429Y-9608976D01*
X14418429Y-9608976D02*
X14408905Y-9599452D01*
M02*
